<svg width="1078" height="779" viewBox="0 0 1078 779" fill="none" xmlns="http://www.w3.org/2000/svg">
<mask id="mask0_739_5540" style="mask-type:alpha" maskUnits="userSpaceOnUse" x="168" y="183" width="742" height="451">
<path d="M909.14 183.881H168.756V633.004H909.14V183.881Z" fill="white"/>
</mask>
<g mask="url(#mask0_739_5540)">
<path fill-rule="evenodd" clip-rule="evenodd" d="M169.701 477.997C183.955 557.334 379.331 659.428 526.802 599.254C662.339 543.952 937.994 508.196 902.854 414.816C873.534 336.896 673.94 380.773 499.854 353.141C304.156 322.078 155.446 398.66 169.701 477.997Z" fill="#F0F1F3"/>
</g>
<path fill-rule="evenodd" clip-rule="evenodd" d="M652.001 547.844L624.737 550.849V585.818C624.737 589.073 627.376 591.713 630.632 591.713H646.106C649.362 591.713 652.001 589.073 652.001 585.818V547.844ZM867.167 550.847H839.903V585.816C839.903 589.072 842.542 591.711 845.798 591.711H861.272C864.528 591.711 867.167 589.072 867.167 585.816V550.847Z" fill="white"/>
<mask id="mask1_739_5540" style="mask-type:alpha" maskUnits="userSpaceOnUse" x="624" y="547" width="244" height="45">
<path fill-rule="evenodd" clip-rule="evenodd" d="M652.001 547.844L624.737 550.849V585.818C624.737 589.073 627.376 591.713 630.632 591.713H646.106C649.362 591.713 652.001 589.073 652.001 585.818V547.844ZM867.167 550.847H839.903V585.816C839.903 589.072 842.542 591.711 845.798 591.711H861.272C864.528 591.711 867.167 589.072 867.167 585.816V550.847Z" fill="white"/>
</mask>
<g mask="url(#mask1_739_5540)">
<g opacity="0.8">
<rect x="600.873" y="498.381" width="295.022" height="121.455" fill="#001F3E"/>
</g>
</g>
<g clip-path="url(#clip0_739_5540)">
<path fill-rule="evenodd" clip-rule="evenodd" d="M673.743 398.516C675.751 394.488 679.751 391.847 684.246 391.614C698.18 390.894 728.79 389.417 745.583 389.417C762.449 389.417 796.691 390.907 812.192 391.624C817.05 391.849 821.31 394.877 823.15 399.378L848.907 462.374C849.759 464.46 850.851 466.439 852.16 468.272L861.843 481.834C865.367 486.769 867.262 492.683 867.262 498.747V545.806C867.262 561.861 854.262 574.884 838.207 574.913L653.26 575.241C637.165 575.269 624.102 562.229 624.102 546.134V493.894C624.102 487.394 626.278 481.08 630.284 475.96L641.882 461.135C643.088 459.594 644.135 457.934 645.008 456.182L673.743 398.516Z" fill="white"/>
<mask id="mask2_739_5540" style="mask-type:alpha" maskUnits="userSpaceOnUse" x="624" y="389" width="244" height="187">
<path fill-rule="evenodd" clip-rule="evenodd" d="M673.743 398.516C675.751 394.488 679.751 391.847 684.246 391.614C698.18 390.894 728.79 389.417 745.583 389.417C762.449 389.417 796.691 390.907 812.192 391.624C817.05 391.849 821.31 394.877 823.15 399.378L848.907 462.374C849.759 464.46 850.851 466.439 852.16 468.272L861.843 481.834C865.367 486.769 867.262 492.683 867.262 498.747V545.806C867.262 561.861 854.262 574.884 838.207 574.913L653.26 575.241C637.165 575.269 624.102 562.229 624.102 546.134V493.894C624.102 487.394 626.278 481.08 630.284 475.96L641.882 461.135C643.088 459.594 644.135 457.934 645.008 456.182L673.743 398.516Z" fill="white"/>
</mask>
<g mask="url(#mask2_739_5540)">
<g opacity="0.2">
<rect x="563.831" y="369.604" width="369.101" height="214.484" fill="#001F3E"/>
</g>
</g>
</g>
<path fill-rule="evenodd" clip-rule="evenodd" d="M675.458 401.665C677.434 397.49 681.534 394.742 686.149 394.533C699.511 393.93 727.701 392.757 745.034 392.757C762.534 392.757 794.699 393.952 809.699 394.55C814.628 394.747 818.973 397.832 820.798 402.415L838.179 446.053H654.447L675.458 401.665Z" fill="white"/>
<mask id="mask3_739_5540" style="mask-type:alpha" maskUnits="userSpaceOnUse" x="654" y="392" width="185" height="55">
<path fill-rule="evenodd" clip-rule="evenodd" d="M675.458 401.665C677.434 397.49 681.534 394.742 686.149 394.533C699.511 393.93 727.701 392.757 745.034 392.757C762.534 392.757 794.699 393.952 809.699 394.55C814.628 394.747 818.973 397.832 820.798 402.415L838.179 446.053H654.447L675.458 401.665Z" fill="white"/>
</mask>
<g mask="url(#mask3_739_5540)">
<g opacity="0.6">
<rect x="573.313" y="379.51" width="345.844" height="123.177" fill="#001F3E"/>
</g>
</g>
<g clip-path="url(#clip1_739_5540)">
<path fill-rule="evenodd" clip-rule="evenodd" d="M645.734 435.584C645.734 433.57 644.101 431.937 642.086 431.937H624.328C622.313 431.937 620.68 433.57 620.68 435.584V449.641C620.68 451.656 622.313 453.289 624.328 453.289H645.734V435.584ZM849.076 431.983C847.061 431.983 845.428 433.616 845.428 435.631V453.335H866.834C868.849 453.335 870.482 451.702 870.482 449.688V435.631C870.482 433.616 868.849 431.983 866.834 431.983H849.076ZM689.856 494.508C676.699 492.965 663.885 491.234 653.438 489.744C641.832 488.089 635.934 475.073 642.172 465.148L654.443 445.622H838.175L846.234 465.621C850.041 475.067 844.406 485.619 834.394 487.487C825.426 489.16 814.079 491.167 802.073 493.021C801.999 493.324 801.884 493.626 801.724 493.92L797.307 502.046C795.501 505.367 792.023 507.435 788.243 507.435H755.955C752.088 507.435 748.954 504.301 748.954 500.435V498.679C747.535 498.716 746.154 498.735 744.817 498.735C743.999 498.735 743.162 498.729 742.306 498.717V500.435C742.306 504.301 739.172 507.435 735.306 507.435H703.018C699.237 507.435 695.759 505.367 693.954 502.046L689.856 494.508ZM642.59 564.036C630.96 562.238 624.735 551.611 624.735 551.611C624.735 551.611 625.623 568.525 629.019 572.9C632.415 577.275 644.527 575.292 644.527 575.292H852.958C852.958 575.292 860.813 571.863 863.902 567.18C866.991 562.497 867.011 550.678 867.011 550.678C867.011 550.678 859.677 561.636 853.534 562.773C848.935 563.624 823.398 563.909 810.851 563.998C807.008 564.026 803.89 560.915 803.89 557.073C803.89 553.238 800.781 550.129 796.946 550.129H693.724C689.777 550.129 686.577 553.329 686.577 557.276C686.577 561.069 683.622 564.196 679.832 564.353C669.706 564.772 650.881 565.318 642.59 564.036Z" fill="white"/>
<mask id="mask4_739_5540" style="mask-type:alpha" maskUnits="userSpaceOnUse" x="620" y="431" width="251" height="145">
<path fill-rule="evenodd" clip-rule="evenodd" d="M645.734 435.584C645.734 433.57 644.101 431.937 642.086 431.937H624.328C622.313 431.937 620.68 433.57 620.68 435.584V449.641C620.68 451.656 622.313 453.289 624.328 453.289H645.734V435.584ZM849.076 431.983C847.061 431.983 845.428 433.616 845.428 435.631V453.335H866.834C868.849 453.335 870.482 451.702 870.482 449.688V435.631C870.482 433.616 868.849 431.983 866.834 431.983H849.076ZM689.856 494.508C676.699 492.965 663.885 491.234 653.438 489.744C641.832 488.089 635.934 475.073 642.172 465.148L654.443 445.622H838.175L846.234 465.621C850.041 475.067 844.406 485.619 834.394 487.487C825.426 489.16 814.079 491.167 802.073 493.021C801.999 493.324 801.884 493.626 801.724 493.92L797.307 502.046C795.501 505.367 792.023 507.435 788.243 507.435H755.955C752.088 507.435 748.954 504.301 748.954 500.435V498.679C747.535 498.716 746.154 498.735 744.817 498.735C743.999 498.735 743.162 498.729 742.306 498.717V500.435C742.306 504.301 739.172 507.435 735.306 507.435H703.018C699.237 507.435 695.759 505.367 693.954 502.046L689.856 494.508ZM642.59 564.036C630.96 562.238 624.735 551.611 624.735 551.611C624.735 551.611 625.623 568.525 629.019 572.9C632.415 577.275 644.527 575.292 644.527 575.292H852.958C852.958 575.292 860.813 571.863 863.902 567.18C866.991 562.497 867.011 550.678 867.011 550.678C867.011 550.678 859.677 561.636 853.534 562.773C848.935 563.624 823.398 563.909 810.851 563.998C807.008 564.026 803.89 560.915 803.89 557.073C803.89 553.238 800.781 550.129 796.946 550.129H693.724C689.777 550.129 686.577 553.329 686.577 557.276C686.577 561.069 683.622 564.196 679.832 564.353C669.706 564.772 650.881 565.318 642.59 564.036Z" fill="white"/>
</mask>
<g mask="url(#mask4_739_5540)">
<g opacity="0.8">
<rect x="506.551" y="364.866" width="468.59" height="236.018" fill="#001F3E"/>
</g>
</g>
</g>
<mask id="mask5_739_5540" style="mask-type:alpha" maskUnits="userSpaceOnUse" x="697" y="200" width="97" height="139">
<path d="M745.581 338.8C757.477 338.8 793.165 284.052 793.165 246.593C793.165 221.131 771.861 200.49 745.581 200.49C719.301 200.49 697.997 221.131 697.997 246.593C697.997 284.052 733.685 338.8 745.581 338.8Z" fill="white"/>
</mask>
<g mask="url(#mask5_739_5540)">
<path d="M745.581 338.8C757.477 338.8 793.165 284.052 793.165 246.593C793.165 221.131 771.861 200.49 745.581 200.49C719.301 200.49 697.997 221.131 697.997 246.593C697.997 284.052 733.685 338.8 745.581 338.8Z" fill="#10A1E3"/>
</g>
<mask id="mask6_739_5540" style="mask-type:alpha" maskUnits="userSpaceOnUse" x="730" y="232" width="31" height="30">
<path d="M745.581 261.001C753.794 261.001 760.451 254.55 760.451 246.593C760.451 238.636 753.794 232.186 745.581 232.186C737.369 232.186 730.711 238.636 730.711 246.593C730.711 254.55 737.369 261.001 745.581 261.001Z" fill="white"/>
</mask>
<g mask="url(#mask6_739_5540)">
<path d="M745.581 261.001C753.794 261.001 760.451 254.55 760.451 246.593C760.451 238.636 753.794 232.186 745.581 232.186C737.369 232.186 730.711 238.636 730.711 246.593C730.711 254.55 737.369 261.001 745.581 261.001Z" fill="white"/>
</g>
<path fill-rule="evenodd" clip-rule="evenodd" d="M255.252 535.906C255.252 535.906 250.093 547.095 275 576.735C299.907 606.377 305.096 627.483 305.096 627.483C305.096 627.483 317.62 659.788 316.999 681.43C316.999 681.43 336.156 684.685 358.849 685.739C381.542 686.795 333.055 564.48 333.055 564.48L255.252 535.906Z" fill="#F9CEC1"/>
<path fill-rule="evenodd" clip-rule="evenodd" d="M266.493 546.218C266.493 546.218 280.667 563.215 291.533 569.791C302.4 576.369 336.786 610.014 336.255 580.824C340.797 576.76 438.923 480.041 427.595 425.641L266.493 546.218Z" fill="#F2A091"/>
<path fill-rule="evenodd" clip-rule="evenodd" d="M318.571 293.776C300.168 267.112 287.517 253.776 279.412 261.811C267.65 273.476 297.532 335.468 297.532 335.468L318.571 293.776Z" fill="#F2A091"/>
<path fill-rule="evenodd" clip-rule="evenodd" d="M268.607 372.541C268.607 372.541 232.423 301.177 248.624 288.285C264.822 275.396 295.953 336.043 295.953 336.043L268.607 372.541Z" fill="#F2A091"/>
<path fill-rule="evenodd" clip-rule="evenodd" d="M262.712 415.336C262.712 415.336 225.754 356.612 214.307 368.539C202.687 380.651 238.346 440.007 238.346 440.007L262.712 415.336Z" fill="#F2A091"/>
<path fill-rule="evenodd" clip-rule="evenodd" d="M332.307 573.57L223.239 526.419C210.648 520.975 205.034 506.553 210.7 494.203L338.449 215.77C344.116 203.42 358.916 197.821 371.507 203.264L480.575 250.415C493.164 255.858 498.779 270.283 493.113 282.633L365.364 561.065C359.697 573.416 344.896 579.013 332.307 573.57Z" fill="#334C65"/>
<mask id="mask7_739_5540" style="mask-type:alpha" maskUnits="userSpaceOnUse" x="229" y="210" width="257" height="331">
<path d="M344.141 538.427L242.197 494.336C232.06 489.952 227.252 478.967 231.458 469.801L345.534 221.21C349.739 212.045 361.367 208.169 371.504 212.553L473.448 256.643C483.585 261.028 488.393 272.012 484.187 281.177L370.112 529.768C365.905 538.935 354.278 542.811 344.141 538.427Z" fill="white"/>
</mask>
<g mask="url(#mask7_739_5540)">
<path d="M344.043 538.25L242.055 494.255C231.914 489.88 227.106 478.904 231.317 469.74L345.525 221.206C349.735 212.043 361.371 208.161 371.512 212.536L473.5 256.531C483.641 260.905 488.449 271.881 484.238 281.044L370.031 529.578C365.819 538.742 354.184 542.624 344.043 538.25Z" fill="#001E3E"/>
<mask id="mask8_739_5540" style="mask-type:alpha" maskUnits="userSpaceOnUse" x="221" y="243" width="272" height="293">
<path d="M471.29 251.783L475.321 255.883L446.382 282.67L491.968 277.932L492.598 283.563L439.448 289.088L410.439 315.947L370.262 320.086L348.697 352.433L356.434 359.942L450.035 313.27L492.298 313.308L492.303 324.633L452.866 324.595L364.369 368.725L392.884 403.949L414.959 485.228L409.316 486.664L387.55 406.521L359.085 371.358L356.054 372.874L323.17 412.937L342.139 452.795L336.29 535.621L330.468 535.226L336.215 453.847L319.104 417.888L293.138 449.532L225.996 474.089L221.866 463.491L286.001 440.032L313.624 406.376L310.243 399.271L310.067 398.791L286.684 311L292.334 309.59L315.651 397.134L317.689 401.42L348.482 363.911L350.986 362.659L341.236 353.194L372.894 305.708L336.225 285.914L339.057 280.967L381.186 303.71L374.342 313.969L407.843 310.517L432.79 287.421L324.957 249.283L326.949 243.963L437.499 283.061L471.29 251.783Z" fill="white"/>
</mask>
<g mask="url(#mask8_739_5540)">
<g opacity="0.2">
<g opacity="0.2">
<g opacity="0.2">
<g opacity="0.4">
<path opacity="0.4" d="M503.361 264.261L329.971 189.46L196.954 478.934L370.345 553.735L503.361 264.261Z" fill="white"/>
</g>
</g>
</g>
</g>
</g>
<ellipse cx="369.403" cy="370.501" rx="199.066" ry="199.16" transform="rotate(-16 369.403 370.501)" fill="#FAF6ED"/>
<mask id="mask9_739_5540" style="mask-type:alpha" maskUnits="userSpaceOnUse" x="170" y="171" width="399" height="399">
<ellipse cx="369.403" cy="370.501" rx="199.066" ry="199.16" transform="rotate(-16 369.403 370.501)" fill="white"/>
</mask>
<g mask="url(#mask9_739_5540)">
<mask id="path-31-inside-1_739_5540" fill="white">
<path fill-rule="evenodd" clip-rule="evenodd" d="M269.335 162.399L264.63 171.173C285.414 182.33 303.914 192.375 320.123 201.301C318.712 213.204 320.749 231.235 326.136 255.682C328.687 267.261 330.632 276.073 332.398 284.045C328.838 285.109 325.109 286.248 321.203 287.461C317.159 288.718 313.394 289.903 307.085 291.901C296.165 295.359 289.93 297.319 284.938 298.833C282.185 275.126 274.858 238.609 262.961 188.887L253.281 191.203C253.843 193.554 254.395 195.875 254.937 198.167L247.844 194.707C238.004 214.904 231.593 228.915 228.571 236.848C227.588 239.427 226.878 241.679 226.37 243.873C225.363 248.217 225.127 252.343 225.442 258.335C225.486 259.166 225.485 259.329 225.485 259.406L225.485 259.406C225.485 259.418 225.485 259.427 225.486 259.436C225.486 259.482 225.49 259.527 225.514 259.79L225.515 259.791L225.515 259.792L225.515 259.792L225.515 259.793L225.515 259.793C225.601 260.735 225.942 264.445 227.28 280.747C227.67 285.485 229.139 295.411 231.365 308.828C211.06 310.801 186.381 311.98 157.358 312.354L157.489 322.311C187.066 321.93 212.235 320.721 233.027 318.67C235.841 335.099 239.482 355.275 243.521 376.942C212.32 366.084 184.373 359.212 159.648 356.339L157.356 376.121C183.327 379.139 213.488 386.969 247.791 399.628C255.241 438.834 263.46 480.239 270.158 511.79C254.386 518.146 237.115 524.337 218.347 530.359L221.389 539.841C239.741 533.952 256.702 527.896 272.276 521.671C275.952 538.64 279.035 551.861 281.078 558.986L290.646 556.243C288.578 549.034 285.411 535.384 281.627 517.842C294.891 512.278 307.072 506.581 318.168 500.75L340.858 613.937L350.617 611.981L327.322 495.771C332.526 492.838 337.463 489.873 342.134 486.873C351.878 480.616 361.598 474.254 373.632 466.287C373.706 466.238 373.796 466.179 373.9 466.11C409.198 495.814 439.564 535.707 465.005 585.896L482.759 576.893C474.303 560.21 465.3 544.582 455.75 530.013C458.007 523.668 456.702 514.045 452.41 494.139C452.118 492.786 451.257 488.865 450.298 484.497L450.283 484.431L450.279 484.413C449.099 479.038 447.775 473.009 447.182 470.264C446.331 466.323 445.514 462.471 444.512 457.695C444.453 457.411 444.262 456.501 444.01 455.294L443.989 455.192C443.373 452.251 442.41 447.645 442.052 445.945C440.52 438.661 439.015 431.751 437.434 424.826C442.34 421.858 446.836 419.247 451.161 416.849C463.943 409.764 464.085 409.684 467.761 407.501C473.114 404.321 477.118 401.598 480.922 398.485C484.018 395.952 486.953 393.215 490.34 389.611C504.702 425.148 521.33 469.891 540.218 523.825L549.612 520.535C529.859 464.13 512.558 417.717 497.7 381.28C501.295 377.019 505.503 371.821 510.699 365.277C519.78 353.84 529.451 341.336 539.713 327.764L586.067 353.472L590.892 344.764L545.761 319.733C553.792 309.026 562.17 297.693 570.895 285.734L562.854 279.862C553.855 292.199 545.227 303.864 536.971 314.858L476.618 281.385L505.044 236.085L567.521 270.736L572.346 262.028L510.344 227.64L512.234 224.628L503.803 219.333L456.414 294.851C441.343 270.468 426.19 254.988 406.04 240.274C390.493 228.921 345.055 203.049 269.335 162.399ZM446.382 516.306C445.782 511.511 444.574 505.021 442.68 496.236C442.391 494.894 441.529 490.971 440.568 486.596L440.566 486.584L440.545 486.493C439.368 481.131 438.048 475.119 437.453 472.364C436.597 468.402 435.776 464.53 434.771 459.737C434.711 459.452 434.521 458.544 434.269 457.341C433.655 454.405 432.673 449.709 432.312 447.993C431.036 441.925 429.779 436.121 428.481 430.35C421.006 435.041 412.5 440.553 402.344 447.253C400.167 448.688 395.822 451.568 391.145 454.67C411.136 472.142 429.549 492.693 446.382 516.306ZM383.223 447.975C388.775 444.292 394.307 440.626 396.863 438.939C408.417 431.317 417.866 425.211 426.117 420.086C421.398 400.058 415.749 378.807 406.644 346.916C403.659 347.829 400.452 348.864 395.829 350.384C391.662 351.754 390.491 352.137 388.495 352.774C378.604 355.927 369.581 358.217 359.785 359.752C363.513 375.543 366.425 387.196 368.403 394.094C372.56 408.592 370.309 421.388 361.783 431.99C369.113 436.959 376.26 442.288 383.223 447.975ZM353.397 426.512C360.428 418.264 362.194 408.549 358.836 396.838C356.767 389.623 353.737 377.484 349.857 361.02C340.222 361.988 329.478 362.348 316.348 362.186C285.462 361.805 267.045 360.779 259.068 358.679C256.54 360.044 253.84 361.327 250.969 362.527C252.067 368.487 253.204 374.605 254.371 380.83C275.711 388.693 298.504 398.333 322.76 409.746C333.294 414.703 343.507 420.292 353.397 426.512ZM258.711 403.766C265.7 440.362 273.254 478.356 279.51 507.928C301.846 498.47 320.93 488.656 336.756 478.493C345.815 472.676 354.861 466.762 365.793 459.535C349.619 446.899 332.451 436.313 314.291 427.767C294.743 418.569 276.215 410.569 258.711 403.766ZM471.318 289.831L530.919 322.886C521.021 335.961 511.682 348.027 502.904 359.082C499.281 363.646 496.159 367.527 493.409 370.871C488.361 358.765 483.614 347.888 479.167 338.239C473.25 325.399 467.646 314.286 462.113 304.501L471.318 289.831ZM450.47 304.236C435.245 278.542 420.397 263.084 400.172 248.316C398.298 246.947 395.951 245.347 393.133 243.517C394.865 262.406 401.626 292.774 413.419 334.394C428.248 329.021 440.569 319.014 450.47 304.236ZM403.908 337.34C398.005 316.518 393.335 298.448 389.9 283.102C382.025 281.741 367.304 284.425 344.138 291.001C344.946 294.633 345.752 298.245 346.602 302.048C347.716 307.028 348.799 311.854 349.854 316.536C352.647 328.926 355.206 340.128 357.507 350.028C367.081 348.572 375.816 346.364 385.47 343.286C387.426 342.663 388.583 342.284 392.719 340.924C397.495 339.354 400.799 338.288 403.908 337.34ZM347.57 351.24C345.326 341.575 342.845 330.705 340.144 318.724C339.088 314.036 338.003 309.205 336.889 304.219C336.087 300.633 335.325 297.218 334.564 293.796C331.244 294.788 327.776 295.847 324.157 296.971C320.135 298.221 316.384 299.402 310.091 301.395C297.688 305.322 291.292 307.33 285.889 308.947C286.319 315.31 286.273 320.348 285.753 324.075C284.307 334.426 279.359 343.235 271.065 350.485C272.637 350.634 274.369 350.776 276.248 350.907C285.822 351.575 299.237 352.017 316.469 352.23C328.656 352.38 338.646 352.076 347.57 351.24ZM416.159 343.99C431.905 338.436 445.177 328.342 455.905 313.812C460.501 322.245 465.191 331.692 470.128 342.406C475.091 353.174 480.438 365.506 486.171 379.4C481.661 384.489 478.218 387.832 474.619 390.776C471.24 393.541 467.633 395.994 462.677 398.938C459.132 401.045 458.97 401.135 446.335 408.139C442.724 410.14 439.009 412.281 435.055 414.639C430.439 395.324 424.861 374.464 416.159 343.99ZM255.686 201.343C266.394 246.895 272.918 280.454 275.263 301.657C266.232 304.104 254.897 306.14 241.266 307.762C239.044 294.412 237.581 284.567 237.201 279.934C235.883 263.885 235.546 260.22 235.458 259.26L235.457 259.259L235.457 259.258L235.457 259.258C235.433 258.991 235.428 258.934 235.426 258.877L235.425 258.857L235.425 258.826L235.425 258.826C235.423 258.733 235.42 258.545 235.382 257.814C235.112 252.679 235.297 249.444 236.066 246.123C236.464 244.406 237.041 242.577 237.872 240.397C240.646 233.115 246.596 220.064 255.686 201.343ZM276.114 311.732C267.033 314.07 255.975 316.022 242.93 317.591C244.703 327.915 246.805 339.734 249.128 352.48C265.41 345.221 274.132 335.312 275.895 322.695C276.277 319.963 276.35 316.306 276.114 311.732ZM341.973 281.249C363.395 275.163 377.849 272.335 387.71 272.868C384.655 257.835 383.006 245.899 382.764 237.027C370.202 229.388 352.502 219.235 329.691 206.587C329.274 217.172 331.306 232.889 335.856 253.541C338.338 264.806 340.245 273.45 341.973 281.249Z"/>
</mask>
<path fill-rule="evenodd" clip-rule="evenodd" d="M269.335 162.399L264.63 171.173C285.414 182.33 303.914 192.375 320.123 201.301C318.712 213.204 320.749 231.235 326.136 255.682C328.687 267.261 330.632 276.073 332.398 284.045C328.838 285.109 325.109 286.248 321.203 287.461C317.159 288.718 313.394 289.903 307.085 291.901C296.165 295.359 289.93 297.319 284.938 298.833C282.185 275.126 274.858 238.609 262.961 188.887L253.281 191.203C253.843 193.554 254.395 195.875 254.937 198.167L247.844 194.707C238.004 214.904 231.593 228.915 228.571 236.848C227.588 239.427 226.878 241.679 226.37 243.873C225.363 248.217 225.127 252.343 225.442 258.335C225.486 259.166 225.485 259.329 225.485 259.406L225.485 259.406C225.485 259.418 225.485 259.427 225.486 259.436C225.486 259.482 225.49 259.527 225.514 259.79L225.515 259.791L225.515 259.792L225.515 259.792L225.515 259.793L225.515 259.793C225.601 260.735 225.942 264.445 227.28 280.747C227.67 285.485 229.139 295.411 231.365 308.828C211.06 310.801 186.381 311.98 157.358 312.354L157.489 322.311C187.066 321.93 212.235 320.721 233.027 318.67C235.841 335.099 239.482 355.275 243.521 376.942C212.32 366.084 184.373 359.212 159.648 356.339L157.356 376.121C183.327 379.139 213.488 386.969 247.791 399.628C255.241 438.834 263.46 480.239 270.158 511.79C254.386 518.146 237.115 524.337 218.347 530.359L221.389 539.841C239.741 533.952 256.702 527.896 272.276 521.671C275.952 538.64 279.035 551.861 281.078 558.986L290.646 556.243C288.578 549.034 285.411 535.384 281.627 517.842C294.891 512.278 307.072 506.581 318.168 500.75L340.858 613.937L350.617 611.981L327.322 495.771C332.526 492.838 337.463 489.873 342.134 486.873C351.878 480.616 361.598 474.254 373.632 466.287C373.706 466.238 373.796 466.179 373.9 466.11C409.198 495.814 439.564 535.707 465.005 585.896L482.759 576.893C474.303 560.21 465.3 544.582 455.75 530.013C458.007 523.668 456.702 514.045 452.41 494.139C452.118 492.786 451.257 488.865 450.298 484.497L450.283 484.431L450.279 484.413C449.099 479.038 447.775 473.009 447.182 470.264C446.331 466.323 445.514 462.471 444.512 457.695C444.453 457.411 444.262 456.501 444.01 455.294L443.989 455.192C443.373 452.251 442.41 447.645 442.052 445.945C440.52 438.661 439.015 431.751 437.434 424.826C442.34 421.858 446.836 419.247 451.161 416.849C463.943 409.764 464.085 409.684 467.761 407.501C473.114 404.321 477.118 401.598 480.922 398.485C484.018 395.952 486.953 393.215 490.34 389.611C504.702 425.148 521.33 469.891 540.218 523.825L549.612 520.535C529.859 464.13 512.558 417.717 497.7 381.28C501.295 377.019 505.503 371.821 510.699 365.277C519.78 353.84 529.451 341.336 539.713 327.764L586.067 353.472L590.892 344.764L545.761 319.733C553.792 309.026 562.17 297.693 570.895 285.734L562.854 279.862C553.855 292.199 545.227 303.864 536.971 314.858L476.618 281.385L505.044 236.085L567.521 270.736L572.346 262.028L510.344 227.64L512.234 224.628L503.803 219.333L456.414 294.851C441.343 270.468 426.19 254.988 406.04 240.274C390.493 228.921 345.055 203.049 269.335 162.399ZM446.382 516.306C445.782 511.511 444.574 505.021 442.68 496.236C442.391 494.894 441.529 490.971 440.568 486.596L440.566 486.584L440.545 486.493C439.368 481.131 438.048 475.119 437.453 472.364C436.597 468.402 435.776 464.53 434.771 459.737C434.711 459.452 434.521 458.544 434.269 457.341C433.655 454.405 432.673 449.709 432.312 447.993C431.036 441.925 429.779 436.121 428.481 430.35C421.006 435.041 412.5 440.553 402.344 447.253C400.167 448.688 395.822 451.568 391.145 454.67C411.136 472.142 429.549 492.693 446.382 516.306ZM383.223 447.975C388.775 444.292 394.307 440.626 396.863 438.939C408.417 431.317 417.866 425.211 426.117 420.086C421.398 400.058 415.749 378.807 406.644 346.916C403.659 347.829 400.452 348.864 395.829 350.384C391.662 351.754 390.491 352.137 388.495 352.774C378.604 355.927 369.581 358.217 359.785 359.752C363.513 375.543 366.425 387.196 368.403 394.094C372.56 408.592 370.309 421.388 361.783 431.99C369.113 436.959 376.26 442.288 383.223 447.975ZM353.397 426.512C360.428 418.264 362.194 408.549 358.836 396.838C356.767 389.623 353.737 377.484 349.857 361.02C340.222 361.988 329.478 362.348 316.348 362.186C285.462 361.805 267.045 360.779 259.068 358.679C256.54 360.044 253.84 361.327 250.969 362.527C252.067 368.487 253.204 374.605 254.371 380.83C275.711 388.693 298.504 398.333 322.76 409.746C333.294 414.703 343.507 420.292 353.397 426.512ZM258.711 403.766C265.7 440.362 273.254 478.356 279.51 507.928C301.846 498.47 320.93 488.656 336.756 478.493C345.815 472.676 354.861 466.762 365.793 459.535C349.619 446.899 332.451 436.313 314.291 427.767C294.743 418.569 276.215 410.569 258.711 403.766ZM471.318 289.831L530.919 322.886C521.021 335.961 511.682 348.027 502.904 359.082C499.281 363.646 496.159 367.527 493.409 370.871C488.361 358.765 483.614 347.888 479.167 338.239C473.25 325.399 467.646 314.286 462.113 304.501L471.318 289.831ZM450.47 304.236C435.245 278.542 420.397 263.084 400.172 248.316C398.298 246.947 395.951 245.347 393.133 243.517C394.865 262.406 401.626 292.774 413.419 334.394C428.248 329.021 440.569 319.014 450.47 304.236ZM403.908 337.34C398.005 316.518 393.335 298.448 389.9 283.102C382.025 281.741 367.304 284.425 344.138 291.001C344.946 294.633 345.752 298.245 346.602 302.048C347.716 307.028 348.799 311.854 349.854 316.536C352.647 328.926 355.206 340.128 357.507 350.028C367.081 348.572 375.816 346.364 385.47 343.286C387.426 342.663 388.583 342.284 392.719 340.924C397.495 339.354 400.799 338.288 403.908 337.34ZM347.57 351.24C345.326 341.575 342.845 330.705 340.144 318.724C339.088 314.036 338.003 309.205 336.889 304.219C336.087 300.633 335.325 297.218 334.564 293.796C331.244 294.788 327.776 295.847 324.157 296.971C320.135 298.221 316.384 299.402 310.091 301.395C297.688 305.322 291.292 307.33 285.889 308.947C286.319 315.31 286.273 320.348 285.753 324.075C284.307 334.426 279.359 343.235 271.065 350.485C272.637 350.634 274.369 350.776 276.248 350.907C285.822 351.575 299.237 352.017 316.469 352.23C328.656 352.38 338.646 352.076 347.57 351.24ZM416.159 343.99C431.905 338.436 445.177 328.342 455.905 313.812C460.501 322.245 465.191 331.692 470.128 342.406C475.091 353.174 480.438 365.506 486.171 379.4C481.661 384.489 478.218 387.832 474.619 390.776C471.24 393.541 467.633 395.994 462.677 398.938C459.132 401.045 458.97 401.135 446.335 408.139C442.724 410.14 439.009 412.281 435.055 414.639C430.439 395.324 424.861 374.464 416.159 343.99ZM255.686 201.343C266.394 246.895 272.918 280.454 275.263 301.657C266.232 304.104 254.897 306.14 241.266 307.762C239.044 294.412 237.581 284.567 237.201 279.934C235.883 263.885 235.546 260.22 235.458 259.26L235.457 259.259L235.457 259.258L235.457 259.258C235.433 258.991 235.428 258.934 235.426 258.877L235.425 258.857L235.425 258.826L235.425 258.826C235.423 258.733 235.42 258.545 235.382 257.814C235.112 252.679 235.297 249.444 236.066 246.123C236.464 244.406 237.041 242.577 237.872 240.397C240.646 233.115 246.596 220.064 255.686 201.343ZM276.114 311.732C267.033 314.07 255.975 316.022 242.93 317.591C244.703 327.915 246.805 339.734 249.128 352.48C265.41 345.221 274.132 335.312 275.895 322.695C276.277 319.963 276.35 316.306 276.114 311.732ZM341.973 281.249C363.395 275.163 377.849 272.335 387.71 272.868C384.655 257.835 383.006 245.899 382.764 237.027C370.202 229.388 352.502 219.235 329.691 206.587C329.274 217.172 331.306 232.889 335.856 253.541C338.338 264.806 340.245 273.45 341.973 281.249Z" fill="white"/>
<path d="M264.63 171.173L262.35 169.95L261.128 172.229L263.406 173.452L264.63 171.173ZM269.335 162.399L270.558 160.12L268.278 158.896L267.055 161.177L269.335 162.399ZM320.123 201.301L322.692 201.605L322.897 199.875L321.371 199.035L320.123 201.301ZM326.136 255.682L323.61 256.238L323.61 256.238L326.136 255.682ZM332.398 284.045L333.139 286.523L335.444 285.834L334.924 283.485L332.398 284.045ZM321.203 287.462L321.971 289.932L321.971 289.932L321.203 287.462ZM307.085 291.901L306.304 289.435L306.304 289.435L307.085 291.901ZM284.938 298.833L282.368 299.132L282.726 302.207L285.688 301.309L284.938 298.833ZM262.961 188.887L265.477 188.285L264.875 185.769L262.359 186.371L262.961 188.887ZM253.281 191.203L252.679 188.687L250.163 189.289L250.765 191.805L253.281 191.203ZM254.937 198.167L253.803 200.492L258.711 202.885L257.455 197.572L254.937 198.167ZM247.844 194.707L248.978 192.382L246.652 191.248L245.518 193.574L247.844 194.707ZM228.571 236.848L226.153 235.927L226.153 235.927L228.571 236.848ZM226.37 243.873L223.85 243.289L223.85 243.289L226.37 243.873ZM225.442 258.335L222.859 258.471L222.859 258.471L225.442 258.335ZM225.485 259.406L228.072 259.456L228.072 259.432L228.072 259.408L225.485 259.406ZM225.485 259.407L222.899 259.357L222.899 259.382L222.899 259.408L225.485 259.407ZM225.486 259.436L228.072 259.398L228.072 259.397L225.486 259.436ZM225.515 259.79L228.093 259.579L228.092 259.566L228.09 259.554L225.515 259.79ZM225.515 259.791L222.937 260.003L222.938 260.018L222.939 260.034L225.515 259.791ZM225.515 259.792L228.091 259.564L228.091 259.557L228.09 259.549L225.515 259.792ZM225.515 259.793L228.094 259.602L228.093 259.583L228.091 259.565L225.515 259.793ZM225.515 259.793L222.935 259.984L222.955 260.25L223.028 260.506L225.515 259.793ZM225.515 259.793L228.091 259.557L228.068 259.314L228.001 259.08L225.515 259.793ZM227.281 280.747L229.859 280.535L229.859 280.535L227.281 280.747ZM231.365 308.828L231.615 311.403L234.37 311.135L233.917 308.405L231.365 308.828ZM157.358 312.354L157.325 309.768L154.738 309.801L154.772 312.388L157.358 312.354ZM157.489 322.311L154.902 322.345L154.936 324.931L157.522 324.898L157.489 322.311ZM233.027 318.671L235.576 318.234L235.17 315.86L232.773 316.096L233.027 318.671ZM243.521 376.942L242.671 379.385L246.881 380.85L246.064 376.468L243.521 376.942ZM159.648 356.339L159.947 353.769L157.377 353.471L157.079 356.041L159.648 356.339ZM157.356 376.121L154.786 375.823L154.489 378.392L157.057 378.69L157.356 376.121ZM247.792 399.628L250.333 399.145L250.06 397.708L248.687 397.201L247.792 399.628ZM270.158 511.791L271.125 514.19L273.139 513.378L272.688 511.253L270.158 511.791ZM218.347 530.359L217.556 527.896L215.094 528.687L215.884 531.15L218.347 530.359ZM221.389 539.841L218.926 540.631L219.716 543.095L222.179 542.304L221.389 539.841ZM272.276 521.671L274.804 521.123L274.156 518.133L271.316 519.269L272.276 521.671ZM281.078 558.987L278.591 559.7L279.304 562.186L281.791 561.473L281.078 558.987ZM290.646 556.243L291.359 558.729L293.845 558.017L293.132 555.53L290.646 556.243ZM281.627 517.842L280.626 515.457L278.646 516.288L279.099 518.388L281.627 517.842ZM318.169 500.75L320.705 500.242L320.025 496.852L316.965 498.46L318.169 500.75ZM340.858 613.937L338.322 614.445L338.83 616.981L341.366 616.473L340.858 613.937ZM350.617 611.981L351.126 614.517L353.662 614.009L353.154 611.473L350.617 611.981ZM327.322 495.771L326.052 493.518L324.417 494.439L324.786 496.279L327.322 495.771ZM342.134 486.874L343.532 489.05L343.532 489.05L342.134 486.874ZM373.633 466.287L372.205 464.131L372.205 464.131L373.633 466.287ZM373.9 466.11L375.565 464.131L374.084 462.885L372.471 463.954L373.9 466.11ZM465.005 585.897L462.698 587.066L463.868 589.374L466.175 588.204L465.005 585.897ZM482.76 576.893L483.929 579.2L486.236 578.03L485.067 575.723L482.76 576.893ZM455.75 530.013L453.313 529.146L452.882 530.356L453.586 531.431L455.75 530.013ZM452.41 494.139L449.881 494.684L449.881 494.684L452.41 494.139ZM450.298 484.497L447.771 485.052L447.771 485.052L450.298 484.497ZM450.283 484.431L452.81 483.877L452.809 483.875L450.283 484.431ZM450.279 484.413L447.753 484.968L447.753 484.969L450.279 484.413ZM447.182 470.264L444.653 470.81L444.653 470.81L447.182 470.264ZM444.512 457.695L447.044 457.164L447.044 457.164L444.512 457.695ZM444.01 455.294L441.478 455.823L441.478 455.823L444.01 455.294ZM443.989 455.192L446.521 454.663L446.521 454.663L443.989 455.192ZM442.052 445.945L439.521 446.478L439.521 446.478L442.052 445.945ZM437.434 424.826L436.096 422.613L434.497 423.581L434.913 425.402L437.434 424.826ZM451.161 416.849L449.907 414.587L449.907 414.587L451.161 416.849ZM467.761 407.501L466.44 405.277L466.44 405.277L467.761 407.501ZM480.922 398.485L482.56 400.487L482.56 400.487L480.922 398.485ZM490.34 389.611L492.738 388.642L491.223 384.893L488.455 387.84L490.34 389.611ZM540.218 523.825L537.777 524.68L538.632 527.121L541.073 526.266L540.218 523.825ZM549.612 520.535L550.467 522.976L552.908 522.121L552.053 519.68L549.612 520.535ZM497.7 381.28L495.723 379.612L494.714 380.808L495.305 382.256L497.7 381.28ZM510.699 365.277L512.725 366.885L512.725 366.885L510.699 365.277ZM539.714 327.764L540.968 325.502L539.005 324.413L537.65 326.204L539.714 327.764ZM586.068 353.472L584.813 355.735L587.076 356.99L588.33 354.726L586.068 353.472ZM590.892 344.764L593.155 346.017L594.408 343.756L592.147 342.502L590.892 344.764ZM545.761 319.733L543.692 318.181L541.911 320.556L544.506 321.996L545.761 319.733ZM570.895 285.734L572.985 287.259L574.509 285.17L572.421 283.645L570.895 285.734ZM562.855 279.863L564.38 277.774L562.29 276.247L560.765 278.338L562.855 279.863ZM536.971 314.859L535.717 317.121L537.687 318.213L539.04 316.412L536.971 314.859ZM476.618 281.386L474.427 280.011L472.976 282.323L475.363 283.648L476.618 281.386ZM505.044 236.085L506.299 233.823L504.156 232.635L502.853 234.711L505.044 236.085ZM567.521 270.736L566.267 272.998L568.53 274.254L569.784 271.99L567.521 270.736ZM572.346 262.028L574.608 263.281L575.861 261.02L573.6 259.766L572.346 262.028ZM510.344 227.64L508.153 226.265L506.701 228.578L509.089 229.902L510.344 227.64ZM512.234 224.628L514.425 226.003L515.799 223.813L513.61 222.438L512.234 224.628ZM503.803 219.333L505.179 217.142L502.988 215.766L501.612 217.958L503.803 219.333ZM456.414 294.851L454.214 296.211L456.398 299.744L458.605 296.226L456.414 294.851ZM406.04 240.274L407.565 238.185L407.565 238.185L406.04 240.274ZM446.382 516.307L444.275 517.808L448.948 515.986L446.382 516.307ZM442.68 496.236L445.208 495.691L445.208 495.691L442.68 496.236ZM440.568 486.597L443.095 486.042L443.094 486.039L440.568 486.597ZM440.566 486.584L438.039 487.139L438.04 487.142L440.566 486.584ZM440.546 486.493L443.072 485.938L443.072 485.938L440.546 486.493ZM437.453 472.364L439.981 471.818L439.981 471.818L437.453 472.364ZM434.771 459.737L437.302 459.206L437.302 459.206L434.771 459.737ZM434.269 457.341L431.738 457.871L431.738 457.871L434.269 457.341ZM432.312 447.993L434.843 447.461L434.843 447.461L432.312 447.993ZM428.481 430.35L431.004 429.783L430.202 426.216L427.106 428.159L428.481 430.35ZM402.344 447.253L400.92 445.094L400.92 445.094L402.344 447.253ZM391.145 454.67L389.715 452.514L386.891 454.387L389.443 456.617L391.145 454.67ZM383.223 447.975L381.587 449.978L383.064 451.185L384.653 450.131L383.223 447.975ZM396.863 438.939L395.439 436.78L395.439 436.78L396.863 438.939ZM426.117 420.086L427.482 422.284L429.062 421.303L428.635 419.493L426.117 420.086ZM406.644 346.916L409.131 346.206L408.408 343.672L405.888 344.443L406.644 346.916ZM395.829 350.384L395.021 347.927L395.021 347.927L395.829 350.384ZM388.495 352.774L389.281 355.238L389.281 355.238L388.495 352.774ZM359.785 359.752L359.384 357.196L356.626 357.629L357.267 360.346L359.785 359.752ZM361.783 431.99L359.767 430.369L358.008 432.556L360.331 434.131L361.783 431.99ZM353.397 426.512L352.02 428.702L353.914 429.893L355.365 428.19L353.397 426.512ZM349.857 361.021L352.375 360.427L351.855 358.22L349.599 358.447L349.857 361.021ZM316.349 362.187L316.38 359.6L316.349 362.187ZM259.068 358.679L259.727 356.178L258.738 355.918L257.839 356.403L259.068 358.679ZM250.969 362.527L249.971 360.141L248.047 360.945L248.425 362.996L250.969 362.527ZM254.371 380.83L251.829 381.307L252.099 382.75L253.477 383.257L254.371 380.83ZM322.76 409.747L321.659 412.087L321.659 412.087L322.76 409.747ZM258.712 403.766L259.649 401.355L255.295 399.663L256.171 404.252L258.712 403.766ZM279.51 507.928L276.979 508.463L277.629 511.534L280.519 510.31L279.51 507.928ZM336.756 478.493L338.153 480.67L338.153 480.67L336.756 478.493ZM365.793 459.535L367.219 461.692L370.218 459.71L367.385 457.496L365.793 459.535ZM314.291 427.767L315.392 425.427L315.392 425.427L314.291 427.767ZM530.919 322.886L532.981 324.447L534.781 322.07L532.174 320.624L530.919 322.886ZM471.318 289.831L472.573 287.569L470.43 286.38L469.127 288.456L471.318 289.831ZM502.905 359.082L504.93 360.691L504.93 360.691L502.905 359.082ZM493.409 370.871L491.022 371.867L492.676 375.835L495.407 372.515L493.409 370.871ZM479.167 338.239L481.517 337.156L481.517 337.156L479.167 338.239ZM462.113 304.501L459.922 303.126L459.102 304.432L459.861 305.774L462.113 304.501ZM400.173 248.316L398.647 250.405L398.647 250.405L400.173 248.316ZM450.471 304.236L452.619 305.676L453.527 304.321L452.696 302.918L450.471 304.236ZM393.133 243.517L394.542 241.348L390.071 238.442L390.557 243.753L393.133 243.517ZM413.419 334.394L410.93 335.1L411.688 337.773L414.3 336.826L413.419 334.394ZM389.9 283.102L392.425 282.537L392.046 280.848L390.341 280.553L389.9 283.102ZM403.908 337.34L404.663 339.814L407.089 339.074L406.397 336.634L403.908 337.34ZM344.139 291.001L343.432 288.513L341.083 289.18L341.614 291.563L344.139 291.001ZM346.602 302.048L349.127 301.484L349.127 301.484L346.602 302.048ZM349.854 316.536L347.331 317.105L347.331 317.105L349.854 316.536ZM357.508 350.028L354.988 350.614L355.53 352.945L357.896 352.586L357.508 350.028ZM385.47 343.286L386.256 345.751L386.256 345.751L385.47 343.286ZM392.719 340.924L393.527 343.382L393.527 343.382L392.719 340.924ZM340.144 318.724L342.668 318.155L342.668 318.155L340.144 318.724ZM347.57 351.24L347.812 353.815L350.76 353.539L350.09 350.655L347.57 351.24ZM336.889 304.219L339.413 303.655L339.413 303.655L336.889 304.219ZM334.564 293.796L337.088 293.234L336.485 290.522L333.823 291.318L334.564 293.796ZM324.158 296.971L324.925 299.441L324.925 299.441L324.158 296.971ZM310.091 301.395L310.872 303.861L310.872 303.861L310.091 301.395ZM285.889 308.947L285.147 306.469L283.169 307.061L283.308 309.121L285.889 308.947ZM285.753 324.075L288.315 324.433L288.315 324.433L285.753 324.075ZM271.065 350.485L269.363 348.538L264.836 352.494L270.822 353.06L271.065 350.485ZM276.248 350.907L276.068 353.488L276.068 353.488L276.248 350.907ZM316.469 352.23L316.501 349.643L316.501 349.643L316.469 352.23ZM455.905 313.812L458.177 312.574L456.235 309.011L453.824 312.275L455.905 313.812ZM416.159 343.99L415.299 341.551L413.004 342.36L413.672 344.7L416.159 343.99ZM470.128 342.406L467.779 343.489L467.779 343.489L470.128 342.406ZM486.171 379.4L488.107 381.115L489.178 379.906L488.562 378.413L486.171 379.4ZM474.619 390.776L472.981 388.774L472.981 388.774L474.619 390.776ZM462.677 398.939L463.998 401.162L463.998 401.162L462.677 398.939ZM446.335 408.139L447.59 410.401L447.59 410.401L446.335 408.139ZM435.055 414.639L432.539 415.241L433.357 418.664L436.38 416.861L435.055 414.639ZM275.263 301.657L275.939 304.154L278.077 303.575L277.834 301.373L275.263 301.657ZM255.686 201.344L258.204 200.752L256.539 193.666L253.359 200.214L255.686 201.344ZM241.266 307.762L238.715 308.187L239.12 310.622L241.572 310.331L241.266 307.762ZM237.201 279.934L239.779 279.722L239.779 279.722L237.201 279.934ZM235.458 259.26L232.881 259.49L232.882 259.496L235.458 259.26ZM235.458 259.259L238.034 259.028L238.032 259.011L238.031 258.994L235.458 259.259ZM235.457 259.258L232.884 259.523L235.457 259.258ZM235.457 259.258L232.882 259.494L232.883 259.508L232.884 259.523L235.457 259.258ZM235.426 258.877L232.84 258.944L232.84 258.951L232.841 258.959L235.426 258.877ZM235.425 258.857L232.839 258.902L232.839 258.912L232.84 258.923L235.425 258.857ZM235.425 258.827L238.011 258.782L238.011 258.76L238.01 258.738L235.425 258.827ZM235.425 258.826L232.838 258.868L232.839 258.891L232.84 258.915L235.425 258.826ZM235.382 257.814L237.965 257.678L237.965 257.678L235.382 257.814ZM236.067 246.123L238.586 246.707L238.586 246.707L236.067 246.123ZM237.872 240.397L235.455 239.476L235.455 239.476L237.872 240.397ZM242.93 317.591L242.621 315.023L239.92 315.347L240.381 318.029L242.93 317.591ZM276.114 311.732L278.697 311.598L278.534 308.437L275.469 309.227L276.114 311.732ZM249.128 352.48L246.583 352.944L247.173 356.183L250.181 354.842L249.128 352.48ZM275.895 322.695L273.333 322.337L273.333 322.337L275.895 322.695ZM387.711 272.868L387.571 275.451L390.912 275.632L390.245 272.353L387.711 272.868ZM341.973 281.249L339.448 281.809L340.041 284.487L342.68 283.737L341.973 281.249ZM382.764 237.027L385.349 236.957L385.311 235.549L384.108 234.817L382.764 237.027ZM329.691 206.587L330.945 204.325L327.271 202.288L327.106 206.485L329.691 206.587ZM335.856 253.541L338.382 252.984L338.382 252.984L335.856 253.541ZM266.909 172.395L271.614 163.621L267.055 161.177L262.35 169.95L266.909 172.395ZM321.371 199.035C305.152 190.104 286.643 180.055 265.853 168.894L263.406 173.452C284.184 184.606 302.676 194.646 318.875 203.567L321.371 199.035ZM328.662 255.125C323.283 230.714 321.335 213.047 322.692 201.605L317.554 200.996C316.089 213.361 318.216 231.756 323.61 256.238L328.662 255.125ZM334.924 283.485C333.157 275.515 331.213 266.705 328.662 255.125L323.61 256.238C326.161 267.818 328.106 276.631 329.873 284.604L334.924 283.485ZM321.971 289.932C325.869 288.721 329.589 287.584 333.139 286.523L331.657 281.566C328.087 282.634 324.349 283.776 320.436 284.991L321.971 289.932ZM307.866 294.367C314.174 292.37 317.933 291.186 321.971 289.932L320.436 284.991C316.385 286.25 312.615 287.437 306.304 289.435L307.866 294.367ZM285.688 301.309C290.699 299.79 296.949 297.824 307.866 294.367L306.304 289.435C295.382 292.894 289.162 294.85 284.187 296.358L285.688 301.309ZM260.445 189.489C272.34 239.2 279.634 275.589 282.368 299.132L287.507 298.535C284.735 274.664 277.377 238.019 265.477 188.285L260.445 189.489ZM253.883 193.718L263.563 191.403L262.359 186.371L252.679 188.687L253.883 193.718ZM257.455 197.572C256.912 195.278 256.36 192.954 255.796 190.601L250.765 191.805C251.327 194.153 251.879 196.473 252.42 198.762L257.455 197.572ZM246.71 197.032L253.803 200.492L256.071 195.842L248.978 192.382L246.71 197.032ZM230.988 237.769C233.964 229.958 240.326 216.046 250.169 195.84L245.518 193.574C235.683 213.763 229.223 227.871 226.153 235.927L230.988 237.769ZM228.89 244.457C229.365 242.404 230.036 240.266 230.988 237.769L226.153 235.927C225.14 238.588 224.391 240.955 223.85 243.289L228.89 244.457ZM228.025 258.199C227.718 252.354 227.956 248.488 228.89 244.457L223.85 243.289C222.771 247.947 222.536 252.332 222.859 258.471L228.025 258.199ZM228.072 259.408C228.072 259.259 228.069 259.039 228.025 258.199L222.859 258.471C222.902 259.293 222.899 259.4 222.899 259.403L228.072 259.408ZM228.072 259.456L228.072 259.456L222.899 259.356L222.899 259.357L228.072 259.456ZM228.072 259.397C228.072 259.407 228.072 259.413 228.072 259.415C228.072 259.415 228.072 259.415 228.072 259.413C228.072 259.412 228.072 259.411 228.072 259.41C228.072 259.409 228.072 259.407 228.072 259.406L222.899 259.408C222.899 259.409 222.899 259.442 222.899 259.476L228.072 259.397ZM228.09 259.554C228.084 259.487 228.08 259.437 228.076 259.397C228.072 259.357 228.07 259.333 228.069 259.318C228.068 259.302 228.068 259.308 228.069 259.323C228.071 259.345 228.072 259.371 228.072 259.398L222.899 259.475C222.902 259.649 222.921 259.839 222.939 260.027L228.09 259.554ZM228.093 259.58L228.093 259.579L222.937 260.002L222.937 260.003L228.093 259.58ZM228.09 259.549L228.09 259.549L222.939 260.034L222.939 260.034L228.09 259.549ZM228.091 259.565L228.091 259.564L222.938 260.019L222.938 260.02L228.091 259.565ZM228.094 259.602L228.094 259.602L222.935 259.983L222.935 259.984L228.094 259.602ZM228.001 259.08L228.001 259.08L223.028 260.506L223.028 260.506L228.001 259.08ZM229.859 280.535C228.519 264.231 228.178 260.511 228.091 259.557L222.939 260.03C223.024 260.959 223.364 264.659 224.703 280.959L229.859 280.535ZM233.917 308.405C231.686 294.963 230.237 285.147 229.859 280.535L224.703 280.959C225.102 285.823 226.591 295.858 228.814 309.251L233.917 308.405ZM157.391 314.941C186.46 314.566 211.215 313.385 231.615 311.403L231.115 306.253C210.904 308.217 186.302 309.395 157.325 309.768L157.391 314.941ZM160.075 322.277L159.945 312.321L154.772 312.388L154.902 322.345L160.075 322.277ZM232.773 316.096C212.078 318.137 186.987 319.344 157.455 319.725L157.522 324.898C187.145 324.516 212.393 323.305 233.281 321.245L232.773 316.096ZM246.064 376.468C242.027 354.808 238.388 334.646 235.576 318.234L230.477 319.107C233.295 335.552 236.938 355.741 240.978 377.416L246.064 376.468ZM159.35 358.908C183.837 361.754 211.594 368.571 242.671 379.385L244.371 374.499C213.047 363.598 184.91 356.671 159.947 353.769L159.35 358.908ZM159.925 376.419L162.218 356.636L157.079 356.041L154.786 375.823L159.925 376.419ZM248.687 397.201C214.26 384.497 183.892 376.601 157.654 373.552L157.057 378.69C182.763 381.678 212.716 389.442 246.896 402.055L248.687 397.201ZM272.688 511.253C265.995 479.726 257.78 438.34 250.333 399.145L245.25 400.111C252.702 439.328 260.924 480.753 267.628 512.328L272.688 511.253ZM219.137 532.822C237.956 526.783 255.287 520.572 271.125 514.19L269.191 509.391C253.486 515.72 236.275 521.89 217.556 527.896L219.137 532.822ZM223.852 539.051L220.81 529.569L215.884 531.15L218.926 540.631L223.852 539.051ZM271.316 519.269C255.806 525.469 238.901 531.505 220.599 537.378L222.179 542.304C240.58 536.4 257.599 530.324 273.236 524.073L271.316 519.269ZM283.564 558.274C281.548 551.242 278.482 538.101 274.804 521.123L269.748 522.218C273.422 539.18 276.521 552.481 278.591 559.7L283.564 558.274ZM289.933 553.757L280.365 556.5L281.791 561.473L291.359 558.729L289.933 553.757ZM279.099 518.388C282.88 535.919 286.065 549.652 288.159 556.956L293.132 555.53C291.092 548.417 287.942 534.848 284.156 517.297L279.099 518.388ZM316.965 498.46C305.943 504.252 293.832 509.918 280.626 515.457L282.628 520.227C295.951 514.639 308.2 508.911 319.372 503.04L316.965 498.46ZM343.394 613.428L320.705 500.242L315.632 501.258L338.322 614.445L343.394 613.428ZM350.109 609.445L340.35 611.401L341.366 616.473L351.126 614.517L350.109 609.445ZM324.786 496.279L348.081 612.49L353.154 611.473L329.858 495.263L324.786 496.279ZM340.736 484.697C336.111 487.667 331.216 490.608 326.052 493.518L328.592 498.025C333.836 495.069 338.816 492.078 343.532 489.05L340.736 484.697ZM372.205 464.131C360.177 472.093 350.467 478.448 340.736 484.697L343.532 489.05C353.289 482.784 363.02 476.415 375.06 468.444L372.205 464.131ZM372.471 463.954C372.367 464.023 372.278 464.082 372.205 464.131L375.06 468.444C375.135 468.395 375.225 468.336 375.329 468.266L372.471 463.954ZM467.312 584.727C441.747 534.293 411.181 494.102 375.565 464.131L372.234 468.089C407.215 497.526 437.381 537.122 462.698 587.066L467.312 584.727ZM481.59 574.586L463.835 583.59L466.175 588.204L483.929 579.2L481.59 574.586ZM453.586 531.431C463.08 545.914 472.036 561.459 480.452 578.062L485.067 575.723C476.57 558.961 467.519 543.25 457.913 528.595L453.586 531.431ZM449.881 494.684C452.027 504.636 453.398 511.894 453.962 517.424C454.528 522.965 454.252 526.507 453.313 529.146L458.187 530.88C459.505 527.174 459.705 522.732 459.109 516.899C458.512 511.055 457.084 503.548 454.938 493.594L449.881 494.684ZM447.771 485.052C448.731 489.424 449.591 493.338 449.881 494.684L454.938 493.594C454.645 492.235 453.783 488.306 452.824 483.942L447.771 485.052ZM447.757 484.986L447.771 485.052L452.824 483.942L452.81 483.877L447.757 484.986ZM447.753 484.969L447.757 484.988L452.809 483.875L452.805 483.856L447.753 484.969ZM444.653 470.81C445.248 473.561 446.573 479.596 447.753 484.968L452.806 483.858C451.625 478.481 450.302 472.458 449.71 469.718L444.653 470.81ZM441.981 458.226C442.983 463.005 443.801 466.863 444.653 470.81L449.71 469.718C448.861 465.784 448.045 461.937 447.044 457.164L441.981 458.226ZM441.478 455.823C441.73 457.03 441.921 457.941 441.981 458.226L447.044 457.164C446.985 456.881 446.794 455.972 446.542 454.764L441.478 455.823ZM441.457 455.722L441.478 455.823L446.542 454.764L446.521 454.663L441.457 455.722ZM439.521 446.478C439.878 448.175 440.841 452.779 441.457 455.722L446.521 454.663C445.905 451.722 444.942 447.114 444.584 445.413L439.521 446.478ZM434.913 425.402C436.49 432.31 437.991 439.205 439.521 446.478L444.584 445.413C443.049 438.117 441.541 431.192 439.956 424.251L434.913 425.402ZM449.907 414.587C445.549 417.002 441.026 419.631 436.096 422.613L438.773 427.04C443.655 424.086 448.122 421.491 452.415 419.111L449.907 414.587ZM466.44 405.277C462.804 407.437 462.698 407.497 449.907 414.587L452.415 419.111C465.188 412.031 465.366 411.932 469.082 409.725L466.44 405.277ZM479.284 396.483C475.607 399.492 471.717 402.142 466.44 405.277L469.082 409.725C474.51 406.5 478.628 403.704 482.56 400.487L479.284 396.483ZM488.455 387.84C485.137 391.371 482.284 394.028 479.284 396.483L482.56 400.487C485.752 397.875 488.769 395.06 492.225 391.382L488.455 387.84ZM542.659 522.97C523.764 469.015 507.121 424.231 492.738 388.642L487.942 390.58C502.283 426.067 518.897 470.768 537.777 524.68L542.659 522.97ZM548.757 518.094L539.363 521.384L541.073 526.266L550.467 522.976L548.757 518.094ZM495.305 382.256C510.14 418.639 527.425 465.007 547.17 521.39L552.053 519.68C532.292 463.253 514.975 416.796 500.095 380.303L495.305 382.256ZM508.673 363.668C503.483 370.205 499.294 375.381 495.723 379.612L499.677 382.948C503.297 378.658 507.523 373.437 512.725 366.885L508.673 363.668ZM537.65 326.204C527.398 339.762 517.739 352.25 508.673 363.668L512.725 366.885C521.82 355.431 531.504 342.91 541.777 329.324L537.65 326.204ZM587.322 351.21L540.968 325.502L538.459 330.026L584.813 355.735L587.322 351.21ZM588.629 343.51L583.805 352.219L588.33 354.726L593.155 346.017L588.629 343.51ZM544.506 321.996L589.637 347.026L592.147 342.502L547.016 317.471L544.506 321.996ZM568.806 284.21C560.087 296.16 551.716 307.484 543.692 318.181L547.83 321.286C555.869 310.568 564.254 299.226 572.985 287.259L568.806 284.21ZM561.329 281.952L569.37 287.823L572.421 283.645L564.38 277.774L561.329 281.952ZM539.04 316.412C547.303 305.407 555.938 293.732 564.944 281.387L560.765 278.338C551.771 290.666 543.15 302.322 534.903 313.305L539.04 316.412ZM475.363 283.648L535.717 317.121L538.226 312.597L477.872 279.123L475.363 283.648ZM502.853 234.711L474.427 280.011L478.809 282.76L507.235 237.46L502.853 234.711ZM568.776 268.474L506.299 233.823L503.79 238.348L566.267 272.998L568.776 268.474ZM570.083 260.774L565.259 269.483L569.784 271.99L574.608 263.281L570.083 260.774ZM509.089 229.902L571.091 264.29L573.6 259.766L511.598 225.378L509.089 229.902ZM510.043 223.254L508.153 226.265L512.535 229.015L514.425 226.003L510.043 223.254ZM502.427 221.523L510.858 226.819L513.61 222.438L505.179 217.142L502.427 221.523ZM458.605 296.226L505.994 220.708L501.612 217.958L454.223 293.477L458.605 296.226ZM404.514 242.363C424.41 256.891 439.328 272.128 454.214 296.211L458.614 293.491C443.359 268.809 427.971 253.086 407.565 238.185L404.514 242.363ZM268.111 164.678C343.904 205.366 389.147 231.141 404.514 242.363L407.565 238.185C391.838 226.701 346.208 200.732 270.558 160.12L268.111 164.678ZM448.948 515.986C448.334 511.073 447.106 504.493 445.208 495.691L440.151 496.781C442.042 505.549 443.23 511.948 443.815 516.627L448.948 515.986ZM445.208 495.691C444.918 494.343 444.055 490.412 443.095 486.042L438.042 487.151C439.003 491.53 439.864 495.446 440.151 496.781L445.208 495.691ZM443.094 486.039L443.091 486.027L438.04 487.142L438.042 487.154L443.094 486.039ZM443.092 486.03L443.072 485.938L438.019 487.048L438.039 487.139L443.092 486.03ZM443.072 485.938C441.894 480.573 440.575 474.568 439.981 471.818L434.924 472.911C435.521 475.671 436.842 481.689 438.019 487.048L443.072 485.938ZM439.981 471.818C439.127 467.862 438.307 463.996 437.302 459.206L432.239 460.268C433.245 465.065 434.067 468.941 434.924 472.911L439.981 471.818ZM437.302 459.206C437.243 458.922 437.053 458.015 436.801 456.811L431.738 457.871C431.989 459.073 432.179 459.982 432.239 460.268L437.302 459.206ZM436.801 456.811C436.187 453.877 435.205 449.178 434.843 447.461L429.781 448.526C430.141 450.24 431.123 454.934 431.738 457.871L436.801 456.811ZM434.843 447.461C433.565 441.384 432.306 435.567 431.004 429.783L425.957 430.918C427.252 436.675 428.506 442.468 429.781 448.526L434.843 447.461ZM427.106 428.159C419.608 432.864 411.084 438.389 400.92 445.094L403.768 449.412C413.916 442.718 422.404 437.217 429.856 432.541L427.106 428.159ZM400.92 445.094C398.74 446.531 394.391 449.413 389.715 452.514L392.574 456.825C397.252 453.723 401.595 450.846 403.768 449.412L400.92 445.094ZM389.443 456.617C409.269 473.945 427.548 494.343 444.275 517.808L448.488 514.805C431.549 491.043 413.003 470.338 392.847 452.722L389.443 456.617ZM384.653 450.131C390.206 446.447 395.734 442.783 398.287 441.098L395.439 436.78C392.879 438.469 387.344 442.138 381.793 445.82L384.653 450.131ZM398.287 441.098C409.833 433.483 419.26 427.391 427.482 422.284L424.753 417.889C416.473 423.032 407.002 429.152 395.439 436.78L398.287 441.098ZM428.635 419.493C423.903 399.41 418.242 378.117 409.131 346.206L404.157 347.627C413.256 379.499 418.894 400.706 423.6 420.679L428.635 419.493ZM405.888 344.443C402.876 345.364 399.648 346.405 395.021 347.927L396.637 352.841C401.257 351.322 404.442 350.294 407.4 349.39L405.888 344.443ZM395.021 347.927C390.854 349.297 389.693 349.677 387.709 350.309L389.281 355.238C391.289 354.598 392.47 354.212 396.637 352.841L395.021 347.927ZM387.709 350.309C377.913 353.433 369.022 355.686 359.384 357.196L360.185 362.307C370.141 360.748 379.294 358.422 389.281 355.238L387.709 350.309ZM357.267 360.346C360.995 376.137 363.92 387.844 365.917 394.807L370.89 393.381C368.931 386.549 366.03 374.949 362.302 359.158L357.267 360.346ZM365.917 394.807C369.871 408.595 367.705 420.499 359.767 430.369L363.798 433.611C372.913 422.278 375.25 408.589 370.89 393.381L365.917 394.807ZM360.331 434.131C367.597 439.056 374.682 444.339 381.587 449.978L384.859 445.972C377.838 440.236 370.629 434.862 363.234 429.849L360.331 434.131ZM355.365 428.19C363.039 419.188 364.883 408.544 361.322 396.125L356.349 397.551C359.504 408.554 357.818 417.339 351.428 424.834L355.365 428.19ZM361.322 396.125C359.272 388.976 356.255 376.891 352.375 360.427L347.34 361.614C351.219 378.077 354.262 390.27 356.349 397.551L361.322 396.125ZM349.599 358.447C340.09 359.402 329.448 359.761 316.38 359.6L316.317 364.773C329.508 364.936 340.354 364.575 350.116 363.594L349.599 358.447ZM316.38 359.6C300.952 359.41 288.673 359.059 279.272 358.496C269.814 357.929 263.444 357.156 259.727 356.178L258.41 361.181C262.67 362.302 269.496 363.093 278.963 363.66C288.485 364.23 300.858 364.582 316.317 364.773L316.38 359.6ZM257.839 356.403C255.392 357.724 252.77 358.971 249.971 360.141L251.967 364.914C254.91 363.683 257.688 362.364 260.297 360.955L257.839 356.403ZM248.425 362.996C249.524 368.958 250.662 375.079 251.829 381.307L256.914 380.354C255.747 374.131 254.61 368.015 253.513 362.059L248.425 362.996ZM253.477 383.257C274.735 391.09 297.458 400.699 321.659 412.087L323.862 407.406C299.549 395.966 276.687 386.296 255.266 378.403L253.477 383.257ZM321.659 412.087C332.098 416.999 342.218 422.538 352.02 428.702L354.774 424.323C344.795 418.047 334.491 412.408 323.862 407.406L321.659 412.087ZM256.171 404.252C263.162 440.858 270.719 478.869 276.979 508.463L282.041 507.393C275.79 477.842 268.239 439.867 261.252 403.281L256.171 404.252ZM280.519 510.31C302.954 500.811 322.174 490.931 338.153 480.67L335.358 476.317C319.685 486.381 300.739 496.131 278.502 505.546L280.519 510.31ZM338.153 480.67C347.225 474.844 356.281 468.924 367.219 461.692L364.366 457.377C353.441 464.601 344.405 470.507 335.358 476.317L338.153 480.67ZM367.385 457.496C351.062 444.744 333.731 434.056 315.392 425.427L313.189 430.108C331.172 438.57 348.175 449.053 364.2 461.573L367.385 457.496ZM315.392 425.427C295.798 416.207 277.215 408.183 259.649 401.355L257.774 406.177C275.215 412.956 293.688 420.932 313.189 430.108L315.392 425.427ZM532.174 320.624L472.573 287.569L470.064 292.093L529.664 325.148L532.174 320.624ZM504.93 360.691C513.722 349.618 523.073 337.536 532.981 324.447L528.857 321.325C518.969 334.387 509.643 346.436 500.879 357.474L504.93 360.691ZM495.407 372.515C498.17 369.155 501.302 365.261 504.93 360.691L500.879 357.474C497.26 362.031 494.149 365.9 491.411 369.228L495.407 372.515ZM476.818 339.322C481.249 348.936 485.983 359.783 491.022 371.867L495.797 369.876C490.739 357.747 485.979 346.84 481.517 337.156L476.818 339.322ZM459.861 305.774C465.35 315.482 470.923 326.529 476.818 339.322L481.517 337.156C475.578 324.27 469.941 313.091 464.364 303.228L459.861 305.774ZM469.127 288.456L459.922 303.126L464.304 305.876L473.509 291.206L469.127 288.456ZM398.647 250.405C418.595 264.972 433.203 280.169 448.245 305.555L452.696 302.918C437.288 276.915 422.199 261.198 401.698 246.227L398.647 250.405ZM391.724 245.686C394.519 247.501 396.823 249.073 398.647 250.405L401.698 246.227C399.773 244.821 397.384 243.194 394.542 241.348L391.724 245.686ZM415.908 333.689C404.118 292.08 397.417 261.912 395.709 243.28L390.557 243.753C392.313 262.9 399.134 293.467 410.93 335.1L415.908 333.689ZM448.322 302.797C438.688 317.175 426.787 326.8 412.538 331.963L414.3 336.826C429.71 331.243 442.451 320.852 452.619 305.676L448.322 302.797ZM387.376 283.667C390.825 299.074 395.508 317.193 401.42 338.045L406.397 336.634C400.502 315.843 395.846 297.822 392.425 282.537L387.376 283.667ZM344.845 293.49C356.391 290.212 365.766 287.924 373.199 286.623C380.691 285.312 385.978 285.049 389.46 285.651L390.341 280.553C385.948 279.794 379.937 280.192 372.307 281.527C364.62 282.872 355.052 285.214 343.432 288.513L344.845 293.49ZM349.127 301.484C348.277 297.682 347.471 294.07 346.663 290.44L341.614 291.563C342.422 295.196 343.228 298.809 344.078 302.612L349.127 301.484ZM352.378 315.967C351.323 311.287 350.24 306.463 349.127 301.484L344.078 302.612C345.192 307.594 346.275 312.422 347.331 317.105L352.378 315.967ZM360.027 349.443C357.727 339.55 355.17 328.353 352.378 315.967L347.331 317.105C350.125 329.499 352.685 340.707 354.988 350.614L360.027 349.443ZM384.684 340.822C375.127 343.869 366.528 346.04 357.119 347.471L357.896 352.586C367.635 351.104 376.505 348.86 386.256 345.751L384.684 340.822ZM391.911 338.467C387.775 339.827 386.628 340.202 384.684 340.822L386.256 345.751C388.224 345.123 389.392 344.742 393.527 343.382L391.911 338.467ZM403.154 334.866C400.016 335.823 396.691 336.895 391.911 338.467L393.527 343.382C398.299 341.812 401.581 340.754 404.663 339.814L403.154 334.866ZM337.621 319.293C340.323 331.278 342.805 342.153 345.051 351.825L350.09 350.655C347.848 340.997 345.368 330.133 342.668 318.155L337.621 319.293ZM334.364 304.783C335.479 309.771 336.564 314.604 337.621 319.293L342.668 318.155C341.611 313.469 340.527 308.639 339.413 303.655L334.364 304.783ZM332.039 294.358C332.8 297.781 333.563 301.197 334.364 304.783L339.413 303.655C338.612 300.07 337.85 296.655 337.088 293.234L332.039 294.358ZM324.925 299.441C328.536 298.319 331.995 297.264 335.304 296.274L333.823 291.318C330.493 292.313 327.017 293.374 323.39 294.501L324.925 299.441ZM310.872 303.861C317.163 301.869 320.909 300.689 324.925 299.441L323.39 294.501C319.361 295.753 315.604 296.936 309.31 298.929L310.872 303.861ZM286.631 311.425C292.057 309.801 298.473 307.787 310.872 303.861L309.31 298.929C296.903 302.857 290.527 304.859 285.147 306.469L286.631 311.425ZM288.315 324.433C288.871 320.45 288.905 315.209 288.47 308.773L283.308 309.121C283.733 315.411 283.676 320.246 283.191 323.718L288.315 324.433ZM272.767 352.433C281.494 344.805 286.776 335.447 288.315 324.433L283.191 323.718C281.838 333.406 277.226 341.665 269.363 348.538L272.767 352.433ZM276.428 348.327C274.568 348.197 272.858 348.057 271.308 347.91L270.822 353.06C272.417 353.211 274.169 353.355 276.068 353.488L276.428 348.327ZM316.501 349.643C299.287 349.431 285.929 348.99 276.428 348.327L276.068 353.488C285.715 354.161 299.188 354.603 316.437 354.816L316.501 349.643ZM347.329 348.665C338.524 349.489 328.631 349.793 316.501 349.643L316.437 354.816C328.682 354.967 338.768 354.662 347.812 353.815L347.329 348.665ZM453.824 312.275C443.376 326.427 430.515 336.184 415.299 341.551L417.02 346.429C433.296 340.689 446.978 330.257 457.986 315.348L453.824 312.275ZM472.477 341.324C467.522 330.571 462.806 321.07 458.177 312.574L453.634 315.049C458.196 323.421 462.86 332.814 467.779 343.489L472.477 341.324ZM488.562 378.413C482.82 364.495 477.458 352.131 472.477 341.324L467.779 343.489C472.724 354.218 478.057 366.517 483.78 380.386L488.562 378.413ZM476.257 392.778C479.989 389.725 483.531 386.279 488.107 381.115L484.235 377.684C479.791 382.699 476.447 385.939 472.981 388.774L476.257 392.778ZM463.998 401.162C469.027 398.175 472.749 395.649 476.258 392.778L472.981 388.774C469.731 391.434 466.239 393.814 461.356 396.715L463.998 401.162ZM447.59 410.401C460.215 403.403 460.413 403.292 463.998 401.162L461.356 396.715C457.851 398.797 457.726 398.867 445.081 405.876L447.59 410.401ZM436.38 416.861C440.313 414.515 444.005 412.388 447.59 410.401L445.081 405.876C441.444 407.893 437.705 410.047 433.73 412.418L436.38 416.861ZM413.672 344.7C422.369 375.157 427.935 395.977 432.539 415.241L437.57 414.038C432.942 394.672 427.354 373.772 418.647 343.28L413.672 344.7ZM277.834 301.373C275.471 280.004 268.915 246.317 258.204 200.752L253.168 201.935C263.873 247.473 270.366 280.904 272.692 301.942L277.834 301.373ZM241.572 310.331C255.276 308.7 266.746 306.645 275.939 304.154L274.586 299.161C265.72 301.563 254.518 303.58 240.961 305.193L241.572 310.331ZM234.623 280.146C235.014 284.906 236.497 294.863 238.715 308.187L243.818 307.337C241.592 293.962 240.149 284.228 239.779 279.722L234.623 280.146ZM232.882 259.496C232.969 260.444 233.305 264.099 234.623 280.146L239.779 279.722C238.46 263.671 238.123 259.996 238.033 259.023L232.882 259.496ZM232.881 259.49L232.881 259.49L238.034 259.029L238.034 259.028L232.881 259.49ZM232.884 259.523L232.884 259.524L238.031 258.994L238.031 258.994L232.884 259.523ZM232.884 259.523L232.884 259.523L238.031 258.994L238.03 258.993L232.884 259.523ZM232.841 258.959C232.845 259.116 232.862 259.28 232.882 259.494L238.033 259.021C238.02 258.882 238.014 258.814 238.011 258.772C238.008 258.737 238.01 258.759 238.011 258.795L232.841 258.959ZM232.84 258.923L232.84 258.944L238.012 258.81L238.011 258.79L232.84 258.923ZM232.839 258.871L232.839 258.902L238.012 258.812L238.011 258.782L232.839 258.871ZM232.84 258.915L232.84 258.915L238.01 258.738L238.01 258.738L232.84 258.915ZM232.799 257.95C232.836 258.665 232.838 258.818 232.838 258.868L238.011 258.785C238.009 258.648 238.004 258.426 237.965 257.678L232.799 257.95ZM233.547 245.539C232.702 249.185 232.522 252.686 232.799 257.95L237.965 257.678C237.702 252.672 237.892 249.703 238.586 246.707L233.547 245.539ZM235.455 239.476C234.594 241.733 233.978 243.678 233.547 245.539L238.586 246.707C238.951 245.134 239.487 243.421 240.289 241.318L235.455 239.476ZM253.359 200.214C244.273 218.927 238.275 232.073 235.455 239.476L240.289 241.318C243.017 234.156 248.92 221.202 258.013 202.473L253.359 200.214ZM243.239 320.159C256.356 318.582 267.534 316.612 276.759 314.237L275.469 309.227C266.533 311.528 255.594 313.463 242.621 315.023L243.239 320.159ZM251.673 352.016C249.351 339.277 247.251 327.466 245.479 317.153L240.381 318.029C242.156 328.363 244.259 340.192 246.583 352.944L251.673 352.016ZM273.333 322.337C271.737 333.767 263.869 343.076 248.074 350.117L250.181 354.842C266.951 347.366 276.528 336.858 278.457 323.053L273.333 322.337ZM273.53 311.865C273.763 316.367 273.682 319.839 273.333 322.337L278.457 323.053C278.871 320.087 278.937 316.245 278.697 311.598L273.53 311.865ZM387.85 270.286C377.504 269.726 362.666 272.681 341.267 278.761L342.68 283.737C364.125 277.645 378.193 274.944 387.571 275.451L387.85 270.286ZM380.178 237.098C380.426 246.189 382.109 258.294 385.176 273.384L390.245 272.353C387.201 257.377 385.586 245.609 385.349 236.957L380.178 237.098ZM328.436 208.849C351.236 221.491 368.902 231.625 381.42 239.237L384.108 234.817C371.502 227.151 353.767 216.979 330.945 204.325L328.436 208.849ZM338.382 252.984C333.844 232.386 331.872 216.932 332.275 206.689L327.106 206.485C326.676 217.412 328.768 233.393 333.33 254.097L338.382 252.984ZM344.499 280.69C342.771 272.892 340.864 264.249 338.382 252.984L333.33 254.097C335.812 265.363 337.72 274.008 339.448 281.809L344.499 280.69Z" fill="#DFDFDF" mask="url(#path-31-inside-1_739_5540)"/>
</g>
</g>
<path fill-rule="evenodd" clip-rule="evenodd" d="M416.436 679.003L407.622 624.028C405.317 605.476 417.535 576.624 427.952 560.836L465.624 503.732C468.897 498.769 470.12 492.792 469.041 487.015L453.491 400.645C452.003 394.839 448.252 389.843 443.035 386.715L401.456 361.785C397.681 359.524 392.715 361.246 391.189 365.334C388.75 371.869 386.899 381.411 392.584 388.766C397.803 395.522 405.262 402.773 409.474 407.075C413.284 410.97 415.541 416.063 415.81 421.459L410.322 460.074C410.188 468.186 405.762 475.677 398.612 479.871C381.673 489.808 354.162 510.767 345.322 524.422C342.803 528.31 340.162 533.136 337.548 538.355C323.858 565.715 319.754 596.647 325.863 626.355L317.618 684.793C344.908 696.565 379.223 692.99 416.436 679.003Z" fill="#F9CEC1"/>
<path d="M334.842 164.436L214.74 178.724C203.685 180.039 195.824 189.789 197.181 200.5L209.47 297.47C210.827 308.181 220.89 315.798 231.945 314.483L352.046 300.195C363.101 298.88 370.963 289.131 369.605 278.42L357.316 181.449C355.959 170.738 345.897 163.121 334.842 164.436Z" fill="white"/>
<path fill-rule="evenodd" clip-rule="evenodd" d="M214.74 178.724L334.842 164.436C345.897 163.121 355.959 170.738 357.316 181.449L359.774 200.843L199.639 219.894L197.181 200.5C195.824 189.789 203.685 180.039 214.74 178.724Z" fill="#9DD4D9"/>
<path fill-rule="evenodd" clip-rule="evenodd" d="M256.089 284.54C257.471 284.376 258.729 285.328 258.898 286.667C259.068 288.006 258.085 289.224 256.703 289.389L231.682 292.365C230.3 292.53 229.043 291.578 228.873 290.239C228.703 288.9 229.686 287.681 231.068 287.517L256.089 284.54ZM301.127 279.182C302.509 279.018 303.767 279.97 303.936 281.309C304.106 282.648 303.123 283.866 301.741 284.031L276.72 287.007C275.338 287.172 274.081 286.22 273.911 284.881C273.741 283.542 274.724 282.323 276.106 282.159L301.127 279.182ZM346.165 273.824C347.547 273.66 348.805 274.612 348.974 275.951C349.144 277.29 348.161 278.508 346.779 278.673L321.758 281.649C320.376 281.814 319.119 280.862 318.949 279.523C318.779 278.184 319.762 276.965 321.144 276.801L346.165 273.824ZM298.055 254.94C299.437 254.775 300.694 255.727 300.864 257.066C301.034 258.405 300.051 259.624 298.669 259.788L273.648 262.765C272.266 262.929 271.008 261.977 270.839 260.638C270.669 259.299 271.652 258.081 273.034 257.916L298.055 254.94ZM343.093 249.582C344.475 249.417 345.732 250.369 345.902 251.708C346.072 253.047 345.089 254.266 343.707 254.43L318.686 257.407C317.304 257.571 316.046 256.619 315.877 255.28C315.707 253.941 316.69 252.723 318.072 252.558L343.093 249.582ZM249.944 236.055C251.326 235.89 252.584 236.843 252.754 238.181C252.923 239.52 251.941 240.739 250.559 240.903L225.538 243.88C224.156 244.044 222.898 243.092 222.728 241.753C222.559 240.414 223.541 239.196 224.923 239.031L249.944 236.055ZM294.982 230.697C296.364 230.532 297.622 231.485 297.792 232.823C297.961 234.162 296.979 235.381 295.597 235.545L270.576 238.522C269.194 238.686 267.936 237.734 267.766 236.395C267.597 235.057 268.579 233.838 269.961 233.674L294.982 230.697ZM340.02 225.339C341.402 225.175 342.66 226.127 342.83 227.466C342.999 228.804 342.017 230.023 340.635 230.187L315.614 233.164C314.232 233.329 312.974 232.376 312.804 231.038C312.635 229.699 313.617 228.48 314.999 228.316L340.02 225.339Z" fill="#CDD9DF"/>
<path fill-rule="evenodd" clip-rule="evenodd" d="M227.908 162.391C230.672 162.063 233.187 163.967 233.527 166.645L235.984 186.039C236.324 188.717 234.358 191.154 231.595 191.483C228.831 191.811 226.315 189.907 225.976 187.229L223.518 167.835C223.179 165.158 225.144 162.72 227.908 162.391ZM272.946 157.034C275.71 156.705 278.225 158.609 278.565 161.287L281.022 180.681C281.362 183.359 279.396 185.796 276.633 186.125C273.869 186.454 271.353 184.549 271.014 181.872L268.556 162.477C268.217 159.8 270.182 157.362 272.946 157.034ZM317.984 151.676C320.748 151.347 323.263 153.251 323.603 155.929L326.06 175.323C326.4 178.001 324.434 180.438 321.671 180.767C318.907 181.096 316.391 179.191 316.052 176.514L313.594 157.119C313.255 154.442 315.22 152.004 317.984 151.676Z" fill="black"/>
<path d="M252.709 257.874L227.688 260.85C226.306 261.015 225.323 262.233 225.493 263.572L226.108 268.421C226.277 269.76 227.535 270.712 228.917 270.547L253.938 267.571C255.32 267.406 256.303 266.188 256.133 264.849L255.518 260C255.349 258.661 254.091 257.709 252.709 257.874Z" fill="#023F5A"/>
<circle cx="474.957" cy="355.415" r="56.8639" fill="white"/>
<path d="M474.957 291.424C510.298 291.424 538.948 320.074 538.948 355.415C538.948 390.755 510.298 419.405 474.957 419.405C439.617 419.405 410.967 390.755 410.967 355.415C410.967 320.074 439.617 291.424 474.957 291.424ZM474.957 304.222C446.685 304.222 423.765 327.142 423.765 355.415C423.765 383.688 446.685 406.607 474.957 406.607C503.23 406.607 526.15 383.688 526.15 355.415C526.15 327.142 503.23 304.222 474.957 304.222ZM481.548 323.419V358.614L453.393 379.731L445.714 369.493L468.75 352.215V323.419H481.548Z" fill="#0AA1E2"/>
<defs>
<clipPath id="clip0_739_5540">
<rect width="243.34" height="186.058" fill="white" transform="translate(624.102 389.417)"/>
</clipPath>
<clipPath id="clip1_739_5540">
<rect width="249.8" height="144.712" fill="white" transform="translate(620.684 431.624)"/>
</clipPath>
</defs>
</svg>
