<svg width="1078" height="779" viewBox="0 0 1078 779" fill="none" xmlns="http://www.w3.org/2000/svg">
<g clip-path="url(#clip0_801_7249)">
<path fill-rule="evenodd" clip-rule="evenodd" d="M199.987 486.256C199.987 486.256 130.392 169.97 245.112 130.54C359.831 91.1107 373.95 111.797 517.621 141.117C661.292 170.436 704.814 250.761 779.304 250.761C853.794 250.761 942.57 226.63 965.27 330.935C987.97 435.24 896.965 485.687 896.965 485.687L199.987 486.256Z" fill="#FAFAFA"/>
<path opacity="0.1" fill-rule="evenodd" clip-rule="evenodd" d="M275.566 534.07C142.507 559.184 211.681 594.315 256.699 616.03C301.717 637.744 383.919 658.147 481.502 641.658C579.085 625.17 550.812 594.116 592.934 581.741C635.056 569.367 664.183 585.007 752.301 562.105C840.42 539.204 795.787 521.084 636.829 511.736C477.872 502.388 408.626 508.955 275.566 534.07Z" fill="#658A9B"/>
<g opacity="0.676572">
<path fill-rule="evenodd" clip-rule="evenodd" d="M810.496 247.952H717.838V486.61H810.496V247.952ZM382.287 291.545H474.945V486.611H382.287V291.545ZM566.748 317.078H649.537V486.627H566.748V317.078Z" fill="#FAE6E1"/>
<path fill-rule="evenodd" clip-rule="evenodd" d="M732.035 258.018H746.419V287.899H732.035V258.018ZM410.3 302.34H395.916V332.221H410.3V302.34ZM410.3 346.322H395.916V376.203H410.3V346.322ZM395.916 390.305H410.3V420.186H395.916V390.305ZM415.371 433.604H393.628V480.608H415.371V433.604ZM421.339 346.322H435.722V376.203H421.339V346.322ZM435.722 302.34H421.339V332.221H435.722V302.34ZM421.339 390.305H435.722V420.186H421.339V390.305ZM435.722 433.615H421.339V463.496H435.722V433.615ZM446.761 346.322H461.145V376.203H446.761V346.322ZM461.145 302.34H446.761V332.221H461.145V302.34ZM446.761 390.305H461.145V420.186H446.761V390.305ZM461.145 433.615H446.761V463.496H461.145V433.615ZM732.035 346.322H746.419V376.203H732.035V346.322ZM746.419 302.34H732.035V332.221H746.419V302.34ZM732.035 390.305H746.419V420.186H732.035V390.305ZM751.489 433.604H729.746V480.608H751.489V433.604ZM757.458 346.322H771.842V376.203H757.458V346.322ZM771.842 302.34H757.458V332.221H771.842V302.34ZM757.458 390.305H771.842V420.186H757.458V390.305ZM771.842 433.615H757.458V463.496H771.842V433.615ZM782.88 346.322H797.264V376.203H782.88V346.322ZM797.264 302.34H782.88V332.221H797.264V302.34ZM782.88 390.305H797.264V420.186H782.88V390.305ZM797.264 433.615H782.88V463.496H797.264V433.615ZM771.842 258.018H757.458V287.899H771.842V258.018ZM782.88 258.018H797.264V287.899H782.88V258.018ZM583.011 331.214C579.039 331.214 575.819 334.434 575.819 338.406V361.095H590.203V338.406C590.203 334.434 586.983 331.214 583.011 331.214ZM575.485 381.717C575.485 377.745 578.705 374.525 582.677 374.525C586.649 374.525 589.869 377.745 589.869 381.717V404.406H575.485V381.717ZM584.35 417.835C578.346 417.835 573.478 422.702 573.478 428.706V463.495H595.221V428.706C595.221 422.702 590.354 417.835 584.35 417.835ZM601.242 338.406C601.242 334.434 604.462 331.214 608.434 331.214C612.406 331.214 615.626 334.434 615.626 338.406V361.095H601.242V338.406ZM608.1 374.525C604.128 374.525 600.908 377.745 600.908 381.717V404.406H615.292V381.717C615.292 377.745 612.072 374.525 608.1 374.525ZM601.242 425.027C601.242 421.055 604.462 417.835 608.434 417.835C612.406 417.835 615.626 421.055 615.626 425.027V447.716H601.242V425.027ZM633.856 331.214C629.884 331.214 626.664 334.434 626.664 338.406V361.095H641.048V338.406C641.048 334.434 637.828 331.214 633.856 331.214ZM626.33 381.717C626.33 377.745 629.549 374.525 633.521 374.525C637.493 374.525 640.713 377.745 640.713 381.717V404.406H626.33V381.717ZM633.856 417.835C629.884 417.835 626.664 421.055 626.664 425.027V447.716H641.048V425.027C641.048 421.055 637.828 417.835 633.856 417.835Z" fill="#F9DAD2"/>
<rect x="392.905" y="373.517" width="20.0705" height="2.68585" fill="#F39C83"/>
<rect x="392.905" y="329.535" width="20.0705" height="2.68587" fill="#F39C83"/>
<rect x="392.905" y="417.499" width="20.0705" height="2.68598" fill="#F39C83"/>
<rect x="418.662" y="373.517" width="20.0704" height="2.68585" fill="#F39C83"/>
<rect x="418.662" y="329.535" width="20.0704" height="2.68587" fill="#F39C83"/>
<rect x="418.662" y="417.499" width="20.0704" height="2.68598" fill="#F39C83"/>
<rect x="418.662" y="460.81" width="20.0704" height="2.68602" fill="#F39C83"/>
<rect x="444.085" y="373.517" width="20.0705" height="2.68585" fill="#F39C83"/>
<rect x="444.085" y="329.535" width="20.0705" height="2.68587" fill="#F39C83"/>
<rect x="444.085" y="417.499" width="20.0705" height="2.68598" fill="#F39C83"/>
<rect x="444.085" y="460.81" width="20.0705" height="2.68602" fill="#F39C83"/>
<rect x="377.183" y="287.567" width="102.359" height="4.02891" fill="#F39C83"/>
<path fill-rule="evenodd" clip-rule="evenodd" d="M474.308 204.111H567.126V486.524H474.308V204.111ZM276.64 358.805H382.679V486.387H276.64V358.805ZM718.148 359.128H649.239V486.709H718.148V359.128Z" fill="#FBF0E6"/>
<path fill-rule="evenodd" clip-rule="evenodd" d="M487.872 227.011C487.872 223.002 491.123 219.752 495.132 219.752C499.141 219.752 502.392 223.002 502.392 227.011V254.664H487.872V227.011ZM495.132 270.893C491.123 270.893 487.872 274.143 487.872 278.153V305.806H502.392V278.153C502.392 274.143 499.141 270.893 495.132 270.893ZM495.132 322.48C491.123 322.48 487.872 325.73 487.872 329.74V357.393H502.392V329.74C502.392 325.73 499.141 322.48 495.132 322.48ZM487.872 380.805C487.872 376.796 491.123 373.546 495.132 373.546C499.141 373.546 502.392 376.796 502.392 380.805V408.458H487.872V380.805ZM496.539 424.331C490.525 424.331 485.65 429.206 485.65 435.22V480.586H507.428V435.22C507.428 429.206 502.553 424.331 496.539 424.331ZM513.281 329.74C513.281 325.73 516.531 322.48 520.54 322.48C524.549 322.48 527.799 325.73 527.799 329.74V357.393H513.281V329.74ZM520.54 270.893C516.531 270.893 513.281 274.143 513.281 278.153V305.806H527.799V278.153C527.799 274.143 524.549 270.893 520.54 270.893ZM513.281 380.805C513.281 376.796 516.531 373.546 520.54 373.546C524.549 373.546 527.799 376.796 527.799 380.805V408.458H513.281V380.805ZM520.54 424.091C516.531 424.091 513.281 427.341 513.281 431.35V459.003H527.799V431.35C527.799 427.341 524.549 424.091 520.54 424.091ZM538.689 329.739C538.689 325.73 541.939 322.48 545.948 322.48C549.957 322.48 553.208 325.73 553.208 329.739V357.393H538.689V329.739ZM545.948 270.893C541.939 270.893 538.689 274.143 538.689 278.153V305.806H553.208V278.153C553.208 274.143 549.957 270.893 545.948 270.893ZM538.689 380.805C538.689 376.796 541.939 373.546 545.948 373.546C549.957 373.546 553.208 376.796 553.208 380.805V408.458H538.689V380.805ZM545.948 424.091C541.939 424.091 538.689 427.341 538.689 431.35V459.003H553.208V431.35C553.208 427.341 549.957 424.091 545.948 424.091ZM520.54 219.752C516.531 219.752 513.281 223.002 513.281 227.011V254.664H527.799V227.011C527.799 223.002 524.549 219.752 520.54 219.752ZM538.689 227.011C538.689 223.002 541.939 219.752 545.948 219.752C549.957 219.752 553.208 223.002 553.208 227.011V254.664H538.689V227.011ZM321.452 365.796H309.945V389.633H321.452V365.796ZM286.129 365.796H297.636V389.633H286.129V365.796ZM321.118 399.705H309.611V423.543H321.118V399.705ZM309.611 433.799H321.118V457.637H309.611V433.799ZM297.869 399.705H285.795V423.543H297.869V399.705ZM282.582 442.684C282.582 437.696 286.626 433.653 291.614 433.653C296.602 433.653 300.646 437.696 300.646 442.684V470.02H282.582V442.684ZM346.69 365.796H335.183V389.633H346.69V365.796ZM334.848 399.705H346.355V423.543H334.848V399.705ZM346.355 433.615H334.848V457.453H346.355V433.615ZM358.86 365.796H370.367V389.633H358.86V365.796ZM370.032 399.705H358.525V423.543H370.032V399.705ZM358.525 433.615H370.032V457.453H358.525V433.615ZM668.345 365.796H656.839V389.633H668.345V365.796ZM656.504 399.705H668.011V423.543H656.504V399.705ZM672.158 433.615H654.095V480.619H672.158V433.615ZM678.247 365.796H689.754V389.633H678.247V365.796ZM689.42 399.705H677.912V423.543H689.42V399.705ZM677.912 433.615H689.42V457.453H677.912V433.615ZM711.163 365.796H699.656V389.633H711.163V365.796ZM699.321 399.705H710.828V423.543H699.321V399.705ZM710.828 433.615H699.321V457.453H710.828V433.615Z" fill="#FDCB9D"/>
<rect x="484.761" y="354.266" width="20.2228" height="3.1264" fill="#F39C4D"/>
<rect x="484.761" y="302.679" width="20.2228" height="3.12649" fill="#F39C4D"/>
<rect x="484.761" y="405.332" width="20.2228" height="3.12646" fill="#F39C4D"/>
<rect x="510.687" y="354.266" width="20.2228" height="3.1264" fill="#F39C4D"/>
<rect x="510.687" y="302.679" width="20.2228" height="3.12649" fill="#F39C4D"/>
<rect x="510.687" y="405.332" width="20.2228" height="3.12646" fill="#F39C4D"/>
<rect x="510.687" y="455.877" width="20.2228" height="3.12655" fill="#F39C4D"/>
<rect x="536.095" y="354.266" width="20.2228" height="3.1264" fill="#F39C4D"/>
<rect x="536.095" y="302.679" width="20.2228" height="3.12649" fill="#F39C4D"/>
<rect x="484.761" y="251.538" width="20.2228" height="3.12651" fill="#F39C4D"/>
<rect x="510.687" y="251.538" width="20.2228" height="3.12651" fill="#F39C4D"/>
<rect x="536.095" y="251.538" width="20.2228" height="3.12651" fill="#F39C4D"/>
<rect x="536.095" y="405.332" width="20.2228" height="3.12646" fill="#F39C4D"/>
<rect x="536.095" y="455.877" width="20.2228" height="3.12655" fill="#F39C4D"/>
<rect x="469.204" y="198.997" width="102.151" height="5.68226" fill="#F39C4D"/>
<rect x="307.536" y="387.49" width="16.0565" height="2.14268" fill="#F39C4D"/>
<rect x="283.72" y="387.49" width="16.0563" height="2.14268" fill="#F39C4D"/>
<rect x="307.202" y="421.4" width="16.0565" height="2.1427" fill="#F39C4D"/>
<rect x="307.202" y="455.494" width="16.0565" height="2.14266" fill="#F39C4D"/>
<rect x="283.385" y="421.4" width="16.6234" height="2.1427" fill="#F39C4D"/>
<rect x="332.915" y="387.388" width="16.0563" height="2.14268" fill="#F39C4D"/>
<rect x="332.58" y="421.298" width="16.0563" height="2.14275" fill="#F39C4D"/>
<rect x="332.58" y="455.208" width="16.0563" height="2.1427" fill="#F39C4D"/>
<rect x="356.591" y="387.388" width="16.0563" height="2.14268" fill="#F39C4D"/>
<rect x="356.256" y="421.298" width="16.0565" height="2.14275" fill="#F39C4D"/>
<rect x="356.256" y="455.208" width="16.0565" height="2.1427" fill="#F39C4D"/>
<rect x="269.982" y="354.828" width="114.544" height="3.97764" fill="#F39C4D"/>
<rect x="390.322" y="480.407" width="28.0009" height="6.25301" fill="#FFA68F"/>
<rect x="482.184" y="480.407" width="28.0009" height="6.25301" fill="#F39C4D"/>
<rect x="573.479" y="463.496" width="22.4119" height="23.1661" fill="#F39C83"/>
<rect x="573.479" y="463.496" width="28.7678" height="6.04339" fill="#FCC8BB"/>
<rect x="579.5" y="469.203" width="28.7678" height="6.04317" fill="#FCC8BB"/>
<rect x="585.187" y="474.911" width="28.7674" height="6.0433" fill="#FCC8BB"/>
<rect x="590.873" y="480.619" width="28.7675" height="6.04326" fill="#FCC8BB"/>
<rect x="282.583" y="469.612" width="14.1763" height="17.047" fill="#F39C4D"/>
<rect x="282.583" y="469.612" width="18.1457" height="4.5458" fill="#FCD4B0"/>
<rect x="285.985" y="473.589" width="18.1456" height="4.54615" fill="#FCD4B0"/>
<rect x="289.954" y="478.135" width="18.1456" height="4.54571" fill="#FCD4B0"/>
<rect x="293.356" y="482.113" width="18.1456" height="4.54584" fill="#FCD4B0"/>
<rect x="729.025" y="373.517" width="20.0705" height="2.68585" fill="#F39C83"/>
<rect x="729.025" y="329.535" width="20.0705" height="2.68587" fill="#F39C83"/>
<rect x="729.025" y="417.499" width="20.0705" height="2.68598" fill="#F39C83"/>
<rect x="754.783" y="373.517" width="20.0704" height="2.68585" fill="#F39C83"/>
<rect x="754.783" y="329.535" width="20.0704" height="2.68587" fill="#F39C83"/>
<rect x="754.783" y="417.499" width="20.0704" height="2.68598" fill="#F39C83"/>
<rect x="754.783" y="460.81" width="20.0704" height="2.68602" fill="#F39C83"/>
<rect x="780.205" y="373.517" width="20.0705" height="2.68585" fill="#F39C83"/>
<rect x="780.205" y="329.535" width="20.0705" height="2.68587" fill="#F39C83"/>
<rect x="729.025" y="285.213" width="20.0705" height="2.68598" fill="#F39C83"/>
<rect x="754.783" y="285.213" width="20.0704" height="2.68598" fill="#F39C83"/>
<rect x="780.205" y="285.213" width="20.0705" height="2.68598" fill="#F39C83"/>
<rect x="780.205" y="417.499" width="20.0705" height="2.68598" fill="#F39C83"/>
<rect x="780.205" y="460.81" width="20.0705" height="2.68602" fill="#F39C83"/>
<rect x="713.304" y="242.838" width="102.359" height="5.11413" fill="#F39C83"/>
<rect x="654.429" y="387.49" width="16.0563" height="2.14268" fill="#F39C4D"/>
<rect x="654.095" y="421.4" width="16.0563" height="2.1427" fill="#F39C4D"/>
<rect x="675.838" y="387.49" width="16.0564" height="2.14268" fill="#F39C4D"/>
<rect x="675.503" y="421.4" width="16.0563" height="2.1427" fill="#F39C4D"/>
<rect x="675.503" y="455.31" width="16.0563" height="2.14292" fill="#F39C4D"/>
<rect x="697.247" y="387.49" width="16.0563" height="2.14268" fill="#F39C4D"/>
<rect x="696.912" y="421.4" width="16.0563" height="2.1427" fill="#F39C4D"/>
<rect x="696.912" y="455.31" width="16.0563" height="2.14292" fill="#F39C4D"/>
<rect x="572.81" y="358.409" width="20.0705" height="2.68585" fill="#FCC8BB"/>
<rect x="572.475" y="401.719" width="20.0705" height="2.68589" fill="#FCC8BB"/>
<rect x="598.567" y="358.409" width="20.0705" height="2.68585" fill="#FCC8BB"/>
<rect x="598.232" y="401.719" width="20.0705" height="2.68589" fill="#FCC8BB"/>
<rect x="598.567" y="445.031" width="20.0705" height="2.68598" fill="#FCC8BB"/>
<rect x="623.989" y="358.409" width="20.0704" height="2.68585" fill="#FCC8BB"/>
<rect x="623.655" y="401.719" width="20.0704" height="2.68589" fill="#FCC8BB"/>
<rect x="623.989" y="445.031" width="20.0704" height="2.68598" fill="#FCC8BB"/>
<rect x="649.412" y="355.052" width="73.5917" height="4.02897" fill="#F39C4D"/>
<rect x="650.456" y="480.162" width="25.9266" height="6.25284" fill="#F39C83"/>
<rect x="726.441" y="480.162" width="28.0008" height="6.25284" fill="#F39C83"/>
<rect x="563.184" y="313.622" width="89.5939" height="3.97762" fill="#F39C83"/>
</g>
<path fill-rule="evenodd" clip-rule="evenodd" d="M467.441 413.176C466.245 412.132 466.544 410.598 466.535 408.81C466.527 407.054 466.968 404.879 466.043 402.834C463.122 396.38 459.121 398.981 456.023 390.524C452.925 382.068 457.379 371.417 465.4 368.944C473.422 366.471 479.598 368.183 484.859 375.351C490.12 382.519 490.416 396.49 488.826 400.985C487.236 405.48 478.214 402.834 478.214 402.834C478.214 402.834 478.725 409.175 478.214 410.71C477.703 412.245 475.718 414.984 473.422 414.984C471.126 414.984 468.637 414.22 467.441 413.176Z" fill="#D0ABA1"/>
<path fill-rule="evenodd" clip-rule="evenodd" d="M461.643 370.593C462.776 369.732 464.033 369.041 465.398 368.568C473.569 365.737 484.546 369.312 488.032 377.291C489.843 381.433 489.656 386.364 489.656 386.364H477.699C477.159 386.364 473.184 379.551 473.184 379.551C473.184 379.551 473.563 386.364 473.184 386.364C472.231 386.364 471.485 386.308 470.885 386.263C469.588 386.165 468.968 386.119 468.386 386.799C467.985 387.268 468.192 388.821 468.728 389.688C469.001 390.129 469.35 390.434 469.658 390.703C470.03 391.028 470.344 391.302 470.391 391.704C470.629 393.726 470.655 396.267 469.745 398.582C468.836 400.897 466.419 403.667 466.028 402.804C464.696 399.86 463.139 398.8 461.546 397.715C459.646 396.422 457.694 395.093 456.009 390.494C453.565 383.822 455.736 375.792 460.774 371.309C456.029 367.875 442.875 358.834 439.748 361.757C437.877 363.505 439.149 367.407 440.761 372.355C442.454 377.549 444.522 383.896 443.727 390.115C442.922 396.401 439.315 399.667 436.232 402.46C433.359 405.061 430.94 407.252 431.665 411.091C431.978 412.745 433.435 414.451 435.126 416.432C437.428 419.128 440.163 422.332 441.032 426.601C442.325 432.951 439.748 434.766 439.748 434.766L411.533 434.762C411.533 434.762 417.283 427.929 416.212 422.997C415.235 418.499 413.546 415.661 412.099 413.23C410.251 410.124 408.798 407.682 409.729 403.293C410.573 399.317 412.117 397.499 414.014 395.268C415.85 393.107 418.016 390.557 420.195 385.284C422.332 380.114 422.59 374.64 422.823 369.709C423.073 364.419 423.294 359.755 425.773 356.766C432.4 348.772 441.155 348.558 449.049 353.458C455.122 357.228 459.805 366.51 461.643 370.593Z" fill="#8E736C"/>
<path fill-rule="evenodd" clip-rule="evenodd" d="M436.146 635.609L449.723 619.863L443.743 612.803L431.014 626.674L436.146 635.609ZM464.408 648.86V636.168H455.526V648.86H464.408Z" fill="#D0ABA1"/>
<path fill-rule="evenodd" clip-rule="evenodd" d="M479.868 496.27L447.551 508.997L472.906 557.484L439.241 610.449L455.264 628.48L506.572 561.987L479.868 496.27Z" fill="#DFA88E"/>
<path fill-rule="evenodd" clip-rule="evenodd" d="M447.551 496.27V640.309L470.893 641.022L479.868 496.27H447.551Z" fill="#D88F74"/>
<rect width="20.3774" height="13.0639" rx="0.918456" transform="matrix(-0.927164 0.374656 0.374557 0.927204 478.577 497.691)" fill="#001F3E"/>
<path fill-rule="evenodd" clip-rule="evenodd" d="M478.672 409.996C478.672 409.996 482.127 420.1 485.77 442.548C489.412 464.997 491.809 496.11 491.809 496.11H447.711L445.453 469.788C445.453 469.788 437.354 457.131 436.108 452.549C434.863 447.967 454.156 415.512 455.944 412.943C457.733 410.373 468.057 407.273 468.057 407.273C468.057 407.273 473.537 410.574 475.298 410.574C477.998 410.574 478.672 409.996 478.672 409.996Z" fill="white"/>
<path fill-rule="evenodd" clip-rule="evenodd" d="M475.196 494.749C475.676 495.757 476.6 497.62 476.6 497.62L475.587 498.119C475.587 498.119 474.989 498.108 473.526 499.134C472.063 500.16 472.501 501.597 472.667 503.169C473.348 509.615 475.171 513.593 474.181 514.534C472.335 516.29 467.502 508.066 466.135 505.134C465.248 503.233 464.91 499.522 465.121 494.001C465.127 493.846 472.074 490.488 472.345 490.801C473.098 491.672 473.898 492.021 475.196 494.749Z" fill="#D0ABA1"/>
<path fill-rule="evenodd" clip-rule="evenodd" d="M533.699 428.194C533.699 428.194 538.571 422.524 538.106 421.153C537.641 419.781 534.391 424.545 533.397 423.296C532.402 422.047 533.143 420.922 533.686 419.613C535.909 414.244 538.485 411.283 537.875 410.226C536.737 408.252 530.497 414.107 528.579 416.283C526.66 418.46 525.807 423.915 525.807 423.915L502.804 440.22L509.489 449.928C509.489 449.928 524.316 434.61 526.514 432.235C528.713 429.86 533.699 428.194 533.699 428.194Z" fill="#D0ABA1"/>
<path fill-rule="evenodd" clip-rule="evenodd" d="M479.082 407.905C479.082 407.905 484.776 421.205 488.938 449.2C493.1 477.196 500.1 514.922 500.1 514.922H488.938L476.777 409.573C476.777 409.573 477.576 409.421 478.022 409.099C478.468 408.776 479.082 407.905 479.082 407.905Z" fill="#D4E3B8"/>
<path fill-rule="evenodd" clip-rule="evenodd" d="M430.176 519.302L441.056 465.001C441.056 465.001 435.894 457.747 434.649 453.165C433.403 448.582 454.566 413.422 456.354 410.853C458.143 408.283 467.903 406.75 467.903 406.75C467.903 406.75 469.413 408.338 470.298 408.87C471.182 409.401 473.013 409.82 473.013 409.82L466.539 469.465L475.177 490.133L463.742 495.224L461.093 519.625L430.176 519.302Z" fill="#D4E3B8"/>
<path fill-rule="evenodd" clip-rule="evenodd" d="M479.082 407.905L495.192 442.587L515.373 427.351L523.404 438.525L488.938 481.472L479.082 407.905Z" fill="#D4E3B8"/>
<path fill-rule="evenodd" clip-rule="evenodd" d="M452.173 662.342L452.797 644.534L465.892 644.534C468.592 652.153 481.169 657.909 484.744 659.412C485.318 659.653 485.694 660.211 485.694 660.836C485.694 661.668 485.022 662.342 484.193 662.342H471.689C468.334 662.342 465.071 661.233 462.406 659.188L458.409 656.12V662.342H452.173Z" fill="#FAD696"/>
<path fill-rule="evenodd" clip-rule="evenodd" d="M421.098 632.335L434.13 620.184L443.39 629.444C439.912 636.74 444.735 649.703 446.2 653.294C446.435 653.871 446.307 654.531 445.865 654.973C445.277 655.561 444.325 655.562 443.739 654.976L434.898 646.135C432.525 643.762 431.002 640.671 430.563 637.34L429.906 632.345L425.507 636.744L421.098 632.335Z" fill="#FAD696"/>
<path fill-rule="evenodd" clip-rule="evenodd" d="M490.553 475.737L483.408 416.876L493.384 476.584L490.553 475.737Z" fill="#B4D283"/>
<path fill-rule="evenodd" clip-rule="evenodd" d="M440.302 466.669V462.758L459.136 491.772L440.302 466.669Z" fill="#B4D283"/>
<path fill-rule="evenodd" clip-rule="evenodd" d="M456.378 447.041L462.087 433.215L458.681 447.041L474.954 488.243L460.589 494.007L473.865 487.596L456.378 447.041Z" fill="#B4D283"/>
<path fill-rule="evenodd" clip-rule="evenodd" d="M179.007 384.566C174.183 379.71 170.97 373.487 169.805 366.741L165.818 343.655C165.378 341.103 168.022 339.132 170.342 340.282L192.737 351.385C203.569 356.755 210.422 367.801 210.422 379.891C210.422 389.993 214.079 399.753 220.717 407.367L229.386 417.311C232 420.309 233.598 424.058 233.95 428.021L234.204 430.868C235.991 450.957 214.501 464.803 196.947 454.873C190.146 451.026 186.655 443.188 188.345 435.559L191.568 421.014C194.256 408.885 190.587 396.222 181.831 387.409L179.007 384.566ZM311.492 423.808C300.744 424.366 291.541 431.702 288.602 442.057C286.255 450.326 280.778 457.355 273.334 461.653L257.736 470.659C252.988 473.401 249.717 478.225 248.858 483.641C245.983 501.777 262.72 517.222 280.436 512.391C287.709 510.408 292.97 504.092 293.606 496.58L294.832 482.11C295.754 471.226 303.292 462.038 313.786 459.008C322.06 456.619 329.128 451.194 333.574 443.819L341.291 431.019C343.611 427.17 340.687 422.293 336.199 422.526L311.492 423.808ZM164.937 432.213C173.458 434.011 180.293 440.361 182.713 448.726C185.061 456.84 190.62 463.643 198.104 467.56L206.089 471.739C210.28 473.933 213.351 477.793 214.547 482.371L215.473 485.914C219.458 501.164 206.113 515.327 190.653 512.256C184.018 510.938 179.059 505.384 178.498 498.642L177.439 485.912C176.648 476.397 170.288 468.257 161.246 465.189C154.101 462.765 148.082 457.826 144.31 451.292L134.403 434.133C132.281 430.457 135.511 426.004 139.664 426.88L164.937 432.213ZM297.961 348.145C289.892 350.603 283.91 357.415 282.513 365.733C281.238 373.33 277.014 380.116 270.761 384.615L262.263 390.728C257.286 394.308 254.619 400.289 255.282 406.385L255.618 409.478C257.326 425.178 274.567 433.981 288.285 426.158C293.887 422.963 296.94 416.647 295.963 410.273L294.457 400.441C292.814 389.725 297.859 379.089 307.196 373.58C312.121 370.674 315.582 365.815 316.72 360.211L319.51 346.462C319.987 344.113 317.78 342.107 315.487 342.806L297.961 348.145Z" fill="white"/>
<mask id="mask0_801_7249" style="mask-type:alpha" maskUnits="userSpaceOnUse" x="133" y="339" width="210" height="175">
<path fill-rule="evenodd" clip-rule="evenodd" d="M179.007 384.566C174.183 379.71 170.97 373.487 169.805 366.741L165.818 343.655C165.378 341.103 168.022 339.132 170.342 340.282L192.737 351.385C203.569 356.755 210.422 367.801 210.422 379.891C210.422 389.993 214.079 399.753 220.717 407.367L229.386 417.311C232 420.309 233.598 424.058 233.95 428.021L234.204 430.868C235.991 450.957 214.501 464.803 196.947 454.873C190.146 451.026 186.655 443.188 188.345 435.559L191.568 421.014C194.256 408.885 190.587 396.222 181.831 387.409L179.007 384.566ZM311.492 423.808C300.744 424.366 291.541 431.702 288.602 442.057C286.255 450.326 280.778 457.355 273.334 461.653L257.736 470.659C252.988 473.401 249.717 478.225 248.858 483.641C245.983 501.777 262.72 517.222 280.436 512.391C287.709 510.408 292.97 504.092 293.606 496.58L294.832 482.11C295.754 471.226 303.292 462.038 313.786 459.008C322.06 456.619 329.128 451.194 333.574 443.819L341.291 431.019C343.611 427.17 340.687 422.293 336.199 422.526L311.492 423.808ZM164.937 432.213C173.458 434.011 180.293 440.361 182.713 448.726C185.061 456.84 190.62 463.643 198.104 467.56L206.089 471.739C210.28 473.933 213.351 477.793 214.547 482.371L215.473 485.914C219.458 501.164 206.113 515.327 190.653 512.256C184.018 510.938 179.059 505.384 178.498 498.642L177.439 485.912C176.648 476.397 170.288 468.257 161.246 465.189C154.101 462.765 148.082 457.826 144.31 451.292L134.403 434.133C132.281 430.457 135.511 426.004 139.664 426.88L164.937 432.213ZM297.961 348.145C289.892 350.603 283.91 357.415 282.513 365.733C281.238 373.33 277.014 380.116 270.761 384.615L262.263 390.728C257.286 394.308 254.619 400.289 255.282 406.385L255.618 409.478C257.326 425.178 274.567 433.981 288.285 426.158C293.887 422.963 296.94 416.647 295.963 410.273L294.457 400.441C292.814 389.725 297.859 379.089 307.196 373.58C312.121 370.674 315.582 365.815 316.72 360.211L319.51 346.462C319.987 344.113 317.78 342.107 315.487 342.806L297.961 348.145Z" fill="white"/>
</mask>
<g mask="url(#mask0_801_7249)">
<g opacity="0.2">
<rect x="88.8051" y="299.496" width="297.723" height="289.99" fill="#3FD714"/>
</g>
</g>
<path fill-rule="evenodd" clip-rule="evenodd" d="M275.149 399.687C283.5 385.376 290.405 374.071 295.868 365.769L297.806 367.044C292.37 375.306 285.485 386.578 277.153 400.856C258.87 432.186 231.97 496.243 231.323 512.565L231.073 512.555C231.055 522.438 230.75 533.258 230.158 545.016L230.239 545.247L230.145 545.279C229.938 549.369 229.696 553.571 229.42 557.887C240.663 524.922 252.981 500.73 266.404 485.299C280.557 469.028 295.945 453.586 312.566 438.975L314.097 440.717C297.554 455.261 282.239 470.629 268.154 486.822C254.154 502.916 241.286 528.886 229.586 564.718L228.974 564.518C228.717 568.179 228.436 571.916 228.132 575.731L225.819 575.547C226.671 564.872 227.337 554.807 227.818 545.352C222.981 531.518 219.247 521.904 216.63 516.534C207.462 497.724 198.456 484.464 187.278 471.356C176.489 458.704 168.756 451.15 164.218 448.767L165.297 446.713C170.189 449.282 178.059 456.97 189.044 469.851C200.341 483.099 209.456 496.519 218.715 515.517C221.025 520.256 224.153 528.148 228.108 539.21C229.555 505.931 228.569 480.649 225.157 463.383C220.599 440.316 206.978 408.162 184.293 366.966L186.325 365.847C209.116 407.234 222.819 439.582 227.433 462.933C229.459 473.185 230.638 486.185 230.974 501.938C237.601 477.05 259.459 426.575 275.149 399.687Z" fill="white"/>
<mask id="mask1_801_7249" style="mask-type:alpha" maskUnits="userSpaceOnUse" x="164" y="365" width="151" height="211">
<path fill-rule="evenodd" clip-rule="evenodd" d="M275.149 399.687C283.5 385.376 290.405 374.071 295.868 365.769L297.806 367.044C292.37 375.306 285.485 386.578 277.153 400.856C258.87 432.186 231.97 496.243 231.323 512.565L231.073 512.555C231.055 522.438 230.75 533.258 230.158 545.016L230.239 545.247L230.145 545.279C229.938 549.369 229.696 553.571 229.42 557.887C240.663 524.922 252.981 500.73 266.404 485.299C280.557 469.028 295.945 453.586 312.566 438.975L314.097 440.717C297.554 455.261 282.239 470.629 268.154 486.822C254.154 502.916 241.286 528.886 229.586 564.718L228.974 564.518C228.717 568.179 228.436 571.916 228.132 575.731L225.819 575.547C226.671 564.872 227.337 554.807 227.818 545.352C222.981 531.518 219.247 521.904 216.63 516.534C207.462 497.724 198.456 484.464 187.278 471.356C176.489 458.704 168.756 451.15 164.218 448.767L165.297 446.713C170.189 449.282 178.059 456.97 189.044 469.851C200.341 483.099 209.456 496.519 218.715 515.517C221.025 520.256 224.153 528.148 228.108 539.21C229.555 505.931 228.569 480.649 225.157 463.383C220.599 440.316 206.978 408.162 184.293 366.966L186.325 365.847C209.116 407.234 222.819 439.582 227.433 462.933C229.459 473.185 230.638 486.185 230.974 501.938C237.601 477.05 259.459 426.575 275.149 399.687Z" fill="white"/>
</mask>
<g mask="url(#mask1_801_7249)">
<g opacity="0.6">
<rect x="87.2584" y="297.176" width="270.657" height="324.015" fill="#3FD714"/>
</g>
</g>
<path fill-rule="evenodd" clip-rule="evenodd" d="M845.117 391.794C841.877 388.532 839.718 384.351 838.936 379.82L836.257 364.311C835.961 362.597 837.737 361.272 839.296 362.045L854.341 369.503C861.618 373.111 866.221 380.531 866.221 388.653C866.221 395.439 868.678 401.996 873.137 407.111L878.961 413.791C880.717 415.806 881.791 418.324 882.027 420.986L882.197 422.899C883.398 436.394 868.962 445.696 857.169 439.025C852.6 436.44 850.255 431.175 851.391 426.05L853.556 416.279C855.361 408.131 852.896 399.624 847.014 393.704L845.117 391.794ZM934.119 418.156C926.898 418.531 920.716 423.459 918.741 430.415C917.164 435.97 913.485 440.693 908.485 443.58L898.006 449.63C894.816 451.472 892.619 454.713 892.042 458.351C890.111 470.534 901.354 480.91 913.255 477.665C918.142 476.332 921.676 472.09 922.103 467.043L922.926 457.322C923.546 450.011 928.61 443.839 935.66 441.803C941.218 440.198 945.966 436.554 948.953 431.599L954.137 423C955.695 420.415 953.731 417.138 950.716 417.295L934.119 418.156ZM835.665 423.803C841.389 425.01 845.981 429.276 847.607 434.895C849.184 440.346 852.919 444.917 857.946 447.548L863.31 450.356C866.126 451.829 868.189 454.423 868.993 457.497L869.615 459.878C872.291 470.123 863.327 479.637 852.941 477.574C848.483 476.689 845.152 472.957 844.775 468.428L844.064 459.877C843.533 453.484 839.26 448.016 833.185 445.955C828.386 444.327 824.343 441.009 821.808 436.619L815.153 425.092C813.728 422.623 815.898 419.632 818.687 420.22L835.665 423.803ZM925.028 367.327C919.608 368.978 915.589 373.555 914.651 379.143C913.794 384.246 910.957 388.805 906.756 391.827L901.047 395.933C897.703 398.339 895.912 402.357 896.357 406.452L896.583 408.53C897.731 419.076 909.313 424.99 918.528 419.735C922.291 417.589 924.343 413.345 923.686 409.063L922.674 402.459C921.571 395.26 924.96 388.115 931.232 384.414C934.541 382.462 936.866 379.198 937.63 375.433L939.505 366.196C939.825 364.618 938.342 363.271 936.802 363.74L925.028 367.327Z" fill="white"/>
<mask id="mask2_801_7249" style="mask-type:alpha" maskUnits="userSpaceOnUse" x="814" y="361" width="141" height="118">
<path fill-rule="evenodd" clip-rule="evenodd" d="M845.117 391.794C841.877 388.532 839.718 384.351 838.936 379.82L836.257 364.311C835.961 362.597 837.737 361.272 839.296 362.045L854.341 369.503C861.618 373.111 866.221 380.531 866.221 388.653C866.221 395.439 868.678 401.996 873.137 407.111L878.961 413.791C880.717 415.806 881.791 418.324 882.027 420.986L882.197 422.899C883.398 436.394 868.962 445.696 857.169 439.025C852.6 436.44 850.255 431.175 851.391 426.05L853.556 416.279C855.361 408.131 852.896 399.624 847.014 393.704L845.117 391.794ZM934.119 418.156C926.898 418.531 920.716 423.459 918.741 430.415C917.164 435.97 913.485 440.693 908.485 443.58L898.006 449.63C894.816 451.472 892.619 454.713 892.042 458.351C890.111 470.534 901.354 480.91 913.255 477.665C918.142 476.332 921.676 472.09 922.103 467.043L922.926 457.322C923.546 450.011 928.61 443.839 935.66 441.803C941.218 440.198 945.966 436.554 948.953 431.599L954.137 423C955.695 420.415 953.731 417.138 950.716 417.295L934.119 418.156ZM835.665 423.803C841.389 425.01 845.981 429.276 847.607 434.895C849.184 440.346 852.919 444.917 857.946 447.548L863.31 450.356C866.126 451.829 868.189 454.423 868.993 457.497L869.615 459.878C872.291 470.123 863.327 479.637 852.941 477.574C848.483 476.689 845.152 472.957 844.775 468.428L844.064 459.877C843.533 453.484 839.26 448.016 833.185 445.955C828.386 444.327 824.343 441.009 821.808 436.619L815.153 425.092C813.728 422.623 815.898 419.632 818.687 420.22L835.665 423.803ZM925.028 367.327C919.608 368.978 915.589 373.555 914.651 379.143C913.794 384.246 910.957 388.805 906.756 391.827L901.047 395.933C897.703 398.339 895.912 402.357 896.357 406.452L896.583 408.53C897.731 419.076 909.313 424.99 918.528 419.735C922.291 417.589 924.343 413.345 923.686 409.063L922.674 402.459C921.571 395.26 924.96 388.115 931.232 384.414C934.541 382.462 936.866 379.198 937.63 375.433L939.505 366.196C939.825 364.618 938.342 363.271 936.802 363.74L925.028 367.327Z" fill="white"/>
</mask>
<g mask="url(#mask2_801_7249)">
<g opacity="0.2">
<rect x="784.521" y="334.645" width="200.005" height="194.81" fill="#3FD714"/>
</g>
</g>
<path fill-rule="evenodd" clip-rule="evenodd" d="M909.704 401.952C915.314 392.338 919.953 384.744 923.622 379.166L924.924 380.023C921.272 385.573 916.647 393.146 911.05 402.738C898.768 423.784 880.697 466.816 880.262 477.781L880.094 477.775C880.082 484.414 879.877 491.683 879.48 499.581L879.534 499.736L879.471 499.758C879.332 502.506 879.169 505.329 878.984 508.228C886.537 486.083 894.812 469.831 903.829 459.465C913.337 448.534 923.674 438.161 934.84 428.345L935.869 429.515C924.755 439.286 914.467 449.61 905.005 460.487C895.6 471.3 886.955 488.746 879.095 512.817L878.684 512.683C878.511 515.142 878.323 517.653 878.118 520.215L876.565 520.091C877.137 512.921 877.585 506.159 877.908 499.807C874.658 490.514 872.15 484.055 870.392 480.448C864.233 467.812 858.183 458.904 850.674 450.098C843.426 441.599 838.231 436.524 835.182 434.923L835.907 433.543C839.194 435.269 844.48 440.434 851.86 449.087C859.449 457.987 865.572 467.002 871.793 479.765C873.344 482.948 875.445 488.25 878.103 495.681C879.074 473.325 878.412 456.341 876.12 444.742C873.058 429.246 863.908 407.645 848.668 379.97L850.034 379.219C865.344 407.022 874.549 428.753 877.649 444.44C879.01 451.327 879.802 460.06 880.028 470.642C884.479 453.923 899.163 420.015 909.704 401.952Z" fill="white"/>
<mask id="mask3_801_7249" style="mask-type:alpha" maskUnits="userSpaceOnUse" x="835" y="379" width="101" height="142">
<path fill-rule="evenodd" clip-rule="evenodd" d="M909.704 401.952C915.314 392.338 919.953 384.744 923.622 379.166L924.924 380.023C921.272 385.573 916.647 393.146 911.05 402.738C898.768 423.784 880.697 466.816 880.262 477.781L880.094 477.775C880.082 484.414 879.877 491.683 879.48 499.581L879.534 499.736L879.471 499.758C879.332 502.506 879.169 505.329 878.984 508.228C886.537 486.083 894.812 469.831 903.829 459.465C913.337 448.534 923.674 438.161 934.84 428.345L935.869 429.515C924.755 439.286 914.467 449.61 905.005 460.487C895.6 471.3 886.955 488.746 879.095 512.817L878.684 512.683C878.511 515.142 878.323 517.653 878.118 520.215L876.565 520.091C877.137 512.921 877.585 506.159 877.908 499.807C874.658 490.514 872.15 484.055 870.392 480.448C864.233 467.812 858.183 458.904 850.674 450.098C843.426 441.599 838.231 436.524 835.182 434.923L835.907 433.543C839.194 435.269 844.48 440.434 851.86 449.087C859.449 457.987 865.572 467.002 871.793 479.765C873.344 482.948 875.445 488.25 878.103 495.681C879.074 473.325 878.412 456.341 876.12 444.742C873.058 429.246 863.908 407.645 848.668 379.97L850.034 379.219C865.344 407.022 874.549 428.753 877.649 444.44C879.01 451.327 879.802 460.06 880.028 470.642C884.479 453.923 899.163 420.015 909.704 401.952Z" fill="white"/>
</mask>
<g mask="url(#mask3_801_7249)">
<g opacity="0.6">
<rect x="783.482" y="333.087" width="181.823" height="217.668" fill="#3FD714"/>
</g>
</g>
<path fill-rule="evenodd" clip-rule="evenodd" d="M631.933 583.473C633.796 584.358 635.833 584.817 637.896 584.817H896.751C900.12 584.817 903.1 582.631 904.112 579.418L904.693 577.577C905.36 575.46 907.323 574.02 909.542 574.02V574.02C912.227 574.02 914.437 571.934 914.407 569.25C914.356 564.737 913.926 557.864 912.051 552.427C908.987 543.546 898.442 527.993 898.442 527.993C898.442 527.993 894.968 501.136 891.637 490.49C887.564 477.47 878.481 464.297 878.028 462.646C876.793 458.145 878.028 453.554 878.028 453.554C878.028 453.554 826.426 445.031 799.775 445.031C789.259 445.031 778.302 445.827 768.888 446.791C752.152 448.505 736.321 454.778 722.108 463.78L672.756 495.035C672.756 495.035 654.409 501.129 645.537 505.264C643.126 506.387 640.434 507.824 637.792 509.319C628.999 514.298 623.989 523.845 623.989 533.949V570.91C623.989 576.28 627.081 581.17 631.933 583.473V583.473Z" fill="#CCDDE4"/>
<mask id="mask4_801_7249" style="mask-type:alpha" maskUnits="userSpaceOnUse" x="623" y="445" width="292" height="140">
<path fill-rule="evenodd" clip-rule="evenodd" d="M631.933 583.473C633.796 584.358 635.833 584.817 637.896 584.817H896.751C900.12 584.817 903.1 582.631 904.112 579.418L904.693 577.577C905.36 575.46 907.323 574.02 909.542 574.02V574.02C912.227 574.02 914.437 571.934 914.407 569.25C914.356 564.737 913.926 557.864 912.051 552.427C908.987 543.546 898.442 527.993 898.442 527.993C898.442 527.993 894.968 501.136 891.637 490.49C887.564 477.47 878.481 464.297 878.028 462.646C876.793 458.145 878.028 453.554 878.028 453.554C878.028 453.554 826.426 445.031 799.775 445.031C789.259 445.031 778.302 445.827 768.888 446.791C752.152 448.505 736.321 454.778 722.108 463.78L672.756 495.035C672.756 495.035 654.409 501.129 645.537 505.264C643.126 506.387 640.434 507.824 637.792 509.319C628.999 514.298 623.989 523.845 623.989 533.949V570.91C623.989 576.28 627.081 581.17 631.933 583.473V583.473Z" fill="white"/>
</mask>
<g mask="url(#mask4_801_7249)">
</g>
<path fill-rule="evenodd" clip-rule="evenodd" d="M710.354 491.062C704.573 496.177 708.008 505.728 715.723 505.989L811.683 509.241L822.277 507.68C828.054 506.829 833.736 505.424 839.245 503.484L851.944 499.013L847.901 490.582C837.425 468.735 816.055 452.851 791.836 453.554V453.554V453.554C762.869 454.396 736.003 468.367 714.3 487.571L710.354 491.062Z" fill="#81AABB"/>
<path fill-rule="evenodd" clip-rule="evenodd" d="M673.89 608.682C691.427 608.682 705.645 594.436 705.645 576.861C705.645 559.287 691.427 545.04 673.89 545.04C656.352 545.04 642.135 559.287 642.135 576.861C642.135 594.436 656.352 608.682 673.89 608.682Z" fill="#5A5A5A"/>
<path fill-rule="evenodd" clip-rule="evenodd" d="M673.89 608.682C691.427 608.682 705.645 594.436 705.645 576.861C705.645 559.287 691.427 545.04 673.89 545.04C656.352 545.04 642.135 559.287 642.135 576.861C642.135 594.436 656.352 608.682 673.89 608.682Z" fill="#81AABB"/>
<path fill-rule="evenodd" clip-rule="evenodd" d="M874.059 605.273C891.596 605.273 905.814 591.026 905.814 573.452C905.814 555.877 891.596 541.63 874.059 541.63C856.521 541.63 842.304 555.877 842.304 573.452C842.304 591.026 856.521 605.273 874.059 605.273Z" fill="#81AABB"/>
<path fill-rule="evenodd" clip-rule="evenodd" d="M874.059 595.613C886.272 595.613 896.174 585.691 896.174 573.452C896.174 561.213 886.272 551.291 874.059 551.291C861.845 551.291 851.944 561.213 851.944 573.452C851.944 585.691 861.845 595.613 874.059 595.613Z" fill="#CCDDE4"/>
<path fill-rule="evenodd" clip-rule="evenodd" d="M673.89 599.023C686.104 599.023 696.005 589.101 696.005 576.862C696.005 564.622 686.104 554.7 673.89 554.7C661.676 554.7 651.775 564.622 651.775 576.862C651.775 589.101 661.676 599.023 673.89 599.023Z" fill="#CCDDE4"/>
<path fill-rule="evenodd" clip-rule="evenodd" d="M633.422 526.355C633.013 530.586 637.368 533.651 641.213 531.838V531.838C641.822 531.55 642.374 531.153 642.839 530.665L653.644 519.345C654.28 518.68 654.753 517.876 655.027 516.998V516.998C656.227 513.15 653.351 509.241 649.321 509.241H649.154C647.907 509.241 646.69 509.624 645.667 510.337L637.217 516.228C635.3 517.564 634.067 519.673 633.842 521.998L633.422 526.355Z" fill="#81AABB"/>
<path fill-rule="evenodd" clip-rule="evenodd" d="M863.852 451.849V451.849C863.852 454.831 864.604 457.766 866.039 460.38L869.73 467.106C874.103 475.072 879.658 482.329 886.207 488.629L890.503 492.762C890.503 492.762 889.383 484.676 888.235 481.397C883.782 468.679 879.715 461.949 879.162 460.373V460.373C878.185 457.587 877.788 453.081 874.848 452.821L863.852 451.849Z" fill="#81AABB"/>
<path fill-rule="evenodd" clip-rule="evenodd" d="M892.199 499.415C891.848 497.744 890.685 496.358 889.1 495.723L887.748 495.181C886.668 494.748 885.433 495.002 884.611 495.825V495.825C884.03 496.408 883.722 497.208 883.817 498.025C884.027 499.845 884.582 503.298 885.967 506.4C887.598 510.054 891.496 515.719 892.858 517.656C893.159 518.084 893.648 518.333 894.171 518.333V518.333C895.203 518.333 895.974 517.383 895.762 516.373L892.199 499.415Z" fill="#81AABB"/>
</g>
<defs>
<clipPath id="clip0_801_7249">
<rect width="1077.9" height="778.48" fill="white"/>
</clipPath>
</defs>
</svg>
