<svg width="120" height="120" viewBox="0 0 120 120" fill="none" xmlns="http://www.w3.org/2000/svg">
<g clip-path="url(#clip0_2617_103288)">
<path fill-rule="evenodd" clip-rule="evenodd" d="M4.70924 84.7427C4.70924 84.7427 -6.19892 15.2856 18.9938 6.62677C44.1864 -2.03208 47.2868 2.51078 78.8374 8.94938C110.388 15.388 119.945 33.0275 136.304 33.0275C152.662 33.0275 172.157 27.7283 177.142 50.6339C182.127 73.5395 162.142 84.6179 162.142 84.6179L4.70924 84.7427Z" fill="#E2F1F8"/>
<path fill-rule="evenodd" clip-rule="evenodd" d="M25.6818 95.655C-3.53832 101.037 11.6523 108.566 21.5385 113.22C31.4246 117.874 49.4763 122.246 70.9057 118.713C92.3351 115.179 86.1264 108.524 95.3764 105.872C104.626 103.22 111.023 106.571 130.374 101.663C149.725 96.7555 139.923 92.8722 105.016 90.8688C70.1085 88.8654 54.9019 90.2727 25.6818 95.655Z" fill="#CFE8E7"/>
<g opacity="0.4">
<rect x="6.10181" y="41.9043" width="124.899" height="42.8015" fill="#CFE8E7"/>
<rect y="39.6582" width="136.978" height="2.24614" fill="#A3D6D4"/>
<rect x="14.0713" y="53.3848" width="27.8937" height="31.3212" fill="#A3D6D4"/>
<rect width="30.8823" height="1.37264" transform="matrix(1 0 0 -1 12.5771 53.3848)" fill="#A3D6D4"/>
<rect x="50.5574" y="53.3848" width="80.4436" height="31.3212" fill="#A3D6D4"/>
<rect x="76.7078" y="53.3848" width="0.99614" height="31.3212" fill="#CFE8E7"/>
<rect x="27.271" y="53.3848" width="0.996201" height="31.3212" fill="#CFE8E7"/>
<rect x="105.349" y="53.3848" width="0.996216" height="31.3212" fill="#CFE8E7"/>
</g>
<path fill-rule="evenodd" clip-rule="evenodd" d="M38.6317 64.538C38.6317 62.9287 37.3271 61.624 35.7178 61.624V57.624C39.5363 57.624 42.6317 60.7195 42.6317 64.538V82.1395C42.6317 87.0362 46.6013 91.0058 51.4981 91.0058C56.3948 91.0058 60.3644 87.0362 60.3644 82.1395V69.4422C60.3644 64.6217 64.2722 60.7139 69.0927 60.7139V64.7139C66.4813 64.7139 64.3644 66.8308 64.3644 69.4422V82.1395C64.3644 89.2454 58.6039 95.0058 51.4981 95.0058C44.3922 95.0058 38.6317 89.2454 38.6317 82.1395V64.538Z" fill="#3DD690"/>
<rect x="14.4048" y="50.7646" width="21.313" height="55.4049" fill="#6497AC"/>
<rect x="22.3076" y="55.5615" width="13.4105" height="18.7081" fill="#33657B"/>
<rect x="12.489" y="103.291" width="24.9051" height="2.87819" fill="#327592"/>
<path d="M68.2422 105.799V97.2129H82.2088V105.799C82.2088 106.86 81.3475 107.721 80.2851 107.721H70.1659C69.1034 107.721 68.2422 106.86 68.2422 105.799Z" fill="#647789"/>
<path d="M127.231 105.799V97.2129H140.376V105.799C140.376 106.86 139.514 107.721 138.452 107.721H129.154C128.092 107.721 127.231 106.86 127.231 105.799Z" fill="#647789"/>
<path fill-rule="evenodd" clip-rule="evenodd" d="M81.8061 40.4043H126.185L140.5 71.5068V100.3H68.2422V71.5068L81.8061 40.4043Z" fill="#324B64"/>
<path d="M72.697 61.2912L80.5814 43.2119H127.477L135.798 61.2912H72.697Z" fill="#95C7EF"/>
<path d="M135.965 61.0274C135.845 61.2844 135.844 61.5813 135.963 61.8388L137.965 66.1607C138.123 66.5006 138.463 66.7181 138.838 66.7181H142.742C143.156 66.7181 143.524 66.4531 143.655 66.0603L145.871 59.4011C146.078 58.7789 145.614 58.1367 144.958 58.1367H137.932C137.559 58.1367 137.219 58.3524 137.061 58.6901L135.965 61.0274Z" fill="#6EE0AC"/>
<path d="M72.4891 61.4073C72.6096 61.6642 72.6102 61.9612 72.491 62.2187L70.4508 66.6232C70.2934 66.963 69.9528 67.1805 69.578 67.1805H65.5929C65.1787 67.1805 64.8109 66.9155 64.6802 66.5227L62.4195 59.7294C62.2124 59.1072 62.676 58.4651 63.3322 58.4651H70.4981C70.8713 58.4651 71.2108 58.6808 71.3691 59.0185L72.4891 61.4073Z" fill="#6EE0AC"/>
<path d="M68.2422 72.0308C68.2438 71.8542 68.2632 71.6787 68.2998 71.5068H77.1142C77.8733 71.5068 78.4424 72.201 78.293 72.9447L77.2037 78.3652C77.0496 79.132 76.3755 79.6838 75.5928 79.6838H68.2422V72.0308Z" fill="#CAE8F5"/>
<path d="M140.436 71.5068C140.478 71.6951 140.5 71.8879 140.5 72.0819V79.6838H133.149C132.367 79.6838 131.692 79.132 131.538 78.3652L130.449 72.9447C130.3 72.201 130.869 71.5068 131.628 71.5068H140.436Z" fill="#CAE8F5"/>
<path d="M84.9983 82.6125C84.9983 82.3047 85.248 82.0551 85.5561 82.0551H123.154C123.462 82.0551 123.712 82.3047 123.712 82.6125C123.712 86.8192 120.299 90.2294 116.089 90.2294H92.6212C88.4112 90.2294 84.9983 86.8192 84.9983 82.6125Z" fill="#CAE8F5"/>
</g>
<defs>
<clipPath id="clip0_2617_103288">
<rect width="120" height="120" fill="white"/>
</clipPath>
</defs>
</svg>
