<svg width="1078" height="779" viewBox="0 0 1078 779" fill="none" xmlns="http://www.w3.org/2000/svg">
<g clip-path="url(#clip0_801_7377)">
<mask id="mask0_801_7377" style="mask-type:alpha" maskUnits="userSpaceOnUse" x="122" y="-51" width="736" height="754">
<rect x="122.101" y="-50.5117" width="735.444" height="752.858" fill="#D9D9D9"/>
</mask>
<g mask="url(#mask0_801_7377)">
<path fill-rule="evenodd" clip-rule="evenodd" d="M388.083 535.821C272.178 558.775 332.434 590.885 371.648 610.731C410.862 630.577 482.467 649.225 567.469 634.155C652.471 619.085 627.843 590.702 664.535 579.392C701.226 568.083 726.598 582.377 803.356 561.446C880.114 540.514 841.235 523.953 702.771 515.409C564.307 506.865 503.988 512.867 388.083 535.821Z" fill="white"/>
<mask id="mask1_801_7377" style="mask-type:alpha" maskUnits="userSpaceOnUse" x="320" y="511" width="523" height="129">
<path fill-rule="evenodd" clip-rule="evenodd" d="M388.083 535.821C272.178 558.775 332.434 590.885 371.648 610.731C410.862 630.577 482.467 649.225 567.469 634.155C652.471 619.085 627.843 590.702 664.535 579.392C701.226 568.083 726.598 582.377 803.356 561.446C880.114 540.514 841.235 523.953 702.771 515.409C564.307 506.865 503.988 512.867 388.083 535.821Z" fill="white"/>
</mask>
<g mask="url(#mask1_801_7377)">
<rect x="240.578" y="318.503" width="770.06" height="344.852" fill="#CCDDE4" fill-opacity="0.56"/>
</g>
<path fill-rule="evenodd" clip-rule="evenodd" d="M322.869 467.171C322.869 467.171 262.246 178.092 362.176 142.054C462.106 106.016 474.404 124.923 599.553 151.721C724.701 178.518 762.613 251.933 827.499 251.933C892.386 251.933 969.717 229.878 989.49 325.211C1009.26 420.543 929.991 466.651 929.991 466.651L322.869 467.171Z" fill="white"/>
<mask id="mask2_801_7377" style="mask-type:alpha" maskUnits="userSpaceOnUse" x="304" y="122" width="689" height="346">
<path fill-rule="evenodd" clip-rule="evenodd" d="M322.869 467.171C322.869 467.171 262.246 178.092 362.176 142.054C462.106 106.016 474.404 124.923 599.553 151.721C724.701 178.518 762.613 251.933 827.499 251.933C892.386 251.933 969.717 229.878 989.49 325.211C1009.26 420.543 929.991 466.651 929.991 466.651L322.869 467.171Z" fill="white"/>
</mask>
<g mask="url(#mask2_801_7377)">
<rect x="241.199" y="122.168" width="770.06" height="344.852" fill="#CCDDE4" fill-opacity="0.55"/>
</g>
<mask id="mask3_801_7377" style="mask-type:alpha" maskUnits="userSpaceOnUse" x="223" y="32" width="641" height="642">
<rect x="223.187" y="32.7041" width="640.485" height="640.485" fill="white"/>
</mask>
<g mask="url(#mask3_801_7377)">
<g opacity="0.07">
<path fill-rule="evenodd" clip-rule="evenodd" d="M309.577 480.615C309.577 480.615 247.929 128.322 349.55 84.4031C451.172 40.4846 463.678 63.5264 590.946 96.1837C718.214 128.841 756.767 218.31 822.753 218.31C888.738 218.31 967.378 191.432 987.486 307.611C1007.59 423.791 926.98 479.982 926.98 479.982L309.577 480.615Z" fill="white"/>
<mask id="mask4_801_7377" style="mask-type:alpha" maskUnits="userSpaceOnUse" x="291" y="60" width="700" height="421">
<path fill-rule="evenodd" clip-rule="evenodd" d="M309.577 480.615C309.577 480.615 247.929 128.322 349.55 84.4031C451.172 40.4846 463.678 63.5264 590.946 96.1837C718.214 128.841 756.767 218.31 822.753 218.31C888.738 218.31 967.378 191.432 987.486 307.611C1007.59 423.791 926.98 479.982 926.98 479.982L309.577 480.615Z" fill="white"/>
</mask>
<g mask="url(#mask4_801_7377)">
<rect x="226.525" y="60.168" width="783.099" height="420.263" fill="#FAFAFA"/>
</g>
<path fill-rule="evenodd" clip-rule="evenodd" d="M376.528 533.873C258.66 561.846 319.936 600.977 359.814 625.163C399.693 649.349 472.509 672.076 558.951 653.71C645.392 635.344 620.348 600.755 657.66 586.972C694.973 573.189 720.774 590.609 798.832 565.1C876.89 539.592 837.353 519.409 696.544 508.997C555.735 498.585 494.395 505.899 376.528 533.873Z" fill="white"/>
<mask id="mask5_801_7377" style="mask-type:alpha" maskUnits="userSpaceOnUse" x="307" y="504" width="532" height="157">
<path fill-rule="evenodd" clip-rule="evenodd" d="M376.528 533.873C258.66 561.846 319.936 600.977 359.814 625.163C399.693 649.349 472.509 672.076 558.951 653.71C645.392 635.344 620.348 600.755 657.66 586.972C694.973 573.189 720.774 590.609 798.832 565.1C876.89 539.592 837.353 519.409 696.544 508.997C555.735 498.585 494.395 505.899 376.528 533.873Z" fill="white"/>
</mask>
<g mask="url(#mask5_801_7377)">
<g opacity="0.1">
<rect x="226.525" y="269.033" width="783.099" height="420.263" fill="#001F3E"/>
</g>
</g>
</g>
<g clip-path="url(#clip1_801_7377)">
<path fill-rule="evenodd" clip-rule="evenodd" d="M706.135 415.224C707.601 406.718 714.596 400.428 723.162 399.367V399.367C739.166 397.384 754.987 405.513 759.247 421.066C761.515 429.343 763.292 438.959 763.292 448.768C763.292 456.214 762.052 463.661 760.255 470.545C754.828 491.336 733.32 501.675 711.923 499.703V499.703C702.771 498.86 694.492 493.856 689.678 486.027C686.547 480.935 683.522 475.847 682.913 474.239C679.804 466.027 702.043 466.659 702.043 457.7C702.043 442.32 704.23 426.279 706.135 415.224Z" fill="white"/>
<mask id="mask6_801_7377" style="mask-type:alpha" maskUnits="userSpaceOnUse" x="682" y="399" width="82" height="101">
<path fill-rule="evenodd" clip-rule="evenodd" d="M706.135 415.224C707.601 406.718 714.596 400.428 723.162 399.367V399.367C739.166 397.384 754.987 405.513 759.247 421.066C761.515 429.343 763.292 438.959 763.292 448.768C763.292 456.214 762.052 463.661 760.255 470.545C754.828 491.336 733.32 501.675 711.923 499.703V499.703C702.771 498.86 694.492 493.856 689.678 486.027C686.547 480.935 683.522 475.847 682.913 474.239C679.804 466.027 702.043 466.659 702.043 457.7C702.043 442.32 704.23 426.279 706.135 415.224Z" fill="white"/>
</mask>
<g mask="url(#mask6_801_7377)">
<g opacity="0.8">
<rect x="589.294" y="173.91" width="740.543" height="376" fill="#001F3E"/>
</g>
</g>
</g>
<g clip-path="url(#clip2_801_7377)">
<ellipse cx="735.596" cy="448.286" rx="22.2765" ry="40.6775" fill="white"/>
<mask id="mask7_801_7377" style="mask-type:alpha" maskUnits="userSpaceOnUse" x="713" y="407" width="45" height="82">
<ellipse cx="735.596" cy="448.286" rx="22.2765" ry="40.6775" fill="white"/>
</mask>
<g mask="url(#mask7_801_7377)">
<g opacity="0.6">
<rect x="701.279" y="172.199" width="541.259" height="398.661" fill="#001F3E"/>
</g>
</g>
</g>
<g clip-path="url(#clip3_801_7377)">
<path fill-rule="evenodd" clip-rule="evenodd" d="M1291.78 415.195C1300.79 405.717 1305.18 392.757 1303.79 379.752L1299.61 340.72C1297.85 324.213 1287.05 310.057 1271.59 303.99L1260.73 299.724C1260.73 299.724 1189.04 235.445 1126.81 226.435C1064.58 217.425 964.698 222.864 921.92 237.973C879.143 253.082 780.439 311.505 780.439 311.505C780.439 311.505 719.745 322.426 693.405 332.822C676.549 339.475 658.853 350.552 648.294 357.666C642.151 361.806 638.671 368.782 638.671 376.191V388.632C638.671 393.064 636.989 397.332 633.964 400.572V400.572C627.182 407.838 623.41 417.407 623.41 427.347V429.068C623.41 452.374 641.737 471.56 665.019 472.627L921.92 484.393L1014.42 479.574L1224.03 438.742L1265.96 430.471C1275 428.687 1283.27 424.141 1289.62 417.461L1291.78 415.195Z" fill="white"/>
<mask id="mask8_801_7377" style="mask-type:alpha" maskUnits="userSpaceOnUse" x="623" y="222" width="682" height="263">
<path fill-rule="evenodd" clip-rule="evenodd" d="M1291.78 415.195C1300.79 405.717 1305.18 392.757 1303.79 379.752L1299.61 340.72C1297.85 324.213 1287.05 310.057 1271.59 303.99L1260.73 299.724C1260.73 299.724 1189.04 235.445 1126.81 226.435C1064.58 217.425 964.698 222.864 921.92 237.973C879.143 253.082 780.439 311.505 780.439 311.505C780.439 311.505 719.745 322.426 693.405 332.822C676.549 339.475 658.853 350.552 648.294 357.666C642.151 361.806 638.671 368.782 638.671 376.191V388.632C638.671 393.064 636.989 397.332 633.964 400.572V400.572C627.182 407.838 623.41 417.407 623.41 427.347V429.068C623.41 452.374 641.737 471.56 665.019 472.627L921.92 484.393L1014.42 479.574L1224.03 438.742L1265.96 430.471C1275 428.687 1283.27 424.141 1289.62 417.461L1291.78 415.195Z" fill="white"/>
</mask>
<g mask="url(#mask8_801_7377)">
<g opacity="0.2">
<rect x="590.498" y="179.081" width="740.543" height="552.677" fill="#001F3E"/>
</g>
</g>
</g>
<path fill-rule="evenodd" clip-rule="evenodd" d="M921.001 359.792L903.794 383.186C897.987 391.082 889.17 396.17 879.476 397.22L800.347 405.791C800.217 405.805 800.085 405.798 799.957 405.769C799.308 405.623 798.899 404.975 799.043 404.32L802.437 388.906C804.752 378.397 812.606 370.021 822.882 367.104L877.6 351.568C885.634 349.287 894.049 348.715 902.313 349.889L917.804 352.089C918.6 352.202 919.356 352.514 920.002 352.997C922.138 354.595 922.586 357.637 921.001 359.792ZM778.227 371.23H650.81C647.28 371.23 644.418 374.115 644.418 377.674C644.418 381.941 645.13 386.176 646.523 390.205L649.555 398.974C652.876 408.578 661.106 415.606 671.048 417.326C681.028 419.053 690.543 419.916 699.595 419.916C710.663 419.916 727.031 418.625 748.7 416.043L752.165 415.625C761.019 414.542 768.911 409.479 773.636 401.851L781.232 389.586C783.445 386.013 784.618 381.886 784.618 377.674C784.618 374.115 781.757 371.23 778.227 371.23ZM1255.53 365.21C1268.72 363.576 1281.16 371.761 1284.98 384.592C1287.99 394.691 1289.5 404.952 1289.5 415.375C1289.5 424.208 1288.19 433.041 1285.58 441.874C1280.75 458.186 1265.18 468.804 1248.37 467.254L1238.96 466.387C1229.17 465.484 1220.36 459.995 1215.19 451.564L1213.95 449.528C1211.21 445.009 1209.6 442.115 1209.12 440.846C1207.55 436.69 1212.47 434.799 1217.71 432.784C1222.83 430.818 1228.25 428.732 1228.25 424.308C1228.25 412.909 1229.15 401.239 1230.95 389.296C1232.87 376.619 1242.91 366.775 1255.53 365.21ZM979.28 390.272L975.16 390.786C961.392 392.503 950.386 403.152 948.116 416.953C945.275 434.235 943.854 451.084 943.854 467.501C943.854 473.283 936.809 476.008 930.165 478.578C923.357 481.212 916.969 483.683 919.012 489.114C919.793 491.188 922.866 496.586 928.231 505.307L929.493 507.352C934.675 515.719 943.438 521.163 953.18 522.067L969.976 523.625C991.751 525.644 1011.92 511.907 1018.19 490.783C1021.65 479.131 1023.39 467.48 1023.39 455.828C1023.39 442.131 1021.41 428.648 1017.46 415.38C1012.5 398.747 996.373 388.14 979.28 390.272Z" fill="white"/>
<mask id="mask9_801_7377" style="mask-type:alpha" maskUnits="userSpaceOnUse" x="644" y="349" width="646" height="175">
<path fill-rule="evenodd" clip-rule="evenodd" d="M921.001 359.792L903.794 383.186C897.987 391.082 889.17 396.17 879.476 397.22L800.347 405.791C800.217 405.805 800.085 405.798 799.957 405.769C799.308 405.623 798.899 404.975 799.043 404.32L802.437 388.906C804.752 378.397 812.606 370.021 822.882 367.104L877.6 351.568C885.634 349.287 894.049 348.715 902.313 349.889L917.804 352.089C918.6 352.202 919.356 352.514 920.002 352.997C922.138 354.595 922.586 357.637 921.001 359.792ZM778.227 371.23H650.81C647.28 371.23 644.418 374.115 644.418 377.674C644.418 381.941 645.13 386.176 646.523 390.205L649.555 398.974C652.876 408.578 661.106 415.606 671.048 417.326C681.028 419.053 690.543 419.916 699.595 419.916C710.663 419.916 727.031 418.625 748.7 416.043L752.165 415.625C761.019 414.542 768.911 409.479 773.636 401.851L781.232 389.586C783.445 386.013 784.618 381.886 784.618 377.674C784.618 374.115 781.757 371.23 778.227 371.23ZM1255.53 365.21C1268.72 363.576 1281.16 371.761 1284.98 384.592C1287.99 394.691 1289.5 404.952 1289.5 415.375C1289.5 424.208 1288.19 433.041 1285.58 441.874C1280.75 458.186 1265.18 468.804 1248.37 467.254L1238.96 466.387C1229.17 465.484 1220.36 459.995 1215.19 451.564L1213.95 449.528C1211.21 445.009 1209.6 442.115 1209.12 440.846C1207.55 436.69 1212.47 434.799 1217.71 432.784C1222.83 430.818 1228.25 428.732 1228.25 424.308C1228.25 412.909 1229.15 401.239 1230.95 389.296C1232.87 376.619 1242.91 366.775 1255.53 365.21ZM979.28 390.272L975.16 390.786C961.392 392.503 950.386 403.152 948.116 416.953C945.275 434.235 943.854 451.084 943.854 467.501C943.854 473.283 936.809 476.008 930.165 478.578C923.357 481.212 916.969 483.683 919.012 489.114C919.793 491.188 922.866 496.586 928.231 505.307L929.493 507.352C934.675 515.719 943.438 521.163 953.18 522.067L969.976 523.625C991.751 525.644 1011.92 511.907 1018.19 490.783C1021.65 479.131 1023.39 467.48 1023.39 455.828C1023.39 442.131 1021.41 428.648 1017.46 415.38C1012.5 398.747 996.373 388.14 979.28 390.272Z" fill="white"/>
</mask>
<g mask="url(#mask9_801_7377)">
<g opacity="0.8">
<rect x="589.294" y="172.042" width="740.543" height="593.999" fill="#001F3E"/>
</g>
</g>
<g clip-path="url(#clip4_801_7377)">
<path fill-rule="evenodd" clip-rule="evenodd" d="M1065.92 234.194C1065.92 234.194 954.634 227.59 911.857 242.699C883.73 252.634 780.439 311.505 780.439 311.505C780.439 311.505 828.788 310.794 887.588 311.505C895.613 311.602 903.397 311.731 910.89 311.854C958.307 312.638 994.094 313.23 1005.6 304.396C1012.18 299.336 1017.09 292.176 1023.41 282.949L1023.41 282.949C1028.05 276.179 1033.46 268.296 1040.84 259.312C1058.3 238.084 1065.92 234.194 1065.92 234.194ZM1086 306.832C1102.41 304.677 1119.12 302.646 1131.44 301.538C1166 298.429 1228.5 296.968 1228.5 296.968C1228.5 296.968 1164.22 234.463 1109.98 239.341C1055.74 244.218 1027.75 315.02 1027.75 315.02C1027.75 315.02 1033.86 314.104 1043.35 312.734L1051.12 305.678C1059.76 297.836 1071.07 293.591 1082.73 293.814C1084.55 293.849 1086 295.329 1086 297.143V306.832ZM1284.08 414.893C1284.08 437.358 1274.11 455.57 1261.8 455.57C1249.5 455.57 1239.53 437.358 1239.53 414.893C1239.53 392.427 1249.5 374.215 1261.8 374.215C1274.11 374.215 1284.08 392.427 1284.08 414.893ZM987.863 508.998C1004.16 508.998 1017.36 485.078 1017.36 455.571C1017.36 426.064 1004.16 402.143 987.863 402.143C971.57 402.143 958.362 426.064 958.362 455.571C958.362 485.078 971.57 508.998 987.863 508.998Z" fill="white"/>
<mask id="mask10_801_7377" style="mask-type:alpha" maskUnits="userSpaceOnUse" x="780" y="232" width="505" height="277">
<path fill-rule="evenodd" clip-rule="evenodd" d="M1065.92 234.194C1065.92 234.194 954.634 227.59 911.857 242.699C883.73 252.634 780.439 311.505 780.439 311.505C780.439 311.505 828.788 310.794 887.588 311.505C895.613 311.602 903.397 311.731 910.89 311.854C958.307 312.638 994.094 313.23 1005.6 304.396C1012.18 299.336 1017.09 292.176 1023.41 282.949L1023.41 282.949C1028.05 276.179 1033.46 268.296 1040.84 259.312C1058.3 238.084 1065.92 234.194 1065.92 234.194ZM1086 306.832C1102.41 304.677 1119.12 302.646 1131.44 301.538C1166 298.429 1228.5 296.968 1228.5 296.968C1228.5 296.968 1164.22 234.463 1109.98 239.341C1055.74 244.218 1027.75 315.02 1027.75 315.02C1027.75 315.02 1033.86 314.104 1043.35 312.734L1051.12 305.678C1059.76 297.836 1071.07 293.591 1082.73 293.814C1084.55 293.849 1086 295.329 1086 297.143V306.832ZM1284.08 414.893C1284.08 437.358 1274.11 455.57 1261.8 455.57C1249.5 455.57 1239.53 437.358 1239.53 414.893C1239.53 392.427 1249.5 374.215 1261.8 374.215C1274.11 374.215 1284.08 392.427 1284.08 414.893ZM987.863 508.998C1004.16 508.998 1017.36 485.078 1017.36 455.571C1017.36 426.064 1004.16 402.143 987.863 402.143C971.57 402.143 958.362 426.064 958.362 455.571C958.362 485.078 971.57 508.998 987.863 508.998Z" fill="white"/>
</mask>
<g mask="url(#mask10_801_7377)">
<g opacity="0.6">
<rect x="761.486" y="170.737" width="541.259" height="400.311" fill="#001F3E"/>
</g>
</g>
</g>
<path fill-rule="evenodd" clip-rule="evenodd" d="M358.89 249.341C356.732 247.465 357.27 244.708 357.255 241.495C357.239 238.339 358.036 234.431 356.366 230.756C351.095 219.158 348.643 223.477 343.052 208.28C337.462 193.083 340.731 174.298 355.207 169.853C369.683 165.408 380.827 168.486 390.321 181.367C397.64 191.298 400.057 209.684 398.813 220.345C398.435 223.586 396.984 226.009 395.468 227.392C393.602 229.094 391.91 230.3 389.967 230.999C387.239 231.98 381.274 230.999 381.274 230.999C381.274 230.999 382.197 242.152 381.274 244.91C380.351 247.668 373.827 251.713 369.683 252.301C365.539 252.889 361.049 251.218 358.89 249.341Z" fill="white"/>
<mask id="mask11_801_7377" style="mask-type:alpha" maskUnits="userSpaceOnUse" x="340" y="167" width="60" height="86">
<path fill-rule="evenodd" clip-rule="evenodd" d="M358.89 249.341C356.732 247.465 357.27 244.708 357.255 241.495C357.239 238.339 358.036 234.431 356.366 230.756C351.095 219.158 348.643 223.477 343.052 208.28C337.462 193.083 340.731 174.298 355.207 169.853C369.683 165.408 380.827 168.486 390.321 181.367C397.64 191.298 400.057 209.684 398.813 220.345C398.435 223.586 396.984 226.009 395.468 227.392C393.602 229.094 391.91 230.3 389.967 230.999C387.239 231.98 381.274 230.999 381.274 230.999C381.274 230.999 382.197 242.152 381.274 244.91C380.351 247.668 373.827 251.713 369.683 252.301C365.539 252.889 361.049 251.218 358.89 249.341Z" fill="white"/>
</mask>
<g mask="url(#mask11_801_7377)">
<rect width="73.0991" height="91.8424" transform="matrix(-1 0 0 1 409.747 166.063)" fill="#FEE0C5"/>
</g>
<mask id="mask12_801_7377" style="mask-type:alpha" maskUnits="userSpaceOnUse" x="340" y="167" width="60" height="65">
<path fill-rule="evenodd" clip-rule="evenodd" d="M350.495 221.625C352.244 223.598 354.028 225.611 356.366 230.757C356.62 231.317 359.039 222.139 357.968 210.18C357.763 207.901 356.242 206.483 354.792 205.133C352.945 203.411 351.215 201.799 352.481 198.654C353.82 195.329 357.448 197.916 360.28 199.934C362.227 201.322 363.797 202.442 363.988 201.187C364.6 197.17 362.693 189.302 362.693 189.302C362.693 189.302 369.928 187.831 379.048 186.313C388.168 184.796 391.468 183.06 391.468 183.06C391.468 183.06 391.112 182.494 390.949 182.258C390.65 181.822 390.395 181.482 390.199 181.22C390.138 181.139 390.083 181.065 390.034 180.999C389.235 179.915 388.559 179.115 388.084 178.56C387.636 178.035 387.171 177.513 386.737 177.054C384.976 175.187 383.4 173.838 382.122 172.95C380.725 171.979 379.693 171.314 378.526 170.713C377.828 170.354 377.092 170.001 376.172 169.665C376.09 169.635 376.007 169.604 375.924 169.574C374.847 169.178 373.656 168.74 371.653 168.375C368.125 167.733 365.286 167.895 362.594 168.237C360.142 168.549 357.814 169.052 355.207 169.853C340.731 174.298 337.461 193.083 343.052 208.28C346.162 216.735 348.301 219.149 350.495 221.625ZM386.585 205.586C392.851 204.336 398.546 205.586 398.546 205.586C398.546 205.586 398.861 207.861 398.975 208.876C399.254 211.355 399.187 213.24 399.135 214.684C399.131 214.796 399.127 214.905 399.124 215.012C399.117 215.212 399.111 215.411 399.104 215.61C398.965 219.861 398.834 223.88 395.903 226.921C394.7 228.17 393.528 229.103 392.309 229.847C391.555 230.308 390.788 230.74 389.967 230.999C388.552 231.445 386.89 231.54 385.375 231.477C380.663 231.281 372.224 229.02 369.713 225.08C368.789 223.631 368.328 220.947 367.586 216.622C367.497 216.108 367.405 215.572 367.308 215.012C366.883 212.564 366.143 210.44 365.545 208.722C364.669 206.204 364.096 204.561 365.265 204.053C366.027 203.723 367.349 204.98 368.915 206.469C371.211 208.654 374.032 211.337 376.376 210.233C377.722 209.599 378.608 209.002 379.441 208.441C381.048 207.358 382.457 206.409 386.585 205.586Z" fill="white"/>
</mask>
<g mask="url(#mask12_801_7377)">
<g opacity="0.538365">
<rect width="88.0937" height="76.8477" transform="matrix(-1 0 0 1 423.804 160.439)" fill="#D0ABA1"/>
</g>
</g>
<mask id="mask13_801_7377" style="mask-type:alpha" maskUnits="userSpaceOnUse" x="284" y="596" width="149" height="59">
<path fill-rule="evenodd" clip-rule="evenodd" d="M294.123 624.705L309.297 605.5L295.258 596.151L284.021 613.507L294.123 624.705ZM432.608 654.05L429.424 629.605L413.506 633.821L418.045 654.05H432.608Z" fill="white"/>
</mask>
<g mask="url(#mask13_801_7377)">
<rect width="214.665" height="95.9004" transform="matrix(-1 0 0 1 461.715 573.193)" fill="#FED0C1"/>
</g>
<path fill-rule="evenodd" clip-rule="evenodd" d="M396.367 378.572L432.608 632.898L410.836 637.127L334.371 378.572H396.367Z" fill="white"/>
<mask id="mask14_801_7377" style="mask-type:alpha" maskUnits="userSpaceOnUse" x="334" y="378" width="99" height="260">
<path fill-rule="evenodd" clip-rule="evenodd" d="M396.367 378.572L432.608 632.898L410.836 637.127L334.371 378.572H396.367Z" fill="white"/>
</mask>
<g mask="url(#mask14_801_7377)">
<g opacity="0.6">
<rect width="112.79" height="279.239" transform="matrix(-1 0 0 1 474.449 368.229)" fill="#005478"/>
</g>
</g>
<path fill-rule="evenodd" clip-rule="evenodd" d="M388.038 378.572C388.038 378.572 382.044 503.647 374.548 514.801C367.052 525.955 307.499 608.921 307.499 608.921L287.982 595.602C287.982 595.602 327.386 517.394 331.582 503.388C335.777 489.383 331.582 378.572 331.582 378.572H388.038Z" fill="white"/>
<mask id="mask15_801_7377" style="mask-type:alpha" maskUnits="userSpaceOnUse" x="287" y="378" width="102" height="231">
<path fill-rule="evenodd" clip-rule="evenodd" d="M388.038 378.572C388.038 378.572 382.044 503.647 374.548 514.801C367.052 525.955 307.499 608.921 307.499 608.921L287.982 595.602C287.982 595.602 327.386 517.394 331.582 503.388C335.777 489.383 331.582 378.572 331.582 378.572H388.038Z" fill="white"/>
</mask>
<g mask="url(#mask15_801_7377)">
<g opacity="0.4">
<rect width="170.095" height="283.94" transform="matrix(-1 0 0 1 396.224 362.588)" fill="#005478"/>
</g>
</g>
<mask id="mask16_801_7377" style="mask-type:alpha" maskUnits="userSpaceOnUse" x="406" y="283" width="64" height="24">
<path fill-rule="evenodd" clip-rule="evenodd" d="M406.121 288.173L445.026 289.061C453.311 286.065 460.771 284.331 467.406 283.858C469.215 284.091 471.977 285.195 467.151 288.048C462.325 290.9 457.377 294.118 457.839 296.122C458.302 298.127 462.382 298.055 462.581 301.057C462.714 303.058 456.223 302.35 443.107 298.933L410.278 306.186L406.121 288.173Z" fill="white"/>
</mask>
<g mask="url(#mask16_801_7377)">
<rect width="80.5485" height="49.5683" transform="matrix(-1 0 0 1 507.852 278.042)" fill="#FED0C1"/>
</g>
<mask id="mask17_801_7377" style="mask-type:alpha" maskUnits="userSpaceOnUse" x="457" y="268" width="30" height="49">
<path fill-rule="evenodd" clip-rule="evenodd" d="M485.438 278.873L474.884 269.073C474.167 268.408 473.047 268.449 472.382 269.166C472.256 269.3 472.153 269.454 472.075 269.621L457.349 301.144C456.923 302.054 457.049 303.127 457.672 303.915L466.963 315.656C467.57 316.422 468.683 316.552 469.45 315.945C469.66 315.779 469.829 315.567 469.946 315.326L486.024 281.972C486.53 280.923 486.292 279.666 485.438 278.873Z" fill="white"/>
</mask>
<g mask="url(#mask17_801_7377)">
<rect width="42.4871" height="65.501" transform="matrix(-1 0 0 1 490.416 261.224)" fill="#001F3E"/>
</g>
<mask id="mask18_801_7377" style="mask-type:alpha" maskUnits="userSpaceOnUse" x="424" y="296" width="68" height="34">
<path fill-rule="evenodd" clip-rule="evenodd" d="M427.959 310.035C427.959 310.035 439.145 309.195 446.083 308.449C451.971 307.816 465.769 306.727 465.769 306.727C465.769 306.727 470.86 295.848 473.332 296.419C475.804 296.99 472.343 302.709 474.476 304.595C475.045 305.098 477.214 304.899 481.817 302.927C486.419 300.955 489.049 297.412 490.827 298.44C493.069 299.737 488.478 308.791 483.765 311.529C479.639 313.926 469.09 315.577 469.09 315.577C469.09 315.577 424.58 329.47 424.58 329.47C424.58 329.47 427.959 310.035 427.959 310.035Z" fill="white"/>
</mask>
<g mask="url(#mask18_801_7377)">
<rect width="80.5485" height="49.5683" transform="matrix(-1 0 0 1 507.853 278.042)" fill="#FED0C1"/>
</g>
<path fill-rule="evenodd" clip-rule="evenodd" d="M376.986 244.121L376.041 241.354C376.041 241.354 375.057 243.88 370.489 243.88C370.487 243.88 370.483 243.88 370.477 243.881C370.245 243.883 367.401 243.907 364.002 242.386C362.045 241.51 357.639 238.179 357.639 238.179C357.639 238.179 340.276 247.62 334.578 259.028C328.88 270.435 315.775 389.57 315.775 389.57H402.362L400.408 346.114L465.365 322.466L459.631 300.548H439.262L439.423 287.073L402.334 281.42C402.334 281.42 383.062 251.021 376.986 244.121Z" fill="white"/>
<mask id="mask19_801_7377" style="mask-type:alpha" maskUnits="userSpaceOnUse" x="315" y="238" width="151" height="152">
<path fill-rule="evenodd" clip-rule="evenodd" d="M376.986 244.121L376.041 241.354C376.041 241.354 375.057 243.88 370.489 243.88C370.487 243.88 370.483 243.88 370.477 243.881C370.245 243.883 367.401 243.907 364.002 242.386C362.045 241.51 357.639 238.179 357.639 238.179C357.639 238.179 340.276 247.62 334.578 259.028C328.88 270.435 315.775 389.57 315.775 389.57H402.362L400.408 346.114L465.365 322.466L459.631 300.548H439.262L439.423 287.073L402.334 281.42C402.334 281.42 383.062 251.021 376.986 244.121Z" fill="white"/>
</mask>
<g mask="url(#mask19_801_7377)">
<g opacity="0.4">
<rect width="165.523" height="189.422" transform="matrix(-1 0 0 1 445.007 221.392)" fill="#FAA000"/>
</g>
</g>
<path fill-rule="evenodd" clip-rule="evenodd" d="M379.153 306.12L370.489 243.88C370.489 243.88 365.188 242.283 363.055 241.294C360.922 240.305 357.81 237.324 357.81 237.324C357.81 237.324 341.429 243.79 337.406 249.573C333.383 255.357 291.081 422.979 291.081 422.979H379.153L380.879 353.801L390.342 350.513L401.131 423.08H423.878L410.924 343.363L470.676 322.605L461.491 297.892L443.861 299.654V282.437L403.326 275.829L375.996 241.354C375.996 241.354 375.903 241.848 375.342 242.403C374.782 242.957 374.374 243.109 374.374 243.109L383.675 305.668L379.153 306.12Z" fill="white"/>
<mask id="mask20_801_7377" style="mask-type:alpha" maskUnits="userSpaceOnUse" x="291" y="237" width="180" height="187">
<path fill-rule="evenodd" clip-rule="evenodd" d="M379.153 306.12L370.489 243.88C370.489 243.88 365.188 242.283 363.055 241.294C360.922 240.305 357.81 237.324 357.81 237.324C357.81 237.324 341.429 243.79 337.406 249.573C333.383 255.357 291.081 422.979 291.081 422.979H379.153L380.879 353.801L390.342 350.513L401.131 423.08H423.878L410.924 343.363L470.676 322.605L461.491 297.892L443.861 299.654V282.437L403.326 275.829L375.996 241.354C375.996 241.354 375.903 241.848 375.342 242.403C374.782 242.957 374.374 243.109 374.374 243.109L383.675 305.668L379.153 306.12Z" fill="white"/>
</mask>
<g mask="url(#mask20_801_7377)">
<g opacity="0.8">
<rect width="239.875" height="202.699" transform="matrix(1 0 0 -1 263.552 428.517)" fill="#FF0000"/>
</g>
</g>
<mask id="mask21_801_7377" style="mask-type:alpha" maskUnits="userSpaceOnUse" x="315" y="262" width="92" height="92">
<path fill-rule="evenodd" clip-rule="evenodd" d="M393.263 262.146L402.929 303.464H406.105L393.263 262.146ZM379.154 306.12L353.037 296.629L356.734 293.176L379.154 306.12ZM315.515 334.741L317.798 327.891L380.13 353.822L315.515 334.741Z" fill="white"/>
</mask>
<g mask="url(#mask21_801_7377)">
<rect width="128.346" height="145.164" transform="matrix(-1 0 0 1 431.73 234.669)" fill="#CF2727"/>
</g>
<path fill-rule="evenodd" clip-rule="evenodd" d="M422.163 653.024C418.364 652.097 414.023 653.451 413.118 657.256C412.891 658.212 412.742 659.1 412.742 659.788C412.742 662.704 413.711 668.296 413.711 668.296C417.086 668.296 474.368 668.296 474.368 668.296C474.368 668.296 474.736 660.413 469.642 659.788C465.55 659.287 445.016 650.477 437.095 647.03C435.375 646.282 433.383 647.094 432.67 648.829L431.738 651.094C431.738 651.094 427.022 653.299 424.074 653.299C423.516 653.299 422.86 653.194 422.163 653.024Z" fill="#CEC6C6"/>
<mask id="mask22_801_7377" style="mask-type:alpha" maskUnits="userSpaceOnUse" x="412" y="646" width="63" height="23">
<path fill-rule="evenodd" clip-rule="evenodd" d="M422.163 653.024C418.364 652.097 414.023 653.451 413.118 657.256C412.891 658.212 412.742 659.1 412.742 659.788C412.742 662.704 413.711 668.296 413.711 668.296C417.086 668.296 474.368 668.296 474.368 668.296C474.368 668.296 474.736 660.413 469.642 659.788C465.55 659.287 445.016 650.477 437.095 647.03C435.375 646.282 433.383 647.094 432.67 648.829L431.738 651.094C431.738 651.094 427.022 653.299 424.074 653.299C423.516 653.299 422.86 653.194 422.163 653.024Z" fill="white"/>
</mask>
<g mask="url(#mask22_801_7377)">
<g opacity="0.1">
<rect width="83.4079" height="44.984" transform="matrix(-1 0 0 1 489.388 633.481)" fill="#001F3E"/>
</g>
</g>
<path fill-rule="evenodd" clip-rule="evenodd" d="M287.121 614.387C285.033 611.081 280.969 609.04 277.676 611.148C276.848 611.678 276.124 612.214 275.646 612.709C273.621 614.806 270.433 619.502 270.433 619.502C272.861 621.846 314.066 661.638 314.066 661.638C314.066 661.638 319.807 656.223 316.577 652.235C313.982 649.031 305.33 628.43 302.026 620.448C301.309 618.715 299.312 617.916 297.594 618.668L295.35 619.65C295.35 619.65 290.426 617.96 288.305 615.912C287.904 615.525 287.505 614.994 287.121 614.387Z" fill="#CEC6C6"/>
<mask id="mask23_801_7377" style="mask-type:alpha" maskUnits="userSpaceOnUse" x="270" y="610" width="48" height="52">
<path fill-rule="evenodd" clip-rule="evenodd" d="M287.121 614.387C285.033 611.081 280.969 609.04 277.676 611.148C276.848 611.678 276.124 612.214 275.646 612.709C273.621 614.806 270.433 619.502 270.433 619.502C272.861 621.846 314.066 661.638 314.066 661.638C314.066 661.638 319.807 656.223 316.577 652.235C313.982 649.031 305.33 628.43 302.026 620.448C301.309 618.715 299.312 617.916 297.594 618.668L295.35 619.65C295.35 619.65 290.426 617.96 288.305 615.912C287.904 615.525 287.505 614.994 287.121 614.387Z" fill="white"/>
</mask>
<g mask="url(#mask23_801_7377)">
<g opacity="0.1">
<rect width="83.4079" height="44.984" transform="matrix(-0.71934 -0.694658 -0.694658 0.71934 349.055 647.027)" fill="#001F3E"/>
</g>
</g>
</g>
<path d="M580.867 566.876L560.536 566.772L560.476 556.132L591.924 556.295L592.087 586.395L580.97 586.336L580.867 566.876Z" fill="#979797"/>
<mask id="mask24_801_7377" style="mask-type:alpha" maskUnits="userSpaceOnUse" x="560" y="556" width="33" height="31">
<path d="M580.867 566.876L560.536 566.772L560.476 556.132L591.924 556.295L592.087 586.395L580.97 586.336L580.867 566.876Z" fill="white"/>
</mask>
<g mask="url(#mask24_801_7377)">
<rect x="576.031" y="382.904" width="266.972" height="255.193" transform="rotate(45 576.031 382.904)" fill="#D73400"/>
</g>
<path d="M660.786 533.173L643.507 526.717L646.945 517.01L673.671 527L663.94 554.456L654.493 550.923L660.786 533.173Z" fill="#979797"/>
<mask id="mask25_801_7377" style="mask-type:alpha" maskUnits="userSpaceOnUse" x="643" y="517" width="31" height="38">
<path d="M660.786 533.173L643.507 526.717L646.945 517.01L673.671 527L663.94 554.456L654.493 550.923L660.786 533.173Z" fill="white"/>
</mask>
<g mask="url(#mask25_801_7377)">
<rect x="721.358" y="371.829" width="241.274" height="247.902" transform="rotate(65 721.358 371.829)" fill="#D73400"/>
</g>
<path d="M531.041 633.763L511.22 638.142L508.717 627.782L539.378 621.01L546.451 650.32L535.613 652.712L531.041 633.763Z" fill="#979797"/>
<mask id="mask26_801_7377" style="mask-type:alpha" maskUnits="userSpaceOnUse" x="508" y="621" width="39" height="32">
<path d="M531.041 633.763L511.22 638.142L508.717 627.782L539.378 621.01L546.451 650.32L535.613 652.712L531.041 633.763Z" fill="white"/>
</mask>
<g mask="url(#mask26_801_7377)">
<rect x="484.949" y="455.591" width="266.972" height="255.193" transform="rotate(32 484.949 455.591)" fill="#D73400"/>
</g>
</g>
</g>
<defs>
<clipPath id="clip0_801_7377">
<rect width="1077.9" height="778.48" fill="white"/>
</clipPath>
<clipPath id="clip1_801_7377">
<rect width="83.3965" height="110.083" fill="white" transform="translate(682.615 396.073)"/>
</clipPath>
<clipPath id="clip2_801_7377">
<rect width="46.7021" height="83.3965" fill="white" transform="translate(713.32 407.608)"/>
</clipPath>
<clipPath id="clip3_801_7377">
<rect width="683.852" height="263.533" fill="white" transform="translate(623.01 221.827)"/>
</clipPath>
<clipPath id="clip4_801_7377">
<rect width="507.051" height="276.876" fill="white" transform="translate(780.15 232.148)"/>
</clipPath>
</defs>
</svg>
