<svg width="172" height="172" viewBox="0 0 172 172" fill="none" xmlns="http://www.w3.org/2000/svg">
<mask id="mask0_1460_45607" style="mask-type:luminance" maskUnits="userSpaceOnUse" x="0" y="0" width="172" height="172">
<rect width="172" height="172" fill="white"/>
</mask>
<g mask="url(#mask0_1460_45607)">
<mask id="mask1_1460_45607" style="mask-type:luminance" maskUnits="userSpaceOnUse" x="-1" y="-1" width="173" height="173">
<rect x="-0.143555" y="-0.511719" width="172" height="172" fill="white"/>
</mask>
<g mask="url(#mask1_1460_45607)">
<g opacity="0.07">
<path fill-rule="evenodd" clip-rule="evenodd" d="M67.4014 120.282C67.4014 120.282 48.5728 34.8268 79.6098 24.1736C110.647 13.5204 114.466 19.1096 153.336 27.0312C192.206 34.9528 203.981 56.6551 224.134 56.6551C244.287 56.6551 268.305 50.1354 274.446 78.3168C280.588 106.498 255.967 120.128 255.967 120.128L67.4014 120.282Z" fill="white"/>
<mask id="mask2_1460_45607" style="mask-type:luminance" maskUnits="userSpaceOnUse" x="61" y="18" width="215" height="103">
<path fill-rule="evenodd" clip-rule="evenodd" d="M67.4014 120.282C67.4014 120.282 48.5728 34.8268 79.6098 24.1736C110.647 13.5204 114.466 19.1096 153.336 27.0312C192.206 34.9528 203.981 56.6551 224.134 56.6551C244.287 56.6551 268.305 50.1354 274.446 78.3168C280.588 106.498 255.967 120.128 255.967 120.128L67.4014 120.282Z" fill="white"/>
</mask>
<g mask="url(#mask2_1460_45607)">
<rect x="42.0361" y="18.2949" width="239.172" height="101.942" fill="#0AA1E2"/>
</g>
<path fill-rule="evenodd" clip-rule="evenodd" d="M87.8491 133.201C51.8504 139.986 70.5651 149.478 82.7446 155.345C94.9242 161.212 117.164 166.724 143.564 162.269C169.965 157.814 162.316 149.424 173.712 146.081C185.108 142.737 192.988 146.963 216.828 140.775C240.668 134.588 228.593 129.692 185.588 127.167C142.582 124.641 123.848 126.415 87.8491 133.201Z" fill="white"/>
<mask id="mask3_1460_45607" style="mask-type:luminance" maskUnits="userSpaceOnUse" x="66" y="126" width="163" height="38">
<path fill-rule="evenodd" clip-rule="evenodd" d="M87.8491 133.201C51.8504 139.986 70.5651 149.478 82.7446 155.345C94.9242 161.212 117.164 166.724 143.564 162.269C169.965 157.814 162.316 149.424 173.712 146.081C185.108 142.737 192.988 146.963 216.828 140.775C240.668 134.588 228.593 129.692 185.588 127.167C142.582 124.641 123.848 126.415 87.8491 133.201Z" fill="white"/>
</mask>
<g mask="url(#mask3_1460_45607)">
<rect x="42.0361" y="68.959" width="239.172" height="101.942" fill="#0AA1E2"/>
</g>
</g>
<path fill-rule="evenodd" clip-rule="evenodd" d="M53.0204 123.05H37.9961V134.413C37.9961 138.562 41.3594 141.925 45.5082 141.925C49.6571 141.925 53.0204 138.562 53.0204 134.413V123.05ZM159.205 123.05H144.181V134.413C144.181 138.562 147.544 141.925 151.693 141.925C155.842 141.925 159.205 138.562 159.205 134.413V123.05Z" fill="white"/>
<mask id="mask4_1460_45607" style="mask-type:luminance" maskUnits="userSpaceOnUse" x="37" y="123" width="123" height="19">
<path fill-rule="evenodd" clip-rule="evenodd" d="M53.0204 123.05H37.9961V134.413C37.9961 138.562 41.3594 141.925 45.5082 141.925C49.6571 141.925 53.0204 138.562 53.0204 134.413V123.05ZM159.205 123.05H144.181V134.413C144.181 138.562 147.544 141.925 151.693 141.925C155.842 141.925 159.205 138.562 159.205 134.413V123.05Z" fill="white"/>
</mask>
<g mask="url(#mask4_1460_45607)">
<g opacity="0.8">
<rect x="-11.543" y="36.1821" width="220.897" height="111.223" fill="#001F3E"/>
</g>
</g>
<g clip-path="url(#clip0_1460_45607)">
<path fill-rule="evenodd" clip-rule="evenodd" d="M54.3643 65.0842C61.4519 50.7815 76.0346 41.7329 91.9971 41.7329H105.899C121.807 41.7329 136.35 50.7203 143.464 64.9483L146.649 71.3162C154.697 79.2578 159.227 90.0931 159.227 101.4V112.531C159.227 121.368 152.064 128.531 143.227 128.531H53.9219C45.0853 128.531 37.9219 121.368 37.9219 112.531V102.921C37.9219 91.5104 42.3547 80.546 50.285 72.3415L51.276 71.3162L54.3643 65.0842Z" fill="white"/>
<mask id="mask5_1460_45607" style="mask-type:luminance" maskUnits="userSpaceOnUse" x="37" y="41" width="123" height="88">
<path fill-rule="evenodd" clip-rule="evenodd" d="M54.3643 65.0842C61.4519 50.7815 76.0346 41.7329 91.9971 41.7329H105.899C121.807 41.7329 136.35 50.7203 143.464 64.9483L146.649 71.3162C154.697 79.2578 159.227 90.0931 159.227 101.4V112.531C159.227 121.368 152.064 128.531 143.227 128.531H53.9219C45.0853 128.531 37.9219 121.368 37.9219 112.531V102.921C37.9219 91.5104 42.3547 80.546 50.285 72.3415L51.276 71.3162L54.3643 65.0842Z" fill="white"/>
</mask>
<g mask="url(#mask5_1460_45607)">
<g opacity="0.2">
<rect x="-160.207" y="5.66211" width="571" height="194" fill="#001F3E"/>
</g>
</g>
</g>
<path fill-rule="evenodd" clip-rule="evenodd" d="M91.9975 41.7329C76.035 41.7329 61.4523 50.7815 54.3647 65.0842L51.2765 71.3162H146.649L143.465 64.9483C136.35 50.7203 121.808 41.7329 105.9 41.7329H91.9975ZM50.1782 67.2635C50.1782 63.4511 47.0876 60.3605 43.2751 60.3605H42.258C39.0073 60.3605 36.3721 62.9957 36.3721 66.2464C36.3721 69.4971 39.0073 72.1323 42.258 72.1323H50.1782V67.2635ZM154.333 60.3605C150.52 60.3605 147.43 63.4511 147.43 67.2635V72.1323H155.35C158.601 72.1323 161.236 69.4971 161.236 66.2464C161.236 62.9957 158.601 60.3605 155.35 60.3605H154.333ZM51.0297 93.3233C55.4245 93.3233 58.9872 89.5518 58.9872 84.8993C58.9872 80.2469 55.4245 76.4754 51.0297 76.4754C46.6348 76.4754 43.0721 80.2469 43.0721 84.8993C43.0721 89.5518 46.6348 93.3233 51.0297 93.3233ZM57.3447 109.812C56.5602 107.829 56.7875 105.588 57.9542 103.803L61.1492 98.9135C64.4456 93.8692 70.0647 90.8287 76.0905 90.8287H121.692C127.837 90.8287 133.533 94.0496 136.7 99.3157L139.431 103.856C140.491 105.619 140.678 107.772 139.939 109.691C138.948 112.266 136.473 113.964 133.715 113.964H63.4525C60.7575 113.964 58.336 112.318 57.3447 109.812ZM138.293 85.1983C138.293 89.8508 141.856 93.6223 146.251 93.6223C150.646 93.6223 154.209 89.8508 154.209 85.1983C154.209 80.5459 150.646 76.7744 146.251 76.7744C141.856 76.7744 138.293 80.5459 138.293 85.1983Z" fill="white"/>
<mask id="mask6_1460_45607" style="mask-type:luminance" maskUnits="userSpaceOnUse" x="36" y="41" width="126" height="73">
<path fill-rule="evenodd" clip-rule="evenodd" d="M91.9975 41.7329C76.035 41.7329 61.4523 50.7815 54.3647 65.0842L51.2765 71.3162H146.649L143.465 64.9483C136.35 50.7203 121.808 41.7329 105.9 41.7329H91.9975ZM50.1782 67.2635C50.1782 63.4511 47.0876 60.3605 43.2751 60.3605H42.258C39.0073 60.3605 36.3721 62.9957 36.3721 66.2464C36.3721 69.4971 39.0073 72.1323 42.258 72.1323H50.1782V67.2635ZM154.333 60.3605C150.52 60.3605 147.43 63.4511 147.43 67.2635V72.1323H155.35C158.601 72.1323 161.236 69.4971 161.236 66.2464C161.236 62.9957 158.601 60.3605 155.35 60.3605H154.333ZM51.0297 93.3233C55.4245 93.3233 58.9872 89.5518 58.9872 84.8993C58.9872 80.2469 55.4245 76.4754 51.0297 76.4754C46.6348 76.4754 43.0721 80.2469 43.0721 84.8993C43.0721 89.5518 46.6348 93.3233 51.0297 93.3233ZM57.3447 109.812C56.5602 107.829 56.7875 105.588 57.9542 103.803L61.1492 98.9135C64.4456 93.8692 70.0647 90.8287 76.0905 90.8287H121.692C127.837 90.8287 133.533 94.0496 136.7 99.3157L139.431 103.856C140.491 105.619 140.678 107.772 139.939 109.691C138.948 112.266 136.473 113.964 133.715 113.964H63.4525C60.7575 113.964 58.336 112.318 57.3447 109.812ZM138.293 85.1983C138.293 89.8508 141.856 93.6223 146.251 93.6223C150.646 93.6223 154.209 89.8508 154.209 85.1983C154.209 80.5459 150.646 76.7744 146.251 76.7744C141.856 76.7744 138.293 80.5459 138.293 85.1983Z" fill="white"/>
</mask>
<g mask="url(#mask6_1460_45607)">
<g opacity="0.6">
<rect x="-11.543" y="36.1821" width="220.897" height="111.223" fill="#001F3E"/>
</g>
</g>
<path fill-rule="evenodd" clip-rule="evenodd" d="M53.1189 67.6229C60.2265 53.3751 74.7797 44.3716 90.702 44.3716H107.205C123.067 44.3716 137.576 53.3083 144.713 67.4744L146.649 71.3164C146.649 71.3164 114.223 71.3164 98.0935 71.3164C81.9641 71.3164 51.2764 71.3164 51.2764 71.3164L53.1189 67.6229Z" fill="white"/>
<mask id="mask7_1460_45607" style="mask-type:luminance" maskUnits="userSpaceOnUse" x="51" y="44" width="96" height="28">
<path fill-rule="evenodd" clip-rule="evenodd" d="M53.1189 67.6229C60.2265 53.3751 74.7797 44.3716 90.702 44.3716H107.205C123.067 44.3716 137.576 53.3083 144.713 67.4744L146.649 71.3164C146.649 71.3164 114.223 71.3164 98.0935 71.3164C81.9641 71.3164 51.2764 71.3164 51.2764 71.3164L53.1189 67.6229Z" fill="white"/>
</mask>
<g mask="url(#mask7_1460_45607)">
<g opacity="0.6">
<rect x="17.4902" y="38.4146" width="163.034" height="49.1169" fill="#001F3E"/>
</g>
</g>
<path fill-rule="evenodd" clip-rule="evenodd" d="M31.3874 67.9463C27.7922 67.9463 22.0518 77.7999 22.0518 95.7147C22.0518 113.63 34.9826 128.544 34.9826 128.544L30.7207 194.541L57.4572 193.304L59.835 121.946C59.835 121.946 45.8652 126.917 44.0202 124.754C40.3648 120.469 41.0332 116.736 41.785 112.338C43.6738 101.288 31.3874 90.9143 31.3874 90.9143C31.3874 90.9143 30.7207 84.0691 30.7207 80.9292C30.7207 78.1864 34.9826 67.9463 31.3874 67.9463Z" fill="#EDB98A"/>
<path fill-rule="evenodd" clip-rule="evenodd" d="M74.4704 63.6353C76.0899 62.0233 78.7098 62.0256 80.325 63.6419C81.9447 65.2627 81.9402 67.8914 80.3162 69.508C78.6968 71.12 76.0769 71.1176 74.4617 69.5013C72.842 67.8806 72.8465 65.2518 74.4704 63.6353Z" fill="#EDB98A"/>
<path d="M21.8916 49.9568C20.853 46.3176 22.9556 42.5243 26.5922 41.4765L56.787 32.7769C60.4366 31.7254 64.2464 33.8372 65.2887 37.4894L84.9773 106.481C86.0159 110.12 83.9132 113.913 80.2767 114.961L50.0819 123.66C46.4323 124.712 42.6225 122.6 41.5802 118.948L21.8916 49.9568Z" fill="#005478"/>
<path d="M21.8916 49.9568C20.853 46.3176 22.9556 42.5243 26.5922 41.4765L56.787 32.7769C60.4366 31.7254 64.2464 33.8372 65.2887 37.4894L84.9773 106.481C86.0159 110.12 83.9132 113.913 80.2767 114.961L50.0819 123.66C46.4323 124.712 42.6225 122.6 41.5802 118.948L21.8916 49.9568Z" fill="#3DD690"/>
<path d="M21.8916 49.9568C20.853 46.3176 22.9556 42.5243 26.5922 41.4765L56.787 32.7769C60.4366 31.7254 64.2464 33.8372 65.2887 37.4894L84.9773 106.481C86.0159 110.12 83.9132 113.913 80.2767 114.961L50.0819 123.66C46.4323 124.712 42.6225 122.6 41.5802 118.948L21.8916 49.9568Z" stroke="#363636" stroke-width="3.31401"/>
<mask id="mask8_1460_45607" style="mask-type:luminance" maskUnits="userSpaceOnUse" x="19" y="30" width="68" height="96">
<path d="M21.8916 49.9568C20.853 46.3176 22.9556 42.5243 26.5922 41.4765L56.787 32.7769C60.4366 31.7254 64.2464 33.8372 65.2887 37.4894L84.9773 106.481C86.0159 110.12 83.9132 113.913 80.2767 114.961L50.0819 123.66C46.4323 124.712 42.6225 122.6 41.5802 118.948L21.8916 49.9568Z" fill="white"/>
<path d="M21.8916 49.9568C20.853 46.3176 22.9556 42.5243 26.5922 41.4765L56.787 32.7769C60.4366 31.7254 64.2464 33.8372 65.2887 37.4894L84.9773 106.481C86.0159 110.12 83.9132 113.913 80.2767 114.961L50.0819 123.66C46.4323 124.712 42.6225 122.6 41.5802 118.948L21.8916 49.9568Z" stroke="white" stroke-width="3.31401"/>
</mask>
<g mask="url(#mask8_1460_45607)">
</g>
<path fill-rule="evenodd" clip-rule="evenodd" d="M29.1354 40.696C28.9205 39.9431 29.3556 39.1583 30.108 38.9415L51.89 32.6657C52.6451 32.4481 53.4333 32.885 53.649 33.6407L54.1207 35.2936C54.5504 36.7995 53.6804 38.3691 52.1756 38.8027L33.1231 44.292C31.6129 44.7271 30.0364 43.8533 29.6051 42.342L29.1354 40.696Z" fill="#363636"/>
<path fill-rule="evenodd" clip-rule="evenodd" d="M32.0894 67.9463C28.2238 67.9463 22.0518 77.737 22.0518 95.5374C22.0518 113.338 35.9549 128.157 35.9549 128.157C35.9549 128.157 39.9097 124.624 40.8115 122.893C43.7724 117.206 43.2688 114.695 43.2688 112.054C43.2688 99.6811 32.6765 90.8081 32.6765 90.8081C32.6765 90.8081 31.3726 83.9662 31.3726 80.8463C31.3726 78.121 35.9549 67.9463 32.0894 67.9463Z" fill="#EDB98A"/>
<path fill-rule="evenodd" clip-rule="evenodd" d="M59.835 133.476H34.5486C34.5486 133.476 27.7751 154.079 26.874 178.036C26.2593 194.378 39.7302 209.592 56.0839 209.592H60.4648L59.835 133.476Z" fill="#363636"/>
<path fill-rule="evenodd" clip-rule="evenodd" d="M76.9118 70.6646C78.5313 69.0526 81.1512 69.0549 82.7664 70.6712C84.3861 72.292 84.3816 74.9207 82.7576 76.5372C81.1382 78.1493 78.5183 78.1469 76.9031 76.5306C75.2834 74.9099 75.2879 72.2811 76.9118 70.6646Z" fill="#EDB98A"/>
<path fill-rule="evenodd" clip-rule="evenodd" d="M79.0739 77.4537C80.6934 75.8416 83.3133 75.844 84.9285 77.4603C86.5482 79.081 86.5437 81.7098 84.9197 83.3263C83.3003 84.9384 80.6804 84.936 79.0652 83.3197C77.4455 81.6989 77.45 79.0702 79.0739 77.4537Z" fill="#EDB98A"/>
<path fill-rule="evenodd" clip-rule="evenodd" d="M80.9157 83.9024C82.5352 82.2904 85.1551 82.2927 86.7703 83.909C88.39 85.5298 88.3855 88.1585 86.7615 89.775C85.1421 91.3871 82.5222 91.3847 80.907 89.7684C79.2873 88.1477 79.2918 85.5189 80.9157 83.9024Z" fill="#EDB98A"/>
</g>
</g>
<path d="M60.0236 73.057C58.8365 69.1751 54.7274 66.9905 50.8455 68.1775C46.9637 69.3646 44.7791 73.4737 45.9661 77.3556L46.5802 79.3638L44.572 79.9779L48.5635 93.0312L60.6128 89.3467L59.9987 87.3385L49.9577 90.4089L47.1943 81.372L61.2517 77.0734L64.6292 88.1185L66.6374 87.5044L62.6459 74.4511L60.6376 75.0652L60.0236 73.057ZM58.6294 75.6792L48.5884 78.7497L47.9743 76.7415C47.1264 73.9687 48.6869 71.0336 51.4596 70.1857C54.2324 69.3379 57.1675 70.8983 58.0153 73.671L58.6294 75.6792Z" fill="white"/>
<path d="M56.8337 84.1695C57.3278 83.6388 57.5332 82.8663 57.3059 82.123C56.9667 81.0138 55.7927 80.3897 54.6836 80.7288C53.5745 81.068 52.9503 82.242 53.2894 83.3511C53.5167 84.0944 54.119 84.6199 54.8255 84.7836L55.5217 87.0605L57.5299 86.4464L56.8337 84.1695Z" fill="white"/>
<defs>
<clipPath id="clip0_1460_45607">
<rect width="121.615" height="87.0708" fill="white" transform="translate(37.793 41.6621)"/>
</clipPath>
</defs>
</svg>
