<svg width="120" height="120" viewBox="0 0 120 120" fill="none" xmlns="http://www.w3.org/2000/svg">
<mask id="mask0_2774_19475" style="mask-type:luminance" maskUnits="userSpaceOnUse" x="0" y="0" width="120" height="120">
<rect width="120" height="120" fill="white"/>
</mask>
<g mask="url(#mask0_2774_19475)">
<path fill-rule="evenodd" clip-rule="evenodd" d="M26.6332 76.6017C26.6332 76.6017 13.6061 18.1743 35.0799 10.8905C56.5536 3.60663 59.1964 7.42809 86.0895 12.8443C112.983 18.2604 121.129 33.0988 135.073 33.0988C149.016 33.0988 165.634 28.6411 169.883 47.9093C174.132 67.1776 157.097 76.4967 157.097 76.4967L26.6332 76.6017Z" fill="white"/>
<mask id="mask1_2774_19475" style="mask-type:luminance" maskUnits="userSpaceOnUse" x="22" y="6" width="149" height="71">
<path fill-rule="evenodd" clip-rule="evenodd" d="M26.6332 76.6017C26.6332 76.6017 13.6061 18.1743 35.0799 10.8905C56.5536 3.60663 59.1964 7.42809 86.0895 12.8443C112.983 18.2604 121.129 33.0988 135.073 33.0988C149.016 33.0988 165.634 28.6411 169.883 47.9093C174.132 67.1776 157.097 76.4967 157.097 76.4967L26.6332 76.6017Z" fill="white"/>
</mask>
<g mask="url(#mask1_2774_19475)">
<rect x="9.08325" y="6.87109" width="165.477" height="69.7001" fill="#E2F1F8"/>
</g>
<mask id="mask2_2774_19475" style="mask-type:luminance" maskUnits="userSpaceOnUse" x="26" y="80" width="113" height="27">
<path fill-rule="evenodd" clip-rule="evenodd" d="M40.7806 85.435C15.8739 90.0744 28.8222 96.5642 37.2489 100.575C45.6757 104.587 61.0626 108.356 79.3286 105.31C97.5946 102.264 92.3024 96.5273 100.187 94.2414C108.072 91.9555 113.524 94.8446 130.018 90.6141C146.513 86.3835 138.158 83.0363 108.404 81.3094C78.6491 79.5825 65.6873 80.7956 40.7806 85.435Z" fill="white"/>
</mask>
<g mask="url(#mask2_2774_19475)">
<rect width="165.477" height="69.7001" transform="translate(9.08325 41.5117)" fill="#CFE8E7"/>
</g>
<g clip-path="url(#clip0_2774_19475)">
<path fill-rule="evenodd" clip-rule="evenodd" d="M43.7548 76.3256C44.4151 74.9009 45.7242 73.9003 47.2595 73.5709C51.2612 72.7125 55.463 74.4213 56.7841 78.2949C57.3528 79.9625 57.8277 81.8488 57.998 83.7954C58.1482 85.5114 58.0091 87.2527 57.7312 88.8705C56.9159 93.6158 52.3256 96.3506 47.5108 96.3255C45.4114 96.3146 43.4325 95.3185 42.2192 93.6053C41.5461 92.6549 40.9211 91.7418 40.7647 91.4156C39.9035 89.6196 40.7035 85.1647 41.4777 82.1625C41.9198 80.4479 42.9513 78.0591 43.7548 76.3256Z" fill="white"/>
<mask id="mask3_2774_19475" style="mask-type:luminance" maskUnits="userSpaceOnUse" x="40" y="73" width="19" height="24">
<path fill-rule="evenodd" clip-rule="evenodd" d="M43.7548 76.3256C44.4151 74.9009 45.7242 73.9003 47.2595 73.5709C51.2612 72.7125 55.463 74.4213 56.7841 78.2949C57.3528 79.9625 57.8277 81.8488 57.998 83.7954C58.1482 85.5114 58.0091 87.2527 57.7312 88.8705C56.9159 93.6158 52.3256 96.3506 47.5108 96.3255C45.4114 96.3146 43.4325 95.3185 42.2192 93.6053C41.5461 92.6549 40.9211 91.7418 40.7647 91.4156C39.9035 89.6196 40.7035 85.1647 41.4777 82.1625C41.9198 80.4479 42.9513 78.0591 43.7548 76.3256Z" fill="white"/>
</mask>
<g mask="url(#mask3_2774_19475)">
<g opacity="0.8">
<rect x="-105.763" y="-227.078" width="927" height="409" transform="rotate(-5 -105.763 -227.078)" fill="#001F3E"/>
</g>
</g>
</g>
<g clip-path="url(#clip1_2774_19475)">
<ellipse cx="51.9125" cy="85.0066" rx="5.1569" ry="9.27551" transform="rotate(-5 51.9125 85.0066)" fill="white"/>
<mask id="mask4_2774_19475" style="mask-type:luminance" maskUnits="userSpaceOnUse" x="46" y="75" width="12" height="20">
<ellipse cx="51.9125" cy="85.0066" rx="5.1569" ry="9.27551" transform="rotate(-5 51.9125 85.0066)" fill="white"/>
</mask>
<g mask="url(#mask4_2774_19475)">
<g opacity="0.6">
<rect x="-60.6809" y="-98.1523" width="707" height="241" transform="rotate(-5 -60.6809 -98.1523)" fill="#001F3E"/>
</g>
</g>
</g>
<g clip-path="url(#clip2_2774_19475)">
<path fill-rule="evenodd" clip-rule="evenodd" d="M124.028 80.3138C129.556 77.3537 132.545 71.1673 131.429 64.9968L131.228 63.883C130.649 60.6837 129.11 57.7363 126.816 55.4328L125.08 53.6895C121.494 50.0899 116.859 47.7032 111.808 47.1637C106.733 46.6218 99.9411 46.0903 93.8668 46.2594C88.7221 46.4026 83.1843 47.2533 78.6243 48.1528C72.0329 49.4531 65.5567 51.7731 60.2988 55.9554C57.3612 58.292 51.8813 63.9142 51.8813 63.9142L47.2743 65.8463C43.8572 67.2795 41.1183 69.9665 39.6203 73.3557L39.5724 73.464C39.2177 74.2664 38.7846 75.0316 38.2794 75.7487C36.4698 78.3168 35.6274 81.4423 35.9012 84.5718L36.0068 85.7791C36.2988 89.1167 39.1464 91.6454 42.4951 91.5408L73.938 90.5592L82.8871 89.7763C88.1349 89.3172 93.3381 88.4441 98.4484 87.1653L120.713 81.5935C121.866 81.3048 122.98 80.875 124.028 80.3138Z" fill="white"/>
<mask id="mask5_2774_19475" style="mask-type:luminance" maskUnits="userSpaceOnUse" x="35" y="46" width="97" height="46">
<path fill-rule="evenodd" clip-rule="evenodd" d="M124.028 80.3138C129.556 77.3537 132.545 71.1673 131.429 64.9968L131.228 63.883C130.649 60.6837 129.11 57.7363 126.816 55.4328L125.08 53.6895C121.494 50.0899 116.859 47.7032 111.808 47.1637C106.733 46.6218 99.9411 46.0903 93.8668 46.2594C88.7221 46.4026 83.1843 47.2533 78.6243 48.1528C72.0329 49.4531 65.5567 51.7731 60.2988 55.9554C57.3612 58.292 51.8813 63.9142 51.8813 63.9142L47.2743 65.8463C43.8572 67.2795 41.1183 69.9665 39.6203 73.3557L39.5724 73.464C39.2177 74.2664 38.7846 75.0316 38.2794 75.7487C36.4698 78.3168 35.6274 81.4423 35.9012 84.5718L36.0068 85.7791C36.2988 89.1167 39.1464 91.6454 42.4951 91.5408L73.938 90.5592L82.8871 89.7763C88.1349 89.3172 93.3381 88.4441 98.4484 87.1653L120.713 81.5935C121.866 81.3048 122.98 80.875 124.028 80.3138Z" fill="white"/>
</mask>
<g mask="url(#mask5_2774_19475)">
<g opacity="0.2">
<rect x="-7.85449" y="-25.3701" width="158" height="122" transform="rotate(-5 -7.85449 -25.3701)" fill="#001F3E"/>
</g>
</g>
</g>
<path fill-rule="evenodd" clip-rule="evenodd" d="M122.47 51.1037L126.819 55.4386L124.519 55.8335C122.76 56.1355 121.159 57.0328 119.982 58.375L119.82 58.5609C118.753 59.778 117.302 60.5932 115.707 60.8709L114.788 61.031C112.915 61.3572 111.008 60.68 109.76 59.2456C109.562 59.0176 109.268 58.9077 108.97 58.9579C107.507 59.2044 102.862 59.9917 98.1693 60.8339L98.084 59.8584C98.0493 59.4625 97.7036 59.1675 97.3071 59.1957C95.0427 59.3568 92.9005 60.2836 91.2328 61.8238L90.8145 62.2101C90.2704 62.3186 89.7618 62.4226 89.2979 62.5207C86.3153 63.1511 83.1805 63.9589 80.7448 64.6231C77.8561 65.4108 75.2321 66.9334 73.0462 68.9796C70.216 71.629 66.6634 73.3796 62.8287 73.949C58.3597 74.6126 52.4958 75.4248 49.566 75.5855C46.5511 75.7508 43.4284 75.4024 41.3751 75.0891C40.1616 74.9039 39.5026 73.6217 39.9989 72.4989C41.2537 69.6601 43.5478 67.4094 46.41 66.209L51.8812 63.9145C51.8812 63.9145 57.3611 58.2923 60.2986 55.9557C65.5295 51.7949 72.1733 49.9314 78.8266 49.2927C82.731 48.9178 87.373 48.5667 91.9971 48.438C99.1345 48.2394 105.926 48.3163 110.073 48.404C111.941 48.4435 113.684 49.112 115.435 49.7836C116.192 50.0743 116.951 50.3655 117.723 50.6065C119.276 51.0919 122.47 51.1037 122.47 51.1037Z" fill="white"/>
<mask id="mask6_2774_19475" style="mask-type:luminance" maskUnits="userSpaceOnUse" x="39" y="48" width="88" height="28">
<path fill-rule="evenodd" clip-rule="evenodd" d="M122.47 51.1037L126.819 55.4386L124.519 55.8335C122.76 56.1355 121.159 57.0328 119.982 58.375L119.82 58.5609C118.753 59.778 117.302 60.5932 115.707 60.8709L114.788 61.031C112.915 61.3572 111.008 60.68 109.76 59.2456C109.562 59.0176 109.268 58.9077 108.97 58.9579C107.507 59.2044 102.862 59.9917 98.1693 60.8339L98.084 59.8584C98.0493 59.4625 97.7036 59.1675 97.3071 59.1957C95.0427 59.3568 92.9005 60.2836 91.2328 61.8238L90.8145 62.2101C90.2704 62.3186 89.7618 62.4226 89.2979 62.5207C86.3153 63.1511 83.1805 63.9589 80.7448 64.6231C77.8561 65.4108 75.2321 66.9334 73.0462 68.9796C70.216 71.629 66.6634 73.3796 62.8287 73.949C58.3597 74.6126 52.4958 75.4248 49.566 75.5855C46.5511 75.7508 43.4284 75.4024 41.3751 75.0891C40.1616 74.9039 39.5026 73.6217 39.9989 72.4989C41.2537 69.6601 43.5478 67.4094 46.41 66.209L51.8812 63.9145C51.8812 63.9145 57.3611 58.2923 60.2986 55.9557C65.5295 51.7949 72.1733 49.9314 78.8266 49.2927C82.731 48.9178 87.373 48.5667 91.9971 48.438C99.1345 48.2394 105.926 48.3163 110.073 48.404C111.941 48.4435 113.684 49.112 115.435 49.7836C116.192 50.0743 116.951 50.3655 117.723 50.6065C119.276 51.0919 122.47 51.1037 122.47 51.1037Z" fill="white"/>
</mask>
<g mask="url(#mask6_2774_19475)">
<g opacity="0.6">
<rect x="8.83984" y="46.8242" width="120.126" height="45.8679" transform="rotate(-5 8.83984 46.8242)" fill="#001F3E"/>
</g>
</g>
<g clip-path="url(#clip3_2774_19475)">
<path fill-rule="evenodd" clip-rule="evenodd" d="M46.4099 66.2091L51.8811 63.9146C51.8811 63.9146 95.4395 61.2226 89.2978 62.5208C86.3152 63.1512 83.1804 63.959 80.7447 64.6232C77.856 65.4109 75.232 66.9335 73.0461 68.9797C70.2159 71.6291 66.6633 73.3797 62.8286 73.9491C61.5286 74.1422 60.1105 74.3478 58.6809 74.5463C58.1233 75.8145 56.9152 76.69 55.5189 76.8122L51.9115 77.1278C50.8698 77.2189 49.937 76.5498 49.6608 75.5802L49.5659 75.5856C49.243 75.6033 48.9188 75.6151 48.5949 75.6217C48.3023 76.703 47.3611 77.5259 46.1966 77.6277L45.7492 77.6669C44.0796 77.813 42.5564 76.7646 42.0755 75.1911C41.8305 75.1572 41.5966 75.123 41.375 75.0892C40.1615 74.904 39.5025 73.6218 39.9988 72.499C41.2536 69.6602 43.5477 67.4095 46.4099 66.2091ZM121.755 77.7115C121.659 77.7174 121.56 77.7306 121.459 77.7517C114.033 79.2939 105.317 81.18 102.308 82.1319C98.9221 83.2031 98.0412 84.9103 97.3814 86.189C97.0295 86.871 96.7404 87.4312 96.1678 87.708C94.3673 88.114 92.5563 88.4699 90.7368 88.7756C90.8035 88.528 90.8594 88.2742 90.904 88.0145C91.182 86.3967 91.321 84.6554 91.1709 82.9394C91.0006 80.9928 90.5256 79.1065 89.9569 77.4389C88.6358 73.5653 84.434 71.8565 80.4323 72.715C78.8971 73.0443 77.5879 74.0449 76.9276 75.4696C76.1242 77.2031 75.0927 79.5919 74.6505 81.3065C74.0444 83.657 73.4224 86.898 73.5943 89.0563C69.7447 89.1186 63.3795 89.4763 60.9235 89.6209C60.2711 89.6593 59.635 89.4457 59.1362 89.0235C57.64 87.7569 55.7123 87.1174 53.7557 87.2384L41.0926 88.0217C40.5858 88.0531 40.1776 88.4495 40.1315 88.9552C40.0684 89.6472 39.4427 90.1579 38.7731 89.9723C38.5334 89.9059 38.2935 89.8248 38.0888 89.7276C37.3525 89.3779 36.2379 88.4239 36.2379 88.4239C36.4001 90.2776 37.9817 91.6821 39.8416 91.624L73.9375 90.5596C74.0939 90.8858 74.7189 91.7989 75.392 92.7493C76.6054 94.4625 78.5843 95.4586 80.6836 95.4695C85.1402 95.4928 89.4045 93.1515 90.6609 89.0399C91.0615 88.9426 91.4562 88.846 91.8415 88.7516C93.3498 88.3821 94.714 88.0479 95.729 87.851C95.8927 87.8192 96.0376 87.7709 96.1678 87.708C96.9298 87.5361 97.69 87.3554 98.4481 87.1656L120.22 81.7171C120.214 82.114 120.345 82.6186 120.583 83.1737C120.716 83.4834 121.284 84.4101 121.857 85.3166C122.682 86.623 124.117 87.4115 125.661 87.4397C129.26 87.5052 132.617 85.3657 133.212 81.8161C133.474 80.2529 133.618 78.5171 133.468 76.8071C133.292 74.7891 132.781 72.8425 132.219 71.2107C131.286 68.5015 128.376 67.237 125.585 67.8864C124.299 68.1857 123.298 69.1941 123.014 70.4837C122.585 72.4381 121.999 75.1506 121.897 75.8788C121.806 76.5189 121.767 77.1384 121.755 77.7115Z" fill="white"/>
<mask id="mask7_2774_19475" style="mask-type:luminance" maskUnits="userSpaceOnUse" x="36" y="62" width="98" height="34">
<path fill-rule="evenodd" clip-rule="evenodd" d="M46.4099 66.2091L51.8811 63.9146C51.8811 63.9146 95.4395 61.2226 89.2978 62.5208C86.3152 63.1512 83.1804 63.959 80.7447 64.6232C77.856 65.4109 75.232 66.9335 73.0461 68.9797C70.2159 71.6291 66.6633 73.3797 62.8286 73.9491C61.5286 74.1422 60.1105 74.3478 58.6809 74.5463C58.1233 75.8145 56.9152 76.69 55.5189 76.8122L51.9115 77.1278C50.8698 77.2189 49.937 76.5498 49.6608 75.5802L49.5659 75.5856C49.243 75.6033 48.9188 75.6151 48.5949 75.6217C48.3023 76.703 47.3611 77.5259 46.1966 77.6277L45.7492 77.6669C44.0796 77.813 42.5564 76.7646 42.0755 75.1911C41.8305 75.1572 41.5966 75.123 41.375 75.0892C40.1615 74.904 39.5025 73.6218 39.9988 72.499C41.2536 69.6602 43.5477 67.4095 46.4099 66.2091ZM121.755 77.7115C121.659 77.7174 121.56 77.7306 121.459 77.7517C114.033 79.2939 105.317 81.18 102.308 82.1319C98.9221 83.2031 98.0412 84.9103 97.3814 86.189C97.0295 86.871 96.7404 87.4312 96.1678 87.708C94.3673 88.114 92.5563 88.4699 90.7368 88.7756C90.8035 88.528 90.8594 88.2742 90.904 88.0145C91.182 86.3967 91.321 84.6554 91.1709 82.9394C91.0006 80.9928 90.5256 79.1065 89.9569 77.4389C88.6358 73.5653 84.434 71.8565 80.4323 72.715C78.8971 73.0443 77.5879 74.0449 76.9276 75.4696C76.1242 77.2031 75.0927 79.5919 74.6505 81.3065C74.0444 83.657 73.4224 86.898 73.5943 89.0563C69.7447 89.1186 63.3795 89.4763 60.9235 89.6209C60.2711 89.6593 59.635 89.4457 59.1362 89.0235C57.64 87.7569 55.7123 87.1174 53.7557 87.2384L41.0926 88.0217C40.5858 88.0531 40.1776 88.4495 40.1315 88.9552C40.0684 89.6472 39.4427 90.1579 38.7731 89.9723C38.5334 89.9059 38.2935 89.8248 38.0888 89.7276C37.3525 89.3779 36.2379 88.4239 36.2379 88.4239C36.4001 90.2776 37.9817 91.6821 39.8416 91.624L73.9375 90.5596C74.0939 90.8858 74.7189 91.7989 75.392 92.7493C76.6054 94.4625 78.5843 95.4586 80.6836 95.4695C85.1402 95.4928 89.4045 93.1515 90.6609 89.0399C91.0615 88.9426 91.4562 88.846 91.8415 88.7516C93.3498 88.3821 94.714 88.0479 95.729 87.851C95.8927 87.8192 96.0376 87.7709 96.1678 87.708C96.9298 87.5361 97.69 87.3554 98.4481 87.1656L120.22 81.7171C120.214 82.114 120.345 82.6186 120.583 83.1737C120.716 83.4834 121.284 84.4101 121.857 85.3166C122.682 86.623 124.117 87.4115 125.661 87.4397C129.26 87.5052 132.617 85.3657 133.212 81.8161C133.474 80.2529 133.618 78.5171 133.468 76.8071C133.292 74.7891 132.781 72.8425 132.219 71.2107C131.286 68.5015 128.376 67.237 125.585 67.8864C124.299 68.1857 123.298 69.1941 123.014 70.4837C122.585 72.4381 121.999 75.1506 121.897 75.8788C121.806 76.5189 121.767 77.1384 121.755 77.7115Z" fill="white"/>
</mask>
<g mask="url(#mask7_2774_19475)">
<g opacity="0.8">
<rect x="-63.4475" y="-155.955" width="217" height="320" transform="rotate(-5 -63.4475 -155.955)" fill="#001F3E"/>
</g>
</g>
</g>
<g clip-path="url(#clip4_2774_19475)">
<path fill-rule="evenodd" clip-rule="evenodd" d="M129.576 85.6813C131.745 85.4915 133.194 81.7916 132.811 77.4174C132.429 73.0432 130.36 69.6511 128.19 69.8409C126.02 70.0308 124.572 73.7306 124.954 78.1048C125.337 82.479 127.406 85.8711 129.576 85.6813ZM85.8939 93.3911C88.7312 93.1428 90.6693 88.8046 90.2228 83.7014C89.7763 78.5982 87.1143 74.6624 84.2771 74.9106C81.4398 75.1589 79.5017 79.4971 79.9482 84.6003C80.3947 89.7035 83.0567 93.6393 85.8939 93.3911Z" fill="white"/>
<mask id="mask8_2774_19475" style="mask-type:luminance" maskUnits="userSpaceOnUse" x="79" y="69" width="54" height="25">
<path fill-rule="evenodd" clip-rule="evenodd" d="M129.576 85.6813C131.745 85.4915 133.194 81.7916 132.811 77.4174C132.429 73.0432 130.36 69.6511 128.19 69.8409C126.02 70.0308 124.572 73.7306 124.954 78.1048C125.337 82.479 127.406 85.8711 129.576 85.6813ZM85.8939 93.3911C88.7312 93.1428 90.6693 88.8046 90.2228 83.7014C89.7763 78.5982 87.1143 74.6624 84.2771 74.9106C81.4398 75.1589 79.5017 79.4971 79.9482 84.6003C80.3947 89.7035 83.0567 93.6393 85.8939 93.3911Z" fill="white"/>
</mask>
<g mask="url(#mask8_2774_19475)">
<g opacity="0.6">
<rect x="-118.187" y="-23.0391" width="326" height="230" transform="rotate(-5 -118.187 -23.0391)" fill="#001F3E"/>
</g>
</g>
</g>
<mask id="mask9_2774_19475" style="mask-type:luminance" maskUnits="userSpaceOnUse" x="23" y="31" width="9" height="13">
<path fill-rule="evenodd" clip-rule="evenodd" d="M26.5149 42.6945C26.2326 42.4438 26.303 42.0756 26.301 41.6464C26.299 41.2248 26.4032 40.7028 26.1848 40.212C25.4953 38.6628 24.551 39.287 23.8198 37.2571C23.0885 35.2272 24.1397 32.6707 26.0332 32.077C27.9267 31.4833 29.3844 31.8944 30.6262 33.615C31.868 35.3356 31.9381 38.6892 31.5627 39.7682C31.1873 40.8471 29.0578 40.212 29.0578 40.212C29.0578 40.212 29.1143 41.7922 28.9936 42.1606C28.8729 42.529 28.4687 43.0113 27.9267 43.0898C27.3846 43.1683 26.7972 42.9451 26.5149 42.6945Z" fill="white"/>
</mask>
<g mask="url(#mask9_2774_19475)">
<rect width="7.03704" height="13.114" transform="matrix(-1 0 0 1 32.2566 30.2637)" fill="#8E736C"/>
</g>
<path fill-rule="evenodd" clip-rule="evenodd" d="M24.3088 33.4545C23.0379 33.4487 22.0095 32.3978 22.0095 31.1023C22.0095 29.8031 23.0437 28.75 24.3194 28.75C25.5952 28.75 26.6294 29.8031 26.6294 31.1023C26.6294 31.3969 26.5762 31.6788 26.479 31.9387C28.1692 31.491 29.3699 32.0649 30.3879 33.2634C30.7608 33.7024 29.9287 35.0776 28.873 35.8213C28.5419 36.0545 28.2309 36.2655 27.8737 36.2655C27.6486 36.2655 27.4728 36.252 27.3311 36.2412C27.0248 36.2178 26.8786 36.2066 26.7411 36.3701C26.6466 36.4824 26.6954 36.8554 26.8219 37.0634C26.8863 37.1694 26.9686 37.2425 27.0413 37.307C27.1293 37.3852 27.2032 37.4508 27.2144 37.5474C27.2706 38.0327 27.1763 38.4644 26.9812 39.0076C26.7382 39.6842 26.2769 40.4191 26.1847 40.2118C25.8702 39.5051 25.5026 39.2506 25.1265 38.9902C24.6781 38.6798 24.2174 38.3608 23.8197 37.2569C23.3591 35.9784 23.5916 34.5251 24.3088 33.4545Z" fill="white"/>
<mask id="mask10_2774_19475" style="mask-type:luminance" maskUnits="userSpaceOnUse" x="22" y="28" width="9" height="13">
<path fill-rule="evenodd" clip-rule="evenodd" d="M24.3088 33.4545C23.0379 33.4487 22.0095 32.3978 22.0095 31.1023C22.0095 29.8031 23.0437 28.75 24.3194 28.75C25.5952 28.75 26.6294 29.8031 26.6294 31.1023C26.6294 31.3969 26.5762 31.6788 26.479 31.9387C28.1692 31.491 29.3699 32.0649 30.3879 33.2634C30.7608 33.7024 29.9287 35.0776 28.873 35.8213C28.5419 36.0545 28.2309 36.2655 27.8737 36.2655C27.6486 36.2655 27.4728 36.252 27.3311 36.2412C27.0248 36.2178 26.8786 36.2066 26.7411 36.3701C26.6466 36.4824 26.6954 36.8554 26.8219 37.0634C26.8863 37.1694 26.9686 37.2425 27.0413 37.307C27.1293 37.3852 27.2032 37.4508 27.2144 37.5474C27.2706 38.0327 27.1763 38.4644 26.9812 39.0076C26.7382 39.6842 26.2769 40.4191 26.1847 40.2118C25.8702 39.5051 25.5026 39.2506 25.1265 38.9902C24.6781 38.6798 24.2174 38.3608 23.8197 37.2569C23.3591 35.9784 23.5916 34.5251 24.3088 33.4545Z" fill="white"/>
</mask>
<g mask="url(#mask10_2774_19475)">
<rect width="13.4568" height="14.5011" transform="matrix(-1 0 0 1 32.9355 27.8672)" fill="#001F3E"/>
</g>
<path fill-rule="evenodd" clip-rule="evenodd" d="M26.6836 96.1118V92.9297H24.603V96.1118H26.6836ZM29.1313 96.1118V92.9297H27.0508V96.1118H29.1313Z" fill="white"/>
<mask id="mask11_2774_19475" style="mask-type:luminance" maskUnits="userSpaceOnUse" x="24" y="92" width="6" height="5">
<path fill-rule="evenodd" clip-rule="evenodd" d="M26.6836 96.1118V92.9297H24.603V96.1118H26.6836ZM29.1313 96.1118V92.9297H27.0508V96.1118H29.1313Z" fill="white"/>
</mask>
<g mask="url(#mask11_2774_19475)">
<rect width="27.7821" height="17.2567" transform="matrix(-1 0 0 1 38.4341 85.8311)" fill="#8E736C"/>
</g>
<path fill-rule="evenodd" clip-rule="evenodd" d="M24.8672 60.1602L25.8803 93.9393H29.3408C29.3408 93.9393 30.5492 83.6822 31.0908 77.7735C31.6324 71.8648 32.1897 60.1602 32.1897 60.1602H24.8672Z" fill="white"/>
<mask id="mask12_2774_19475" style="mask-type:luminance" maskUnits="userSpaceOnUse" x="24" y="60" width="9" height="34">
<path fill-rule="evenodd" clip-rule="evenodd" d="M24.8672 60.1602L25.8803 93.9393H29.3408C29.3408 93.9393 30.5492 83.6822 31.0908 77.7735C31.6324 71.8648 32.1897 60.1602 32.1897 60.1602H24.8672Z" fill="white"/>
</mask>
<g mask="url(#mask12_2774_19475)">
<g opacity="0.6">
<rect width="19.4597" height="36.3493" transform="matrix(-1 0 0 1 42.3506 58.5391)" fill="#005478"/>
</g>
</g>
<path fill-rule="evenodd" clip-rule="evenodd" d="M22.9799 60.1602L23.9929 93.9393H27.4535C27.4535 93.9393 28.2289 82.9029 28.7655 77.0497C29.302 71.1965 29.9016 60.1602 29.9016 60.1602H22.9799Z" fill="white"/>
<mask id="mask13_2774_19475" style="mask-type:luminance" maskUnits="userSpaceOnUse" x="22" y="60" width="8" height="34">
<path fill-rule="evenodd" clip-rule="evenodd" d="M22.9799 60.1602L23.9929 93.9393H27.4535C27.4535 93.9393 28.2289 82.9029 28.7655 77.0497C29.302 71.1965 29.9016 60.1602 29.9016 60.1602H22.9799Z" fill="white"/>
</mask>
<g mask="url(#mask13_2774_19475)">
<g opacity="0.4">
<rect width="10.2806" height="36.9612" transform="matrix(-1 0 0 1 31.3357 59.5176)" fill="#005478"/>
</g>
</g>
<mask id="mask14_2774_19475" style="mask-type:luminance" maskUnits="userSpaceOnUse" x="32" y="47" width="10" height="4">
<path fill-rule="evenodd" clip-rule="evenodd" d="M32.8991 48.1849L38.1028 48.3037C39.2109 47.9029 40.2087 47.6709 41.0962 47.6076C41.3382 47.6389 41.7076 47.7865 41.0621 48.1682C40.4166 48.5498 39.7548 48.9803 39.8166 49.2484C39.8785 49.5166 40.4242 49.507 40.4509 49.9086C40.4687 50.1763 39.6004 50.0816 37.8461 49.6245L33.4551 50.5948L32.8991 48.1849Z" fill="white"/>
</mask>
<g mask="url(#mask14_2774_19475)">
<rect width="10.7737" height="6.63158" transform="matrix(-1 0 0 1 46.5059 46.8291)" fill="#FED0C1"/>
</g>
<mask id="mask15_2774_19475" style="mask-type:luminance" maskUnits="userSpaceOnUse" x="39" y="45" width="5" height="7">
<path fill-rule="evenodd" clip-rule="evenodd" d="M43.5081 46.9409L42.0963 45.6297C42.0005 45.5407 41.8507 45.5462 41.7617 45.6421C41.7449 45.6601 41.7311 45.6807 41.7207 45.703L39.751 49.9203C39.6941 50.0422 39.7108 50.1857 39.7943 50.2912L41.0369 51.8618C41.118 51.9644 41.267 51.9818 41.3695 51.9006C41.3976 51.8783 41.4203 51.85 41.4359 51.8177L43.5863 47.3555C43.654 47.2151 43.6223 47.0469 43.5081 46.9409Z" fill="white"/>
</mask>
<g mask="url(#mask15_2774_19475)">
<rect width="5.68282" height="8.76316" transform="matrix(-1 0 0 1 44.1736 44.5791)" fill="#001F3E"/>
</g>
<mask id="mask16_2774_19475" style="mask-type:luminance" maskUnits="userSpaceOnUse" x="35" y="49" width="10" height="5">
<path fill-rule="evenodd" clip-rule="evenodd" d="M35.8198 51.11C35.8198 51.11 37.3159 50.9977 38.2439 50.8979C39.0315 50.8132 40.8771 50.6675 40.8771 50.6675C40.8771 50.6675 41.558 49.2121 41.8886 49.2884C42.2192 49.3648 41.7563 50.1299 42.0417 50.3823C42.1177 50.4496 42.4079 50.4229 43.0235 50.1591C43.6391 49.8953 43.9909 49.4213 44.2286 49.5588C44.5286 49.7323 43.9144 50.9436 43.2841 51.3099C42.7322 51.6306 41.3212 51.8515 41.3212 51.8515L35.3678 53.7102L35.8198 51.11Z" fill="white"/>
</mask>
<g mask="url(#mask16_2774_19475)">
<rect width="10.7737" height="6.63158" transform="matrix(-1 0 0 1 46.5059 46.8291)" fill="#FED0C1"/>
</g>
<path fill-rule="evenodd" clip-rule="evenodd" d="M29.0021 42.2912L28.8757 41.9209C28.8757 41.9209 28.7441 42.2589 28.1332 42.2589C28.1329 42.2589 28.1323 42.2589 28.1316 42.2589C28.1005 42.2592 27.7201 42.2625 27.2654 42.0589C27.0038 41.9418 26.4144 41.4961 26.4144 41.4961C26.4144 41.4961 24.0921 42.7593 23.3299 44.2854C22.5678 45.8116 20.815 61.7503 20.815 61.7503H32.3963L32.1349 55.9363L40.8232 52.7726L40.0562 49.8402H37.3318L37.3533 48.0375L32.3926 47.2812C32.3926 47.2812 29.8149 43.2145 29.0021 42.2912Z" fill="white"/>
<mask id="mask17_2774_19475" style="mask-type:luminance" maskUnits="userSpaceOnUse" x="20" y="41" width="21" height="21">
<path fill-rule="evenodd" clip-rule="evenodd" d="M29.0021 42.2912L28.8757 41.9209C28.8757 41.9209 28.7441 42.2589 28.1332 42.2589C28.1329 42.2589 28.1323 42.2589 28.1316 42.2589C28.1005 42.2592 27.7201 42.2625 27.2654 42.0589C27.0038 41.9418 26.4144 41.4961 26.4144 41.4961C26.4144 41.4961 24.0921 42.7593 23.3299 44.2854C22.5678 45.8116 20.815 61.7503 20.815 61.7503H32.3963L32.1349 55.9363L40.8232 52.7726L40.0562 49.8402H37.3318L37.3533 48.0375L32.3926 47.2812C32.3926 47.2812 29.8149 43.2145 29.0021 42.2912Z" fill="white"/>
</mask>
<g mask="url(#mask17_2774_19475)">
<g opacity="0.4">
<rect width="22.1393" height="25.3421" transform="matrix(-1 0 0 1 38.1003 39.25)" fill="#FAA000"/>
</g>
</g>
<path fill-rule="evenodd" clip-rule="evenodd" d="M29.2919 50.5857L28.133 42.2589C28.133 42.2589 27.424 42.0452 27.1387 41.9129C26.8534 41.7805 26.4371 41.3818 26.4371 41.3818C26.4371 41.3818 24.2461 42.2468 23.708 43.0205C23.17 43.7943 17.5119 66.22 17.5119 66.22H29.2919L29.5227 56.9648L30.7885 56.525L32.2315 66.2332H35.2741L33.5414 55.5684L41.5334 52.7912L40.3049 49.485L37.9468 49.7207V47.4171L32.5251 46.533L28.8696 41.9208C28.8696 41.9208 28.8571 41.9869 28.7822 42.0611C28.7072 42.1353 28.6526 42.1556 28.6526 42.1556L29.8967 50.5253L29.2919 50.5857Z" fill="white"/>
<mask id="mask18_2774_19475" style="mask-type:luminance" maskUnits="userSpaceOnUse" x="17" y="41" width="25" height="26">
<path fill-rule="evenodd" clip-rule="evenodd" d="M29.2919 50.5857L28.133 42.2589C28.133 42.2589 27.424 42.0452 27.1387 41.9129C26.8534 41.7805 26.4371 41.3818 26.4371 41.3818C26.4371 41.3818 24.2461 42.2468 23.708 43.0205C23.17 43.7943 17.5119 66.22 17.5119 66.22H29.2919L29.5227 56.9648L30.7885 56.525L32.2315 66.2332H35.2741L33.5414 55.5684L41.5334 52.7912L40.3049 49.485L37.9468 49.7207V47.4171L32.5251 46.533L28.8696 41.9208C28.8696 41.9208 28.8571 41.9869 28.7822 42.0611C28.7072 42.1353 28.6526 42.1556 28.6526 42.1556L29.8967 50.5253L29.2919 50.5857Z" fill="white"/>
</mask>
<g mask="url(#mask18_2774_19475)">
<g opacity="0.8">
<rect width="32.0843" height="27.1184" transform="matrix(1 0 0 -1 13.8296 66.9609)" fill="#0DCC74"/>
</g>
</g>
<mask id="mask19_2774_19475" style="mask-type:luminance" maskUnits="userSpaceOnUse" x="20" y="44" width="13" height="13">
<path fill-rule="evenodd" clip-rule="evenodd" d="M31.1791 44.7031L32.4719 50.2309H32.8967L31.1791 44.7031ZM29.2919 50.5861L25.7988 49.3165L26.2931 48.8544L29.2919 50.5861ZM20.7799 54.4152L21.0854 53.4987L29.4225 56.968L20.7799 54.4152Z" fill="white"/>
</mask>
<g mask="url(#mask19_2774_19475)">
<rect width="17.1669" height="19.4211" transform="matrix(-1 0 0 1 36.3242 41.0273)" fill="#21A09A"/>
</g>
<path fill-rule="evenodd" clip-rule="evenodd" d="M27.7677 96.0079C27.1211 96.0079 26.3562 96.1297 26.2923 96.7731C26.2894 96.8024 26.2878 96.8299 26.2878 96.8553C26.2878 97.236 26.4144 97.9664 26.4144 97.9664C26.8551 97.9664 34.3358 97.9664 34.3358 97.9664C34.3358 97.9664 34.3839 96.9369 33.7186 96.8553C33.2292 96.7953 30.9383 95.8251 29.7618 95.3165C29.3759 95.1498 28.9285 95.3312 28.7686 95.7199C28.7686 95.7199 28.1527 96.0079 27.7677 96.0079Z" fill="white"/>
<mask id="mask20_2774_19475" style="mask-type:luminance" maskUnits="userSpaceOnUse" x="26" y="95" width="9" height="3">
<path fill-rule="evenodd" clip-rule="evenodd" d="M27.7677 96.0079C27.1211 96.0079 26.3562 96.1297 26.2923 96.7731C26.2894 96.8024 26.2878 96.8299 26.2878 96.8553C26.2878 97.236 26.4144 97.9664 26.4144 97.9664C26.8551 97.9664 34.3358 97.9664 34.3358 97.9664C34.3358 97.9664 34.3839 96.9369 33.7186 96.8553C33.2292 96.7953 30.9383 95.8251 29.7618 95.3165C29.3759 95.1498 28.9285 95.3312 28.7686 95.7199C28.7686 95.7199 28.1527 96.0079 27.7677 96.0079Z" fill="white"/>
</mask>
<g mask="url(#mask20_2774_19475)">
<g opacity="0.1">
<rect width="10.8925" height="5.87464" transform="matrix(-1 0 0 1 36.2974 93.4199)" fill="#001F3E"/>
</g>
</g>
<path fill-rule="evenodd" clip-rule="evenodd" d="M25.3199 96.0079C24.6733 96.0079 23.9085 96.1297 23.8445 96.7731C23.8416 96.8024 23.8401 96.8299 23.8401 96.8553C23.8401 97.236 23.9667 97.9664 23.9667 97.9664C24.4074 97.9664 31.888 97.9664 31.888 97.9664C31.888 97.9664 31.9361 96.9369 31.2709 96.8553C30.7814 96.7953 28.4906 95.8251 27.314 95.3165C26.9282 95.1498 26.4807 95.3312 26.3208 95.7199C26.3208 95.7199 25.705 96.0079 25.3199 96.0079Z" fill="white"/>
<mask id="mask21_2774_19475" style="mask-type:luminance" maskUnits="userSpaceOnUse" x="23" y="95" width="9" height="3">
<path fill-rule="evenodd" clip-rule="evenodd" d="M25.3199 96.0079C24.6733 96.0079 23.9085 96.1297 23.8445 96.7731C23.8416 96.8024 23.8401 96.8299 23.8401 96.8553C23.8401 97.236 23.9667 97.9664 23.9667 97.9664C24.4074 97.9664 31.888 97.9664 31.888 97.9664C31.888 97.9664 31.9361 96.9369 31.2709 96.8553C30.7814 96.7953 28.4906 95.8251 27.314 95.3165C26.9282 95.1498 26.4807 95.3312 26.3208 95.7199C26.3208 95.7199 25.705 96.0079 25.3199 96.0079Z" fill="white"/>
</mask>
<g mask="url(#mask21_2774_19475)">
<g opacity="0.1">
<rect width="10.8925" height="5.87464" transform="matrix(-1 0 0 1 33.8496 93.4199)" fill="#001F3E"/>
</g>
</g>
</g>
<defs>
<clipPath id="clip0_2774_19475">
<rect width="18.0997" height="24.259" fill="white" transform="translate(38.981 73.4502) rotate(-5)"/>
</clipPath>
<clipPath id="clip1_2774_19475">
<rect width="10.4149" height="18.551" fill="white" transform="translate(45.9224 76.2197) rotate(-5)"/>
</clipPath>
<clipPath id="clip2_2774_19475">
<rect width="97.8801" height="42.7081" fill="white" transform="translate(32.9885 51.3623) rotate(-5)"/>
</clipPath>
<clipPath id="clip3_2774_19475">
<rect width="97.9812" height="34.35" fill="white" transform="translate(34.2144 65.375) rotate(-5)"/>
</clipPath>
<clipPath id="clip4_2774_19475">
<rect width="53.288" height="19.7742" fill="white" transform="translate(79.0332 74.1416) rotate(-5)"/>
</clipPath>
</defs>
</svg>
